<svg width="392" height="348" viewBox="0 0 392 348" fill="none" xmlns="http://www.w3.org/2000/svg">
    <path d="M118.548 127.816C117.363 127.435 115.976 127.305 115.119 127.169C111.239 126.539 107.205 126.996 103.542 128.421C99.7722 129.898 96.8022 132.407 94.155 135.421C92.4857 137.322 90.2017 139.392 90.0239 141.865L89.7879 141.726C88.323 132.502 82.4056 124.415 76.048 117.84C70.7007 112.315 65.0652 107.619 57.6838 106.139C80.6254 100.063 105.639 106.367 118.548 127.816Z" fill="#ED7A5D"/>
    <path d="M54.2047 107.17C70.9275 108.53 83.6588 126.054 88.6211 141.057C74.9292 133.832 53.2846 143.018 49.9148 158.39L49.7091 158.256C46.5866 140.852 45.5553 124.013 53.2036 107.52L53.2071 107.49C53.5387 107.38 53.8728 107.28 54.2047 107.17Z" fill="#ED7A5D"/>
    <path d="M48.9815 157.797C43.8039 154.897 36.7211 156.234 31.6156 158.762C25.1 161.991 20.0582 167.857 18.1564 174.865C6.94963 148.175 21.7481 121.23 47.2773 109.806C48.7364 109.152 50.2269 108.552 51.7292 108.008C44.5701 123.086 44.1418 141.929 48.9815 157.797Z" fill="#ED7A5D"/>
    <path d="M121.305 130.133C113.372 156.201 101.065 182.432 86.594 205.513C86.3429 205.91 85.9048 205.845 85.6544 205.593C85.5129 205.623 85.3465 205.628 85.1807 205.544L85.1581 205.53L84.9164 205.413C73.9348 200.051 62.8664 194.886 51.6031 190.106C40.7945 185.516 29.4626 181.905 18.8313 176.942C18.4743 177.352 17.6812 176.958 17.8125 176.319L17.8254 176.287L17.6991 176.156C10.4932 164.397 11.3973 148.647 16.9428 136.434C22.7379 123.675 33.9128 114.078 46.5498 108.413C73.3199 96.4204 106.185 101.717 121.055 128.855C121.205 129.139 121.169 129.392 121.044 129.597C121.238 129.674 121.379 129.872 121.305 130.133ZM119.807 130.646C119.354 130.792 118.968 130.41 118.849 130.03L118.786 129.827C118.749 129.697 118.754 129.578 118.771 129.475C117.26 129.321 115.119 128.896 114.904 128.862C113.423 128.613 112.114 128.535 110.611 128.605C107.908 128.743 105.374 129.347 102.9 130.471C99.5355 131.999 91.4078 138.053 91.1432 142.636L91.1774 142.656C91.8221 143.142 91.4609 144.047 90.8662 144.172C89.7657 164.223 88.4849 184.398 85.7279 204.305L85.8152 204.346C92.5526 192.177 99.2711 180.1 105.098 167.443C110.664 155.333 115.336 142.91 120.192 130.506L120.074 130.561L119.807 130.646ZM115.119 127.17C115.976 127.306 117.363 127.436 118.549 127.817C105.639 106.368 80.6257 100.064 57.684 106.14C65.0654 107.619 70.701 112.315 76.0482 117.841C82.4058 124.416 88.3232 132.503 89.7881 141.727L90.0242 141.866C90.202 139.393 92.4859 137.322 94.1553 135.422C96.8025 132.408 99.7724 129.899 103.542 128.422C107.205 126.997 111.239 126.54 115.119 127.17ZM88.6211 141.057C83.6587 126.054 70.9275 108.531 54.2046 107.171C53.8727 107.28 53.5387 107.38 53.207 107.491L53.2035 107.521C45.5552 124.013 46.5865 140.852 49.7091 158.256L49.9148 158.39C53.2845 143.018 74.9291 133.833 88.6211 141.057ZM84.96 203.471C86.5534 183.515 88.554 163.62 89.6477 143.63C75.8143 134.711 55.9469 144.279 50.9072 159.166L50.9775 159.22C51.476 159.667 51.037 160.342 50.493 160.427C62.3828 174.293 74.4751 188.51 84.96 203.471ZM19.091 176.305C30.9279 179.367 42.4886 184.714 53.7137 189.503C64.0403 193.908 74.2484 198.595 84.3066 203.6C72.1538 189.562 60.768 174.723 48.9148 160.425C48.7041 160.174 48.7519 159.887 48.9051 159.678C36.6408 153.098 22.7291 164.633 19.091 176.305ZM31.6158 158.763C36.7214 156.236 43.8042 154.898 48.9817 157.798C44.1421 141.931 44.5704 123.087 51.7294 108.009C50.2271 108.553 48.7367 109.153 47.2776 109.807C21.7484 121.231 6.9499 148.176 18.1566 174.867C20.0584 167.859 25.1003 161.992 31.6158 158.763Z" fill="#171717"/>
    <path d="M111.325 211.749C114.422 210.921 117.534 210.109 120.651 209.316L120.667 209.331C122.752 210.599 124.63 211.983 126.362 213.482C121.308 213.224 116.291 212.662 111.325 211.749Z" fill="white"/>
    <path d="M65.8826 226.614C62.4113 231.026 58.974 235.448 55.6444 239.957L55.334 240.063C56.0975 236.884 56.6557 232.918 58.7015 230.539C60.3632 228.615 63.2139 227.551 65.8826 226.614Z" fill="white"/>
    <path d="M127.624 214.605L127.723 214.694C104.008 222.794 80.2328 230.901 56.7139 239.564C60.4239 235.108 64.0256 230.565 67.6126 226.005C67.9291 225.886 68.2484 225.777 68.5436 225.653C72.0594 224.26 75.5839 222.924 79.1346 221.642C89.013 218.066 99.027 215.083 109.137 212.344C115.213 213.576 121.396 214.34 127.624 214.605Z" fill="white"/>
    <path d="M128.529 215.462C130.992 217.907 133.132 220.643 135.076 223.785L135.018 223.793C107.874 234.471 80.2116 243.593 52.1162 251.395C53.2354 247.961 54.1546 244.469 55.1068 240.987C55.1331 240.878 55.1659 240.756 55.1983 240.635C55.1814 240.872 55.4586 241.079 55.6522 240.857C55.7898 240.682 55.9268 240.508 56.0764 240.34C80.3441 232.453 104.464 223.934 128.529 215.462Z" fill="white"/>
    <path d="M69.407 247.921C91.7288 241.309 113.736 233.695 135.404 225.185C137.94 242.495 141.628 260.547 147.398 277.078C121.9 284.167 96.4182 291.888 71.6158 301.137C67.7662 290.515 63.4161 280.07 59.2681 269.561C58.2249 266.936 57.1873 264.299 56.1498 261.662C55.5931 260.239 52.7149 255.339 53.0429 253.769C53.5227 251.426 59.137 250.893 61.1313 250.319C63.8976 249.534 66.6492 248.733 69.407 247.921ZM82.8719 287.718C79.5767 288.396 76.2589 289.939 73.0304 290.959C72.5056 291.124 72.757 291.894 73.2837 291.769C76.5323 291.006 80.3574 290.212 83.2682 288.564C83.7677 288.286 83.3648 287.614 82.8719 287.718ZM72.2295 288.4C75.1574 287.646 78.3553 286.948 81.1146 285.721C81.7456 285.443 81.4744 284.577 80.7982 284.707C77.831 285.273 74.8057 286.522 71.9699 287.571C71.4446 287.766 71.6866 288.539 72.2295 288.4ZM84.414 290.288C81.1979 290.96 78.0008 292.275 74.9083 293.374C74.3735 293.571 74.6214 294.364 75.173 294.221C78.3404 293.361 81.7168 292.618 84.7426 291.337C85.3944 291.063 85.1063 290.142 84.414 290.288Z" fill="white"/>
    <path d="M73.0303 290.959C76.2587 289.939 79.5766 288.396 82.8718 287.718C83.3647 287.614 83.7675 288.286 83.2681 288.564C80.3573 290.212 76.5321 291.006 73.2836 291.769C72.7568 291.895 72.5054 291.124 73.0303 290.959Z" fill="white"/>
    <path d="M81.1144 285.72C78.355 286.948 75.1572 287.645 72.2292 288.399C71.6863 288.539 71.4444 287.765 71.9697 287.57C74.8054 286.522 77.8308 285.272 80.7979 284.707C81.4742 284.577 81.7453 285.442 81.1144 285.72Z" fill="white"/>
    <path d="M75.173 294.222C74.6214 294.364 74.3735 293.572 74.9083 293.375C78.0008 292.275 81.1979 290.961 84.414 290.288C85.1063 290.143 85.3944 291.064 84.7426 291.338C81.7168 292.619 78.3404 293.362 75.173 294.222Z" fill="white"/>
    <path d="M68.9272 307.693C75.2455 305.613 81.7116 303.014 88.1804 301.23C89.1478 300.961 89.98 301.446 89.0091 301.88C83.3524 304.434 75.8436 306.511 69.4716 308.359C68.4385 308.66 67.9 308.03 68.9272 307.693Z" fill="#171717"/>
    <path d="M92.1242 305.662C89.3648 306.889 86.167 307.586 83.239 308.341C82.6961 308.48 82.4541 307.707 82.9794 307.512C85.8152 306.463 88.8405 305.213 91.8077 304.648C92.484 304.518 92.7551 305.384 92.1242 305.662Z" fill="#171717"/>
    <path d="M105.663 211.578C99.8357 210.207 94.1184 208.408 88.556 206.106C83.4932 204.01 81.5808 208.268 78.8035 211.795C76.1195 215.203 73.4357 218.61 70.7491 222.009C70.3023 222.583 69.8527 223.148 69.3965 223.726C70.4316 223.321 71.4651 222.907 72.4944 222.514C83.3286 218.375 94.4211 214.64 105.663 211.578ZM109.136 212.341C99.0265 215.08 89.0125 218.062 79.1341 221.639C75.5834 222.921 72.059 224.257 68.5431 225.65C68.2479 225.773 67.9287 225.883 67.6121 226.002C64.0251 230.562 60.4234 235.105 56.7134 239.561C80.2323 230.897 104.007 222.791 127.722 214.691L127.623 214.601C121.396 214.337 115.212 213.572 109.136 212.341ZM91.3016 206.126C95.3156 207.68 99.4259 208.991 103.592 210.063C104.946 210.417 106.307 210.73 107.674 211.029C111.866 209.919 116.074 208.896 120.295 208.01C120.806 207.9 121.147 208.309 121.167 208.697C127.544 211.826 133.03 217.215 136.113 223.64C136.175 223.772 136.185 223.9 136.149 224.012C136.347 224.062 136.515 224.18 136.559 224.42C139.928 242.095 144.339 259.324 148.44 276.821C149.176 276.784 149.484 277.93 148.684 278.15C122.811 285.56 97.3246 294.011 71.789 302.497C71.2396 302.678 70.8916 302.182 70.9578 301.746C70.8519 301.698 70.753 301.608 70.7034 301.482C63.7247 285.319 57.5746 268.767 51.045 252.424C50.9954 252.297 51.0132 252.161 51.0551 252.037C50.9931 251.934 50.9677 251.821 50.9917 251.672C51.8951 247.356 53.1118 243.104 54.2584 238.854C54.9889 236.118 55.3795 232.165 56.9309 229.76C57.8892 228.267 59.5489 227.757 61.1206 227.093C63.2701 226.178 65.4313 225.3 67.5954 224.43C68.9762 222.675 70.3666 220.915 71.7479 219.159C74.4286 215.742 77.1031 212.338 79.787 208.93C80.9647 207.43 82.4758 204.248 84.5922 203.808C86.6901 203.374 89.4717 205.415 91.3016 206.126ZM71.6158 301.137C96.4182 291.888 121.9 284.167 147.398 277.078C141.629 260.547 137.94 242.495 135.404 225.185C113.736 233.694 91.7288 241.309 69.407 247.921C66.6492 248.733 63.8976 249.534 61.1313 250.318C59.137 250.893 53.5227 251.426 53.0429 253.769C52.7149 255.338 55.5931 260.239 56.1498 261.662C57.1873 264.299 58.2249 266.936 59.2681 269.561C63.4161 280.07 67.7662 290.514 71.6158 301.137ZM120.652 209.313C117.534 210.106 114.423 210.918 111.325 211.747C116.292 212.659 121.309 213.221 126.363 213.479C124.63 211.979 122.752 210.596 120.667 209.328L120.652 209.313ZM65.8827 226.614C63.214 227.551 60.3633 228.615 58.7017 230.539C56.6564 232.917 56.0976 236.884 55.3341 240.063L55.6441 239.957C58.9737 235.448 62.4115 231.026 65.8827 226.614ZM52.1164 251.391C80.2118 243.589 107.874 234.468 135.018 223.79L135.076 223.782C133.132 220.64 130.992 217.904 128.529 215.459C104.465 223.931 80.3442 232.449 56.0765 240.337C55.9269 240.505 55.7899 240.679 55.6524 240.854C55.4588 241.076 55.1816 240.869 55.1985 240.632C55.1661 240.753 55.1332 240.875 55.107 240.984C54.1548 244.466 53.2356 247.958 52.1164 251.391Z" fill="#171717"/>
    <circle cx="101.016" cy="264.448" r="5.33065" transform="rotate(-20.3119 101.016 264.448)" stroke="#FFD037" stroke-width="4"/>
    <path d="M97.3801 254.627L95.5625 249.717" stroke="#FFD037" stroke-width="3" stroke-linecap="round" stroke-linejoin="round"/>
    <path d="M106.469 279.184L104.651 274.273" stroke="#FFD037" stroke-width="3" stroke-linecap="round" stroke-linejoin="round"/>
    <path d="M110.836 260.815L115.747 258.997" stroke="#FFD037" stroke-width="3" stroke-linecap="round" stroke-linejoin="round"/>
    <path d="M86.2838 269.905L91.1943 268.087" stroke="#FFD037" stroke-width="3" stroke-linecap="round" stroke-linejoin="round"/>
    <path d="M105.39 254.931L107.577 250.174" stroke="#FFD037" stroke-width="3" stroke-linecap="round" stroke-linejoin="round"/>
    <path d="M94.4546 278.723L96.6416 273.966" stroke="#FFD037" stroke-width="3" stroke-linecap="round" stroke-linejoin="round"/>
    <path d="M110.531 268.826L115.288 271.013" stroke="#FFD037" stroke-width="3" stroke-linecap="round" stroke-linejoin="round"/>
    <path d="M86.7424 257.887L91.5 260.074" stroke="#FFD037" stroke-width="3" stroke-linecap="round" stroke-linejoin="round"/>
    <path d="M242.723 16.1762C242.199 14.8277 236.211 9.63427 238.235 8.80253C239.344 8.14776 241.914 12.3186 243.205 13.0031C243.902 13.7604 245.682 14.7724 244.387 16.0745C243.91 16.5218 243.13 16.6395 242.723 16.1762Z" fill="#231F20"/>
    <path d="M273.792 7.23118C273.505 5.19129 273.481 2.94626 272.495 1.15781C269.604 4.45462 272.807 -4.85848 274.88 4.95829C274.874 4.92852 274.869 4.89886 274.865 4.86958C274.871 4.91007 274.879 4.94769 274.885 4.98806C274.883 4.97685 274.881 4.9655 274.879 4.95429C274.885 4.98131 274.891 5.01111 274.896 5.04088C274.895 5.04038 274.895 5.03712 274.894 5.03663C274.907 5.1004 274.919 5.16406 274.93 5.23058C274.929 5.22323 274.928 5.21601 274.927 5.20854C274.932 5.23831 274.938 5.26807 274.943 5.29772C274.941 5.28675 274.94 5.27593 274.938 5.26484C274.943 5.29437 274.949 5.32101 274.954 5.35053C274.951 5.33908 274.949 5.32773 274.946 5.31627C274.962 5.39873 274.977 5.48071 274.992 5.56268C274.988 5.53004 274.981 5.50313 274.977 5.47061C275.067 5.95218 275.141 6.4358 275.217 6.92091C275.307 7.75192 273.909 8.09597 273.792 7.23118Z" fill="#231F20"/>
    <path d="M349.989 20.1006C350.002 17.1244 353.153 14.9307 354.352 12.2924C355.109 11.0326 357.461 12 356.5 13.4118C355.176 15.6437 353.435 17.6128 352.318 19.9656C351.902 20.8278 350.459 20.9924 349.989 20.1006Z" fill="#231F20"/>
    <path d="M384.29 59.6235C383.152 57.406 387.962 56.7445 389.527 56.2251C392.031 56.3593 390.8 58.5623 388.842 58.4595C387.172 58.3905 385.73 60.5877 384.29 59.6235Z" fill="#231F20"/>
    <path d="M7.94519 129.223C7.23139 128.624 2.24228 127.548 3.12699 126.452C3.55056 125.738 6.29311 127.297 7.23429 127.283C7.86235 127.494 9.18014 127.514 8.85298 128.65C8.72231 129.05 8.31826 129.359 7.94519 129.223Z" fill="#231F20"/>
    <path d="M14.2412 114.729C13.4474 113.666 12.7385 112.407 11.6276 111.703C11.0174 114.459 9.93994 108.21 14.1513 113.109C14.139 113.094 14.127 113.079 14.1154 113.063C14.1316 113.084 14.1476 113.103 14.1636 113.124C14.1589 113.118 14.1541 113.113 14.1494 113.107C14.1616 113.12 14.1738 113.135 14.1861 113.151C14.1854 113.151 14.1845 113.149 14.1838 113.149C14.2106 113.181 14.2373 113.213 14.2642 113.247C14.2613 113.243 14.2585 113.239 14.2554 113.236C14.2677 113.251 14.28 113.266 14.292 113.281C14.2877 113.275 14.2836 113.27 14.2791 113.264C14.291 113.279 14.3027 113.292 14.3146 113.307C14.3095 113.302 14.3047 113.296 14.2996 113.29C14.3342 113.332 14.3681 113.374 14.402 113.415C14.3895 113.398 14.3775 113.385 14.3651 113.368C14.5651 113.612 14.7564 113.862 14.9498 114.112C15.2579 114.554 14.5754 115.181 14.2412 114.729Z" fill="#231F20"/>
    <path d="M87.6187 95.5773C86.7037 93.8934 87.8027 91.6789 87.6621 89.8182C87.6991 88.8726 89.3264 88.6899 89.2216 89.7845C89.1656 91.4546 88.7931 93.1053 88.8917 94.7794C88.9236 95.3952 88.16 95.9352 87.6187 95.5773Z" fill="#231F20"/>
    <path d="M24.8631 106.709C23.4123 105.457 23.6582 102.997 22.8693 101.306C22.57 100.409 24.0278 99.6628 24.3164 100.724C24.854 102.306 25.0886 103.982 25.7722 105.513C26.0196 106.078 25.496 106.853 24.8631 106.709Z" fill="#231F20"/>
    <path d="M104.426 99.3583C103.236 98.2813 105.983 96.7888 106.807 96.1198C108.346 95.631 108.106 97.2381 106.903 97.6217C105.881 97.96 105.513 99.6115 104.426 99.3583Z" fill="#231F20"/>
    <path d="M0.758044 143.119C0.42269 141.55 3.52353 141.945 4.58369 141.885C6.11789 142.388 4.98301 143.551 3.78296 143.159C2.75647 142.836 1.49177 143.96 0.758044 143.119Z" fill="#231F20"/>
    <path d="M343.444 124.299C340.981 124.731 337.211 125.268 334.495 126.76C343.104 97.1051 337.853 61.6228 317.812 37.5044C342.222 45.5718 363.281 61.1389 376.154 85.096C384.973 101.486 389.078 120.038 387.828 138.584C380.317 130.4 369.306 125.439 358.41 124.007C353.434 123.352 348.384 123.428 343.444 124.299Z" fill="#ED7A5D"/>
    <path d="M316.034 36.9465C334.877 63.6599 342.392 95.7601 332.623 127.643C332.573 127.83 332.593 127.986 332.646 128.114L332.451 128.323C328.824 114.227 313.548 104.903 300.443 101C286.211 96.7649 270.066 97.5633 256.815 104.529C263.055 74.4546 281.21 48.6089 309.202 35.0047C311.513 35.5869 313.782 36.2304 316.034 36.9465Z" fill="#ED7A5D"/>
    <path d="M306.907 34.4533C280.879 47.7027 260.619 73.4113 256.025 102.507C252.609 93.0589 241.844 87.6123 232.504 85.164C220.882 82.1174 207.451 83.0787 196.821 88.9929C211.538 54.7347 241.968 29.4939 280.642 30.9712C289.579 31.3164 298.394 32.4679 306.907 34.4533Z" fill="#ED7A5D"/>
    <path d="M287.344 29.4404C308.33 31.3565 329.822 36.9223 347.246 49.1766C376.227 69.579 393.139 105.623 389.515 140.952C389.481 141.257 389.322 141.476 389.131 141.624L388.96 141.929C381.017 148.879 371.676 153.703 362.184 158.198C351.501 163.244 340.812 168.265 330.247 173.571C308.281 184.619 286.737 196.47 265.627 209.07C264.762 209.573 263.996 208.336 264.672 207.742L264.812 207.642C285.294 195.462 306.165 183.966 327.442 173.233C347.538 163.104 369.813 155.238 387.781 141.469L387.683 141.279L387.396 141.089C380.165 134.086 372.245 129.052 362.308 126.867C357.389 125.775 352.313 125.443 347.299 125.893C345.267 126.078 342.291 126.319 339.504 126.975C336.708 127.617 334.106 128.649 332.835 130.41C322.65 143.556 310.854 155.624 299.824 168.051C288.261 181.098 276.915 194.367 265.057 207.159L264.719 207.341L264.543 207.62C264.177 207.996 263.462 208.089 263.111 207.492C251.481 188.44 240.063 169.259 228.551 150.14C217.058 131.051 204.936 112.19 194.29 92.6168C194.131 92.3232 194.251 92.0668 194.451 91.9345L194.53 91.5538C194.099 91.3861 193.907 90.7571 194.425 90.4216C194.577 90.3249 194.725 90.241 194.877 90.1443C201.542 71.2838 214.277 54.4942 230.752 43.114C247.623 31.4774 267.094 27.5873 287.344 29.4404ZM317.812 37.5062C337.853 61.6245 343.104 97.1069 334.495 126.762C337.211 125.27 340.982 124.733 343.444 124.301C348.385 123.43 353.434 123.354 358.41 124.009C369.306 125.441 380.317 130.402 387.828 138.586C389.078 120.04 384.973 101.487 376.154 85.0977C363.281 61.1407 342.222 45.5736 317.812 37.5062ZM300.443 101C313.549 104.903 328.824 114.227 332.451 128.323L332.647 128.114C332.593 127.986 332.574 127.83 332.624 127.643C342.393 95.7602 334.877 63.66 316.034 36.9466C313.783 36.2305 311.514 35.587 309.202 35.0047C281.21 48.609 263.056 74.4546 256.816 104.529C270.067 97.5633 286.211 96.765 300.443 101ZM195.21 92.0909C207.549 110.659 218.561 130.181 230.082 149.266C241.05 167.435 252.089 185.571 262.964 203.802C260.238 171.844 257.076 139.552 256.711 107.485C256.158 107.95 254.977 107.677 254.858 106.692C253.36 94.4941 238.947 88.3911 228.333 86.4348C216.763 84.3042 205.849 86.7057 195.275 91.4442C195.172 91.5926 195.08 91.7426 195.009 91.9104L195.21 92.0909ZM280.642 30.9726C241.968 29.4953 211.539 54.7361 196.822 88.9943C207.452 83.0801 220.882 82.1188 232.504 85.1654C241.844 87.6137 252.61 93.0603 256.026 102.508C260.619 73.4127 280.879 47.7041 306.907 34.4547C298.395 32.4693 289.579 31.3178 280.642 30.9726ZM298.187 102.605C284.287 98.8987 270.26 100.574 257.216 106.369L256.963 106.426L257.005 106.639C257.214 106.608 257.443 106.732 257.469 107.003C260.624 139.781 261.872 172.791 264.648 205.63C275.531 192.861 286.91 180.49 298.059 167.946C309.031 155.591 319.57 142.528 331.282 130.864C330.997 130.76 330.758 130.533 330.677 130.134C327.726 115.546 311.538 106.161 298.187 102.605Z" fill="#171717"/>
    <path d="M299.009 248.114C294.072 244.195 289.399 240.136 285.034 235.821C287.968 236.56 290.902 237.297 293.839 238.024C294.145 238.095 294.393 238.013 294.576 237.849C296.692 240.571 297.914 244.455 299.009 248.114Z" fill="white"/>
    <path d="M210.282 229.601C213.671 225.823 216.803 222.527 217.582 222.062C221.467 219.725 225.641 220.79 229.698 221.922C223.424 224.185 217.169 226.465 210.964 228.935C210.726 229.033 210.719 229.281 210.843 229.428L210.808 229.418C210.571 229.367 210.384 229.454 210.282 229.601Z" fill="white"/>
    <path d="M281.673 234.993C287.035 240.62 292.943 245.896 299.378 250.21C284.695 246.754 269.839 243.978 255.133 240.515C240.424 237.065 225.865 233.066 211.184 229.509C218.548 227.983 225.839 225.484 232.976 222.818C236.966 223.819 240.958 224.819 244.948 225.821C257.195 228.875 269.438 231.941 281.673 234.993Z" fill="white"/>
    <path d="M200.749 240.91C202.243 238.795 206.412 233.902 210.263 229.623C210.094 229.878 210.144 230.293 210.537 230.414C239.402 239.157 269.688 246.558 299.464 251.413C299.68 251.447 299.85 251.38 299.972 251.251C300.143 251.774 300.309 252.271 300.48 252.743C302.024 257.016 303.59 261.293 305.456 265.439C305.356 265.299 305.214 265.172 305.004 265.115C287.307 260.07 269.488 255.421 251.569 251.232C234.807 247.308 217.832 243.152 200.749 240.91Z" fill="white"/>
    <path d="M187.194 313.72C190.583 301.904 192.784 289.663 194.928 277.581C196.946 266.143 199.091 254.476 199.862 242.873L199.839 242.679C200.223 242.746 200.45 242.231 200.191 241.947L200.192 241.847C217.438 246.065 234.992 249.063 252.292 253.134C269.815 257.251 287.238 261.832 304.546 266.794L304.768 266.806C300.51 278.636 296.501 290.571 292.504 302.498C288.634 314.107 282.942 326.55 281.158 338.691C281.073 338.593 280.971 338.503 280.808 338.458C264.947 334.216 249.09 330.013 233.213 325.831C217.912 321.792 202.649 317.112 187.194 313.72ZM208.237 312.805C203.91 310.607 198.028 309.918 193.217 309.809C192.281 309.791 192.018 311.351 192.996 311.491C195.441 311.859 197.891 312.163 200.328 312.652C202.75 313.151 205.132 314.026 207.572 314.367C208.442 314.491 209.172 313.286 208.237 312.805ZM193.589 306.098C198.805 307.759 204.165 309.536 209.524 310.623C210.511 310.817 210.887 309.439 209.937 309.106C204.769 307.319 199.25 306.125 193.915 304.907C193.146 304.735 192.841 305.856 193.589 306.098ZM210.143 306.652C211.177 306.86 211.572 305.414 210.576 305.065C205.402 303.303 199.899 302.051 194.567 300.822C193.692 300.62 193.342 301.904 194.196 302.175C199.415 303.825 204.787 305.554 210.143 306.652Z" fill="white"/>
    <path d="M209.524 310.622C204.165 309.535 198.805 307.759 193.589 306.096C192.841 305.855 193.146 304.734 193.915 304.906C199.25 306.124 204.77 307.317 209.937 309.104C210.887 309.438 210.511 310.816 209.524 310.622Z" fill="white"/>
    <path d="M210.144 306.652C204.787 305.553 199.415 303.824 194.196 302.174C193.343 301.903 193.693 300.62 194.567 300.821C199.899 302.05 205.402 303.302 210.576 305.065C211.573 305.413 211.177 306.86 210.144 306.652Z" fill="white"/>
    <path d="M193.217 309.81C198.028 309.92 203.91 310.608 208.237 312.807C209.173 313.287 208.442 314.492 207.573 314.368C205.133 314.028 202.751 313.152 200.328 312.654C197.891 312.165 195.441 311.86 192.996 311.492C192.019 311.352 192.282 309.792 193.217 309.81Z" fill="white"/>
    <path d="M264.501 347.317C259.141 346.23 253.782 344.455 248.566 342.792C247.818 342.55 248.122 341.429 248.892 341.601C254.227 342.819 259.746 344.013 264.914 345.8C265.864 346.134 265.488 347.511 264.501 347.317Z" fill="#171717"/>
    <path d="M281.536 346.621C272.062 344.413 262.632 341.643 253.466 338.977C251.968 338.54 252.742 337.482 254.285 337.862C263.701 340.18 273.42 342.557 282.491 345.312C284.238 345.851 283.365 347.044 281.536 346.621Z" fill="#171717"/>
    <path d="M306.551 265.922C306.702 266.101 306.77 266.357 306.662 266.665C302.414 279.152 298.051 291.593 293.871 304.109C290.034 315.591 287.416 328.671 281.839 339.412C281.686 339.698 281.411 339.648 281.244 339.477C281.115 339.767 280.816 339.986 280.42 339.878C264.556 335.649 248.721 331.364 232.873 327.076C217.072 322.8 200.952 319.14 185.37 314.11C184.887 313.952 185.09 313.255 185.577 313.35L185.836 313.408C188.138 301.672 190.981 290.058 193.073 278.263C195.17 266.444 196.41 254.506 198.371 242.676C198.42 242.363 198.641 242.197 198.905 242.144L198.825 241.934C198.613 239.681 201.118 237.945 202.468 236.446C206.111 232.423 209.748 228.425 213.401 224.417C215.156 222.49 217.082 219.479 219.753 218.653C223.343 217.537 228.344 219.982 231.739 220.82C231.941 220.862 232.139 220.917 232.341 220.959C242.729 217.224 253.097 213.469 263.23 208.874C263.586 208.719 264.007 208.784 264.222 209.145C269.462 218.25 275.678 226.217 282.721 233.494C286.502 234.439 290.293 235.386 294.074 236.329C294.337 236.013 294.811 235.879 295.233 236.22C298.419 238.745 299.254 244.14 300.546 247.766C302.683 253.767 304.949 259.753 306.551 265.922ZM305.004 265.11C305.214 265.167 305.356 265.294 305.456 265.435C303.59 261.288 302.023 257.011 300.48 252.738C300.309 252.266 300.143 251.769 299.972 251.247C299.849 251.376 299.68 251.442 299.464 251.408C269.688 246.553 239.402 239.152 210.537 230.409C210.144 230.288 210.094 229.873 210.263 229.618C206.411 233.897 202.242 238.791 200.749 240.905C217.832 243.147 234.807 247.303 251.569 251.227C269.488 255.416 287.306 260.065 305.004 265.11ZM304.769 266.802L304.546 266.791C287.239 261.828 269.815 257.248 252.292 253.13C234.992 249.06 217.438 246.061 200.192 241.844L200.191 241.944C200.45 242.228 200.223 242.742 199.839 242.676L199.862 242.869C199.091 254.472 196.946 266.139 194.928 277.578C192.785 289.659 190.583 301.901 187.194 313.716C202.649 317.108 217.913 321.789 233.214 325.827C249.09 330.009 264.948 334.212 280.808 338.454C280.971 338.499 281.073 338.59 281.158 338.688C282.942 326.547 288.634 314.104 292.505 302.494C296.501 290.567 300.511 278.632 304.769 266.802ZM210.964 228.931C217.171 226.462 223.424 224.182 229.698 221.917C225.641 220.787 221.467 219.722 217.582 222.059C216.803 222.524 213.671 225.82 210.282 229.597C210.384 229.451 210.571 229.364 210.808 229.415L210.843 229.425C210.719 229.28 210.726 229.03 210.964 228.931ZM211.184 229.506C225.865 233.062 240.424 237.062 255.134 240.512C269.839 243.974 284.695 246.75 299.378 250.206C292.943 245.892 287.035 240.616 281.673 234.989C269.438 231.938 257.195 228.872 244.948 225.817C240.958 224.815 236.967 223.815 232.976 222.814C225.84 225.48 218.548 227.98 211.184 229.506ZM259.849 211.977C257.082 212.701 254.25 214.437 251.593 215.53C248.085 216.992 244.55 218.409 240.995 219.759C239.233 220.432 237.465 221.116 235.688 221.798C250.316 225.403 264.936 229.041 279.542 232.689C274.057 226.64 270.175 219.548 265.011 213.335C262.875 210.771 262.722 211.243 259.849 211.977ZM285.034 235.818C289.398 240.133 294.072 244.192 299.009 248.111C297.914 244.452 296.691 240.568 294.575 237.846C294.393 238.01 294.145 238.092 293.838 238.021C290.901 237.294 287.968 236.557 285.034 235.818Z" fill="#171717"/>
    <circle cx="241.521" cy="292.586" r="7.19368" transform="rotate(-26.9508 241.521 292.586)" stroke="#FFD037" stroke-width="4"/>
    <path d="M235.568 280.878L232.592 275.024" stroke="#FFD037" stroke-width="4" stroke-linecap="round" stroke-linejoin="round"/>
    <path d="M250.45 310.149L247.474 304.295" stroke="#FFD037" stroke-width="4" stroke-linecap="round" stroke-linejoin="round"/>
    <path d="M253.228 286.634L259.082 283.658" stroke="#FFD037" stroke-width="4" stroke-linecap="round" stroke-linejoin="round"/>
    <path d="M223.96 301.517L229.813 298.541" stroke="#FFD037" stroke-width="4" stroke-linecap="round" stroke-linejoin="round"/>
    <path d="M245.59 280.098L247.625 273.854" stroke="#FFD037" stroke-width="4" stroke-linecap="round" stroke-linejoin="round"/>
    <path d="M235.417 311.318L237.451 305.074" stroke="#FFD037" stroke-width="4" stroke-linecap="round" stroke-linejoin="round"/>
    <path d="M254.008 296.654L260.252 298.688" stroke="#FFD037" stroke-width="4" stroke-linecap="round" stroke-linejoin="round"/>
    <path d="M222.789 286.484L229.033 288.519" stroke="#FFD037" stroke-width="4" stroke-linecap="round" stroke-linejoin="round"/>
    <path d="M282.866 207.057C282.784 205.918 284.176 206.105 284.935 205.972C286.786 205.621 288.496 204.783 290.118 203.852C290.101 203.861 290.085 203.871 290.068 203.882C291.165 203.22 292.269 202.545 293.222 201.685C292.946 201.97 292.383 201.715 292.761 201.37C293.094 201.163 293.546 200.997 293.936 201.126C294.553 202.774 288.129 206.368 286.59 206.955C286.627 206.939 286.661 206.926 286.698 206.91C285.632 207.19 283.513 208.411 282.866 207.057Z" fill="#231F20"/>
    <path d="M273.979 210.803C272.823 209.477 275.329 209.4 276.158 209.327C276.716 209.306 277.313 208.989 277.852 209.205C279 210.555 275.381 210.483 274.644 210.82C274.675 210.816 274.704 210.808 274.734 210.803C274.487 210.858 274.215 210.941 273.979 210.803Z" fill="#231F20"/>
</svg>
