<svg width="16" height="15" viewBox="0 0 16 15" fill="none" xmlns="http://www.w3.org/2000/svg">
<path d="M1.53544 6.5H4C5.76324 6.5 7.22194 7.80385 7.46456 9.5H5C3.23676 9.5 1.77806 8.19615 1.53544 6.5Z" fill="#3B211B" stroke="#3B211B" stroke-linejoin="round"/>
<path d="M15.4646 6.5H13C11.2368 6.5 9.77806 7.80385 9.53544 9.5H12C13.7632 9.5 15.2219 8.19615 15.4646 6.5Z" fill="#3B211B" stroke="#3B211B" stroke-linejoin="round"/>
<path d="M6.47442 3.76746L7.47472 4.76777C7.93654 5.22958 8.03427 5.91762 7.76792 6.47518L6.76762 5.47487C6.3058 5.01306 6.20806 4.32502 6.47442 3.76746Z" fill="#3B211B" stroke="#3B211B" stroke-linejoin="round"/>
<path d="M9.47442 6.47473L10.4747 5.47442C10.9365 5.0126 11.0343 4.32457 10.7679 3.76701L9.76762 4.76731C9.3058 5.22913 9.20806 5.91716 9.47442 6.47473Z" fill="#3B211B" stroke="#3B211B" stroke-linejoin="round"/>
<path d="M5 13.5C4.34689 13.5 3.79127 13.9174 3.58535 14.5H6.41465C6.20873 13.9174 5.65311 13.5 5 13.5Z" fill="#3B211B" stroke="#3B211B" stroke-linejoin="round"/>
<path d="M8 13.5C7.34689 13.5 6.79127 13.9174 6.58535 14.5H9.41465C9.20873 13.9174 8.65311 13.5 8 13.5Z" fill="#3B211B" stroke="#3B211B" stroke-linejoin="round"/>
<path d="M11 13.5C10.3469 13.5 9.79127 13.9174 9.58535 14.5H12.4146C12.2087 13.9174 11.6531 13.5 11 13.5Z" fill="#3B211B" stroke="#3B211B" stroke-linejoin="round"/>
<path d="M2 13.5C1.34689 13.5 0.791271 13.9174 0.585353 14.5H3.41465C3.20873 13.9174 2.65311 13.5 2 13.5Z" fill="#3B211B" stroke="#3B211B" stroke-linejoin="round"/>
<path d="M8.5 3.41855C9.0826 3.21263 9.5 2.65702 9.5 2.00391V0.585275C8.9174 0.791193 8.5 1.34681 8.5 1.99992V3.41855Z" fill="#3B211B" stroke="#3B211B" stroke-linejoin="round"/>
<mask id="path-10-inside-1" fill="white">
<path d="M9.28467 10.5879C7.93663 10.2893 6.60176 11.14 6.30315 12.488L5.99962 13.8582C6.51134 13.9716 7.00955 13.598 7.12623 13.087C7.20494 12.7424 7.32327 12.3535 7.5 12C8 11 9.28467 10.5879 9.28467 10.5879Z"/>
</mask>
<path d="M9.28467 10.5879C7.93663 10.2893 6.60176 11.14 6.30315 12.488L5.99962 13.8582C6.51134 13.9716 7.00955 13.598 7.12623 13.087C7.20494 12.7424 7.32327 12.3535 7.5 12C8 11 9.28467 10.5879 9.28467 10.5879Z" fill="#3B211B"/>
<path d="M7.5 12L6.60557 11.5528L7.5 12ZM7.27948 12.7043L6.97596 14.0745L5.02329 13.642L5.32682 12.2718L7.27948 12.7043ZM6.15133 12.8644C6.24053 12.4738 6.38102 12.0019 6.60557 11.5528L8.39443 12.4472C8.26552 12.705 8.16934 13.011 8.10114 13.3097L6.15133 12.8644ZM6.60557 11.5528C6.97828 10.8074 7.61015 10.332 8.06892 10.0593C8.3079 9.91728 8.52622 9.81474 8.68648 9.74694C8.76718 9.7128 8.83468 9.68682 8.88461 9.66854C8.90962 9.65938 8.93035 9.6521 8.94627 9.64665C8.95423 9.64393 8.961 9.64166 8.96651 9.63983C8.96926 9.63892 8.9717 9.63812 8.97382 9.63743C8.97488 9.63708 8.97586 9.63676 8.97676 9.63647C8.97721 9.63633 8.97764 9.63619 8.97805 9.63606C8.97825 9.63599 8.97854 9.6359 8.97864 9.63587C8.97893 9.63578 8.97921 9.63569 9.28467 10.5879C9.59013 11.5401 9.5904 11.54 9.59066 11.5399C9.59075 11.5399 9.59101 11.5398 9.59117 11.5398C9.5915 11.5397 9.59181 11.5396 9.59211 11.5395C9.59269 11.5393 9.59321 11.5391 9.59365 11.539C9.59453 11.5387 9.59512 11.5385 9.59543 11.5384C9.59605 11.5382 9.59554 11.5383 9.59397 11.5389C9.59082 11.5399 9.58346 11.5425 9.57237 11.5466C9.5501 11.5547 9.51333 11.5688 9.46577 11.5889C9.36953 11.6296 9.23544 11.6926 9.09075 11.7786C8.78218 11.962 8.52172 12.1926 8.39443 12.4472L6.60557 11.5528ZM6.2159 12.8819C6.19468 12.8772 6.17298 12.8779 6.15595 12.8817C6.14047 12.8852 6.13419 12.8899 6.1351 12.8893C6.13618 12.8885 6.14037 12.8851 6.14469 12.8787C6.14878 12.8726 6.15064 12.8674 6.15133 12.8644L8.10114 13.3097C7.88335 14.2634 6.92057 15.0865 5.78335 14.8346L6.2159 12.8819ZM9.06839 11.5642C8.25957 11.3851 7.45865 11.8955 7.27948 12.7043L5.32682 12.2718C5.74488 10.3845 7.6137 9.1935 9.50094 9.61156L9.06839 11.5642Z" fill="#3B211B" mask="url(#path-10-inside-1)"/>
</svg>
