<svg width="54" height="19" viewBox="0 0 54 19" fill="none" xmlns="http://www.w3.org/2000/svg">
    <path d="M8.45 18V9.95H3.3V18H1.125V0.499999H3.3V8.1H8.45V0.499999H10.625V18H8.45ZM24.6701 13.75C24.6701 15.1667 24.2785 16.2333 23.4951 16.95C22.7285 17.65 21.6201 18 20.1701 18H19.3201C17.8701 18 16.7535 17.65 15.9701 16.95C15.2035 16.2333 14.8201 15.1667 14.8201 13.75V4.75C14.8201 3.33333 15.2035 2.275 15.9701 1.575C16.7535 0.858332 17.8701 0.499999 19.3201 0.499999H20.1701C21.6201 0.499999 22.7285 0.858332 23.4951 1.575C24.2785 2.275 24.6701 3.33333 24.6701 4.75V13.75ZM22.4951 4.275C22.4951 3.75833 22.3035 3.31667 21.9201 2.95C21.5368 2.58333 21.0368 2.4 20.4201 2.4H19.0701C18.4535 2.4 17.9535 2.58333 17.5701 2.95C17.1868 3.31667 16.9951 3.75833 16.9951 4.275V14.225C16.9951 14.7417 17.1868 15.1833 17.5701 15.55C17.9535 15.9167 18.4535 16.1 19.0701 16.1H20.4201C21.0368 16.1 21.5368 15.9167 21.9201 15.55C22.3035 15.1833 22.4951 14.7417 22.4951 14.225V4.275ZM38.2937 18V2.3L35.6188 12.125H33.5437L30.8687 2.3V18H28.8687V0.499999H32.3937L34.6687 9.45L36.9187 0.499999H40.3688V18H38.2937ZM44.8158 18V0.499999H53.0158V2.325H46.9908V8.05H52.3908V9.875H46.9908V16.175H53.0158V18H44.8158Z" fill="#814232"/>
    <path d="M8.45 18H7.95V18.5H8.45V18ZM8.45 9.95H8.95V9.45H8.45V9.95ZM3.3 9.95V9.45H2.8V9.95H3.3ZM3.3 18V18.5H3.8V18H3.3ZM1.125 18H0.625V18.5H1.125V18ZM1.125 0.499999V-1.19209e-06H0.625V0.499999H1.125ZM3.3 0.499999H3.8V-1.19209e-06H3.3V0.499999ZM3.3 8.1H2.8V8.6H3.3V8.1ZM8.45 8.1V8.6H8.95V8.1H8.45ZM8.45 0.499999V-1.19209e-06H7.95V0.499999H8.45ZM10.625 0.499999H11.125V-1.19209e-06H10.625V0.499999ZM10.625 18V18.5H11.125V18H10.625ZM8.95 18V9.95H7.95V18H8.95ZM8.45 9.45H3.3V10.45H8.45V9.45ZM2.8 9.95V18H3.8V9.95H2.8ZM3.3 17.5H1.125V18.5H3.3V17.5ZM1.625 18V0.499999H0.625V18H1.625ZM1.125 0.999999H3.3V-1.19209e-06H1.125V0.999999ZM2.8 0.499999V8.1H3.8V0.499999H2.8ZM3.3 8.6H8.45V7.6H3.3V8.6ZM8.95 8.1V0.499999H7.95V8.1H8.95ZM8.45 0.999999H10.625V-1.19209e-06H8.45V0.999999ZM10.125 0.499999V18H11.125V0.499999H10.125ZM10.625 17.5H8.45V18.5H10.625V17.5ZM23.4951 16.95L23.8323 17.3192L23.8326 17.3189L23.4951 16.95ZM15.9701 16.95L15.6286 17.3154L15.637 17.3228L15.9701 16.95ZM15.9701 1.575L16.3073 1.94424L16.3076 1.9439L15.9701 1.575ZM23.4951 1.575L23.1536 1.94035L23.162 1.94783L23.4951 1.575ZM21.9201 2.95L22.2657 2.58868L22.2657 2.58868L21.9201 2.95ZM17.5701 2.95L17.2245 2.58868V2.58868L17.5701 2.95ZM24.1701 13.75C24.1701 15.0755 23.806 15.9879 23.1576 16.5811L23.8326 17.3189C24.7509 16.4788 25.1701 15.2578 25.1701 13.75H24.1701ZM23.158 16.5808C22.5145 17.1683 21.545 17.5 20.1701 17.5V18.5C21.6953 18.5 22.9424 18.1317 23.8323 17.3192L23.158 16.5808ZM20.1701 17.5H19.3201V18.5H20.1701V17.5ZM19.3201 17.5C17.9461 17.5 16.9652 17.1686 16.3033 16.5772L15.637 17.3228C16.5417 18.1314 17.7941 18.5 19.3201 18.5V17.5ZM16.3116 16.5847C15.6777 15.9923 15.3201 15.0786 15.3201 13.75H14.3201C14.3201 15.2548 14.7292 16.4744 15.6287 17.3153L16.3116 16.5847ZM15.3201 13.75V4.75H14.3201V13.75H15.3201ZM15.3201 4.75C15.3201 3.42058 15.678 2.51874 16.3073 1.94424L15.633 1.20576C14.7289 2.03126 14.3201 3.24608 14.3201 4.75H15.3201ZM16.3076 1.9439C16.9696 1.33827 17.9489 0.999999 19.3201 0.999999V-1.19209e-06C17.7914 -1.19209e-06 16.5373 0.378398 15.6326 1.2061L16.3076 1.9439ZM19.3201 0.999999H20.1701V-1.19209e-06H19.3201V0.999999ZM20.1701 0.999999C21.5422 0.999999 22.51 1.33859 23.1537 1.94026L23.8366 1.20974C22.9469 0.378079 21.698 -1.19209e-06 20.1701 -1.19209e-06V0.999999ZM23.162 1.94783C23.8057 2.52311 24.1701 3.42371 24.1701 4.75H25.1701C25.1701 3.24296 24.7512 2.02689 23.8283 1.20217L23.162 1.94783ZM24.1701 4.75V13.75H25.1701V4.75H24.1701ZM22.9951 4.275C22.9951 3.61782 22.7447 3.04683 22.2657 2.58868L21.5745 3.31132C21.8622 3.5865 21.9951 3.89885 21.9951 4.275H22.9951ZM22.2657 2.58868C21.7743 2.1186 21.1431 1.9 20.4201 1.9V2.9C20.9305 2.9 21.2993 3.04806 21.5745 3.31132L22.2657 2.58868ZM20.4201 1.9H19.0701V2.9H20.4201V1.9ZM19.0701 1.9C18.3472 1.9 17.7159 2.1186 17.2245 2.58868L17.9157 3.31132C18.191 3.04806 18.5597 2.9 19.0701 2.9V1.9ZM17.2245 2.58868C16.7455 3.04683 16.4951 3.61782 16.4951 4.275H17.4951C17.4951 3.89885 17.628 3.5865 17.9157 3.31132L17.2245 2.58868ZM16.4951 4.275V14.225H17.4951V4.275H16.4951ZM16.4951 14.225C16.4951 14.8822 16.7455 15.4532 17.2245 15.9113L17.9157 15.1887C17.628 14.9135 17.4951 14.6012 17.4951 14.225H16.4951ZM17.2245 15.9113C17.7159 16.3814 18.3472 16.6 19.0701 16.6V15.6C18.5597 15.6 18.191 15.4519 17.9157 15.1887L17.2245 15.9113ZM19.0701 16.6H20.4201V15.6H19.0701V16.6ZM20.4201 16.6C21.1431 16.6 21.7743 16.3814 22.2657 15.9113L21.5745 15.1887C21.2993 15.4519 20.9305 15.6 20.4201 15.6V16.6ZM22.2657 15.9113C22.7447 15.4532 22.9951 14.8822 22.9951 14.225H21.9951C21.9951 14.6012 21.8622 14.9135 21.5745 15.1887L22.2657 15.9113ZM22.9951 14.225V4.275H21.9951V14.225H22.9951ZM38.2938 18H37.7938V18.5H38.2938V18ZM38.2938 2.3H38.7938L37.8113 2.16865L38.2938 2.3ZM35.6188 12.125V12.625H36.0008L36.1012 12.2564L35.6188 12.125ZM33.5438 12.125L33.0613 12.2564L33.1617 12.625H33.5438V12.125ZM30.8687 2.3L31.3512 2.16865L30.3687 2.3H30.8687ZM30.8687 18V18.5H31.3688V18H30.8687ZM28.8687 18H28.3687V18.5H28.8687V18ZM28.8687 0.499999V-1.19209e-06H28.3687V0.499999H28.8687ZM32.3937 0.499999L32.8783 0.376821L32.7826 -1.19209e-06H32.3937V0.499999ZM34.6688 9.45L34.1842 9.57318L35.1537 9.57191L34.6688 9.45ZM36.9188 0.499999V-1.19209e-06H36.5289L36.4338 0.378094L36.9188 0.499999ZM40.3688 0.499999H40.8688V-1.19209e-06H40.3688V0.499999ZM40.3688 18V18.5H40.8688V18H40.3688ZM38.7938 18V2.3H37.7938V18H38.7938ZM37.8113 2.16865L35.1363 11.9936L36.1012 12.2564L38.7762 2.43135L37.8113 2.16865ZM35.6188 11.625H33.5438V12.625H35.6188V11.625ZM34.0262 11.9936L31.3512 2.16865L30.3863 2.43135L33.0613 12.2564L34.0262 11.9936ZM30.3687 2.3V18H31.3688V2.3H30.3687ZM30.8687 17.5H28.8687V18.5H30.8687V17.5ZM29.3687 18V0.499999H28.3687V18H29.3687ZM28.8687 0.999999H32.3937V-1.19209e-06H28.8687V0.999999ZM31.9092 0.623177L34.1842 9.57318L35.1533 9.32682L32.8783 0.376821L31.9092 0.623177ZM35.1537 9.57191L37.4037 0.621904L36.4338 0.378094L34.1838 9.32809L35.1537 9.57191ZM36.9188 0.999999H40.3688V-1.19209e-06H36.9188V0.999999ZM39.8688 0.499999V18H40.8688V0.499999H39.8688ZM40.3688 17.5H38.2938V18.5H40.3688V17.5ZM44.8158 18H44.3158V18.5H44.8158V18ZM44.8158 0.499999V-1.19209e-06H44.3158V0.499999H44.8158ZM53.0158 0.499999H53.5158V-1.19209e-06H53.0158V0.499999ZM53.0158 2.325V2.825H53.5158V2.325H53.0158ZM46.9908 2.325V1.825H46.4908V2.325H46.9908ZM46.9908 8.05H46.4908V8.55H46.9908V8.05ZM52.3908 8.05H52.8908V7.55H52.3908V8.05ZM52.3908 9.875V10.375H52.8908V9.875H52.3908ZM46.9908 9.875V9.375H46.4908V9.875H46.9908ZM46.9908 16.175H46.4908V16.675H46.9908V16.175ZM53.0158 16.175H53.5158V15.675H53.0158V16.175ZM53.0158 18V18.5H53.5158V18H53.0158ZM45.3158 18V0.499999H44.3158V18H45.3158ZM44.8158 0.999999H53.0158V-1.19209e-06H44.8158V0.999999ZM52.5158 0.499999V2.325H53.5158V0.499999H52.5158ZM53.0158 1.825H46.9908V2.825H53.0158V1.825ZM46.4908 2.325V8.05H47.4908V2.325H46.4908ZM46.9908 8.55H52.3908V7.55H46.9908V8.55ZM51.8908 8.05V9.875H52.8908V8.05H51.8908ZM52.3908 9.375H46.9908V10.375H52.3908V9.375ZM46.4908 9.875V16.175H47.4908V9.875H46.4908ZM46.9908 16.675H53.0158V15.675H46.9908V16.675ZM52.5158 16.175V18H53.5158V16.175H52.5158ZM53.0158 17.5H44.8158V18.5H53.0158V17.5Z" fill="#814232"/>
</svg>
