<svg width="239" height="42" viewBox="0 0 239 42" fill="none" xmlns="http://www.w3.org/2000/svg">
    <path d="M58.8 33H56.175V31.1H59.725C60.3417 31.1 60.8417 30.9167 61.225 30.55C61.6083 30.1833 61.8 29.7417 61.8 29.225V27.125C61.8 26.625 61.6667 26.225 61.4 25.925C61.15 25.6083 60.7667 25.45 60.25 25.45H59.75C58.5167 25.45 57.5417 25.0917 56.825 24.375C56.1083 23.6417 55.75 22.5833 55.75 21.2V20.5C55.75 18.2 56.7667 16.8333 58.8 16.4V13.5H60.925V16.25H63.575V18.15H60C59.3833 18.15 58.8833 18.3333 58.5 18.7C58.1167 19.0667 57.925 19.5083 57.925 20.025V21.675C57.925 22.1917 58.0917 22.625 58.425 22.975C58.7583 23.3083 59.1917 23.475 59.725 23.475H60.225C61.4083 23.475 62.325 23.8167 62.975 24.5C63.6417 25.1833 63.975 26.2167 63.975 27.6V28.75C63.975 29.9 63.7083 30.825 63.175 31.525C62.6583 32.2083 61.9083 32.6583 60.925 32.875V35.75H58.8V33ZM77.0682 29.05C77.0682 30.4833 76.7348 31.5 76.0682 32.1C75.4182 32.7 74.3348 33 72.8182 33H68.0682V15.5H72.5182C74.0015 15.5 75.0848 15.8 75.7682 16.4C76.4682 17 76.8182 18 76.8182 19.4V20.825C76.8182 22.1083 76.3598 23.075 75.4432 23.725C76.5265 24.325 77.0682 25.35 77.0682 26.8V29.05ZM74.6432 19.175C74.6432 18.5417 74.4932 18.0833 74.1932 17.8C73.9098 17.5167 73.4515 17.375 72.8182 17.375H70.2432V22.9H72.8182C73.3348 22.9 73.7682 22.7333 74.1182 22.4C74.4682 22.0667 74.6432 21.625 74.6432 21.075V19.175ZM74.8932 26.575C74.8932 26.025 74.7265 25.5917 74.3932 25.275C74.0598 24.9417 73.6182 24.775 73.0682 24.775H70.2432V31.125H73.0432C73.6765 31.125 74.1432 30.9833 74.4432 30.7C74.7432 30.4 74.8932 29.9333 74.8932 29.3V26.575ZM85.6564 25.75H83.4314V33H81.2564V15.5H85.7314C87.1481 15.5 88.2148 15.8167 88.9314 16.45C89.6648 17.0667 90.0314 18.05 90.0314 19.4V21.8C90.0314 23.6833 89.2814 24.8583 87.7814 25.325L91.2564 33H88.8814L85.6564 25.75ZM87.8564 19.175C87.8564 18.5417 87.7064 18.0833 87.4064 17.8C87.1231 17.5167 86.6648 17.375 86.0314 17.375H83.4314V23.875H86.0314C86.6648 23.875 87.1231 23.7333 87.4064 23.45C87.7064 23.15 87.8564 22.6833 87.8564 22.05V19.175ZM93.4447 33V31.175H95.1947V17.325H93.4447V15.5H99.1197V17.325H97.3697V31.175H99.1197V33H93.4447ZM106.829 33C105.379 33 104.263 32.65 103.479 31.95C102.713 31.2333 102.329 30.1667 102.329 28.75V19.75C102.329 18.3333 102.713 17.275 103.479 16.575C104.263 15.8583 105.379 15.5 106.829 15.5H110.204V17.4H106.579C105.963 17.4 105.463 17.5833 105.079 17.95C104.696 18.3167 104.504 18.7583 104.504 19.275V29.225C104.504 29.7417 104.696 30.1833 105.079 30.55C105.463 30.9167 105.963 31.1 106.579 31.1H108.879V25.675H106.779V23.8H110.954V33H106.829ZM122.36 33V24.95H117.21V33H115.035V15.5H117.21V23.1H122.36V15.5H124.535V33H122.36ZM133.255 17.4V33H131.08V17.4H127.23V15.5H137.105V17.4H133.255Z" fill="#814232"/>
    <path d="M58.8 33H59.3V32.5H58.8V33ZM56.175 33H55.675V33.5H56.175V33ZM56.175 31.1V30.6H55.675V31.1H56.175ZM61.4 25.925L61.0076 26.2348L61.0166 26.2463L61.0263 26.2572L61.4 25.925ZM56.825 24.375L56.4674 24.7245L56.4714 24.7286L56.825 24.375ZM58.8 16.4L58.9042 16.889L59.3 16.8047V16.4H58.8ZM58.8 13.5V13H58.3V13.5H58.8ZM60.925 13.5H61.425V13H60.925V13.5ZM60.925 16.25H60.425V16.75H60.925V16.25ZM63.575 16.25H64.075V15.75H63.575V16.25ZM63.575 18.15V18.65H64.075V18.15H63.575ZM58.425 22.975L58.0628 23.3199L58.0714 23.3286L58.425 22.975ZM62.975 24.5L62.6127 24.8446L62.6171 24.8492L62.975 24.5ZM63.175 31.525L62.7773 31.222L62.7762 31.2234L63.175 31.525ZM60.925 32.875L60.8174 32.3867L60.425 32.4732V32.875H60.925ZM60.925 35.75V36.25H61.425V35.75H60.925ZM58.8 35.75H58.3V36.25H58.8V35.75ZM58.8 32.5H56.175V33.5H58.8V32.5ZM56.675 33V31.1H55.675V33H56.675ZM56.175 31.6H59.725V30.6H56.175V31.6ZM59.725 31.6C60.448 31.6 61.0792 31.3814 61.5706 30.9113L60.8794 30.1887C60.6042 30.4519 60.2354 30.6 59.725 30.6V31.6ZM61.5706 30.9113C62.0496 30.4532 62.3 29.8822 62.3 29.225H61.3C61.3 29.6012 61.1671 29.9135 60.8794 30.1887L61.5706 30.9113ZM62.3 29.225V27.125H61.3V29.225H62.3ZM62.3 27.125C62.3 26.5338 62.1403 26.0053 61.7737 25.5928L61.0263 26.2572C61.193 26.4447 61.3 26.7162 61.3 27.125H62.3ZM61.7924 25.6152C61.422 25.1459 60.8729 24.95 60.25 24.95V25.95C60.6604 25.95 60.878 26.0707 61.0076 26.2348L61.7924 25.6152ZM60.25 24.95H59.75V25.95H60.25V24.95ZM59.75 24.95C58.6186 24.95 57.7818 24.6247 57.1786 24.0214L56.4714 24.7286C57.3015 25.5586 58.4147 25.95 59.75 25.95V24.95ZM57.1826 24.0255C56.5854 23.4144 56.25 22.4995 56.25 21.2H55.25C55.25 22.6672 55.6313 23.8689 56.4674 24.7245L57.1826 24.0255ZM56.25 21.2V20.5H55.25V21.2H56.25ZM56.25 20.5C56.25 19.4203 56.4886 18.6198 56.9137 18.0484C57.3343 17.4829 57.979 17.0862 58.9042 16.889L58.6958 15.911C57.5876 16.1471 56.7073 16.6504 56.1113 17.4516C55.5197 18.2469 55.25 19.2797 55.25 20.5H56.25ZM59.3 16.4V13.5H58.3V16.4H59.3ZM58.8 14H60.925V13H58.8V14ZM60.425 13.5V16.25H61.425V13.5H60.425ZM60.925 16.75H63.575V15.75H60.925V16.75ZM63.075 16.25V18.15H64.075V16.25H63.075ZM63.575 17.65H60V18.65H63.575V17.65ZM60 17.65C59.277 17.65 58.6458 17.8686 58.1544 18.3387L58.8456 19.0613C59.1208 18.7981 59.4896 18.65 60 18.65V17.65ZM58.1544 18.3387C57.6754 18.7968 57.425 19.3678 57.425 20.025H58.425C58.425 19.6488 58.5579 19.3365 58.8456 19.0613L58.1544 18.3387ZM57.425 20.025V21.675H58.425V20.025H57.425ZM57.425 21.675C57.425 22.3103 57.6346 22.87 58.0629 23.3198L58.7871 22.6302C58.5488 22.38 58.425 22.073 58.425 21.675H57.425ZM58.0714 23.3286C58.5112 23.7683 59.078 23.975 59.725 23.975V22.975C59.3053 22.975 59.0055 22.8484 58.7786 22.6214L58.0714 23.3286ZM59.725 23.975H60.225V22.975H59.725V23.975ZM60.225 23.975C61.3085 23.975 62.0799 24.2845 62.6127 24.8446L63.3373 24.1554C62.5701 23.3488 61.5082 22.975 60.225 22.975V23.975ZM62.6171 24.8492C63.1587 25.4043 63.475 26.2887 63.475 27.6H64.475C64.475 26.1447 64.1246 24.9624 63.3329 24.1508L62.6171 24.8492ZM63.475 27.6V28.75H64.475V27.6H63.475ZM63.475 28.75C63.475 29.8242 63.2264 30.6325 62.7773 31.222L63.5727 31.828C64.1903 31.0175 64.475 29.9758 64.475 28.75H63.475ZM62.7762 31.2234C62.3435 31.7957 61.706 32.1909 60.8174 32.3867L61.0326 33.3633C62.1107 33.1257 62.9732 32.621 63.5738 31.8266L62.7762 31.2234ZM60.425 32.875V35.75H61.425V32.875H60.425ZM60.925 35.25H58.8V36.25H60.925V35.25ZM59.3 35.75V33H58.3V35.75H59.3ZM76.0682 32.1L75.7337 31.7283L75.729 31.7326L76.0682 32.1ZM68.0682 33H67.5682V33.5H68.0682V33ZM68.0682 15.5V15H67.5682V15.5H68.0682ZM75.7682 16.4L75.4382 16.7757L75.4428 16.7796L75.7682 16.4ZM75.4432 23.725L75.1539 23.3171L74.5053 23.7771L75.2009 24.1624L75.4432 23.725ZM74.1932 17.8L73.8396 18.1536L73.8447 18.1586L73.8499 18.1635L74.1932 17.8ZM70.2432 17.375V16.875H69.7432V17.375H70.2432ZM70.2432 22.9H69.7432V23.4H70.2432V22.9ZM74.3932 25.275L74.0395 25.6287L74.0488 25.6375L74.3932 25.275ZM70.2432 24.775V24.275H69.7432V24.775H70.2432ZM70.2432 31.125H69.7432V31.625H70.2432V31.125ZM74.4432 30.7L74.7865 31.0635L74.7917 31.0586L74.7967 31.0536L74.4432 30.7ZM76.5682 29.05C76.5682 30.4246 76.246 31.2673 75.7337 31.7284L76.4026 32.4716C77.2236 31.7327 77.5682 30.5421 77.5682 29.05H76.5682ZM75.729 31.7326C75.2182 32.2042 74.292 32.5 72.8182 32.5V33.5C74.3776 33.5 75.6182 33.1958 76.4073 32.4674L75.729 31.7326ZM72.8182 32.5H68.0682V33.5H72.8182V32.5ZM68.5682 33V15.5H67.5682V33H68.5682ZM68.0682 16H72.5182V15H68.0682V16ZM72.5182 16C73.9519 16 74.8886 16.2931 75.4383 16.7757L76.0981 16.0243C75.2811 15.3069 74.0511 15 72.5182 15V16ZM75.4428 16.7796C75.9848 17.2442 76.3182 18.0697 76.3182 19.4H77.3182C77.3182 17.9303 76.9515 16.7558 76.0936 16.0204L75.4428 16.7796ZM76.3182 19.4V20.825H77.3182V19.4H76.3182ZM76.3182 20.825C76.3182 21.9728 75.9181 22.7753 75.1539 23.3171L75.7324 24.1329C76.8015 23.3747 77.3182 22.2439 77.3182 20.825H76.3182ZM75.2009 24.1624C76.0951 24.6576 76.5682 25.4946 76.5682 26.8H77.5682C77.5682 25.2054 76.9579 23.9924 75.6854 23.2876L75.2009 24.1624ZM76.5682 26.8V29.05H77.5682V26.8H76.5682ZM75.1432 19.175C75.1432 18.4768 74.9793 17.8547 74.5365 17.4365L73.8499 18.1635C74.0071 18.312 74.1432 18.6066 74.1432 19.175H75.1432ZM74.5467 17.4464C74.1276 17.0273 73.5096 16.875 72.8182 16.875V17.875C73.3934 17.875 73.6921 18.006 73.8396 18.1536L74.5467 17.4464ZM72.8182 16.875H70.2432V17.875H72.8182V16.875ZM69.7432 17.375V22.9H70.7432V17.375H69.7432ZM70.2432 23.4H72.8182V22.4H70.2432V23.4ZM72.8182 23.4C73.4535 23.4 74.0132 23.1904 74.463 22.7621L73.7733 22.0379C73.5231 22.2762 73.2162 22.4 72.8182 22.4V23.4ZM74.463 22.7621C74.9261 22.321 75.1432 21.7411 75.1432 21.075H74.1432C74.1432 21.5089 74.0102 21.8123 73.7733 22.0379L74.463 22.7621ZM75.1432 21.075V19.175H74.1432V21.075H75.1432ZM75.3932 26.575C75.3932 25.917 75.1895 25.3419 74.7375 24.9125L74.0488 25.6375C74.2635 25.8415 74.3932 26.133 74.3932 26.575H75.3932ZM74.7467 24.9214C74.304 24.4787 73.7269 24.275 73.0682 24.275V25.275C73.5094 25.275 73.8157 25.4046 74.0396 25.6286L74.7467 24.9214ZM73.0682 24.275H70.2432V25.275H73.0682V24.275ZM69.7432 24.775V31.125H70.7432V24.775H69.7432ZM70.2432 31.625H73.0432V30.625H70.2432V31.625ZM73.0432 31.625C73.7379 31.625 74.3547 31.4713 74.7865 31.0635L74.0999 30.3365C73.9317 30.4953 73.6151 30.625 73.0432 30.625V31.625ZM74.7967 31.0536C75.228 30.6223 75.3932 30.0012 75.3932 29.3H74.3932C74.3932 29.8654 74.2583 30.1777 74.0896 30.3464L74.7967 31.0536ZM75.3932 29.3V26.575H74.3932V29.3H75.3932ZM85.6564 25.75L86.1133 25.5468L85.9813 25.25H85.6564V25.75ZM83.4314 25.75V25.25H82.9314V25.75H83.4314ZM83.4314 33V33.5H83.9314V33H83.4314ZM81.2564 33H80.7564V33.5H81.2564V33ZM81.2564 15.5V15H80.7564V15.5H81.2564ZM88.9314 16.45L88.6002 16.8248L88.6096 16.8327L88.9314 16.45ZM87.7814 25.325L87.6329 24.8476L87.0925 25.0157L87.326 25.5312L87.7814 25.325ZM91.2564 33V33.5H92.0317L91.7119 32.7938L91.2564 33ZM88.8814 33L88.4246 33.2032L88.5566 33.5H88.8814V33ZM87.4064 17.8L87.0529 18.1536L87.0579 18.1586L87.0631 18.1635L87.4064 17.8ZM83.4314 17.375V16.875H82.9314V17.375H83.4314ZM83.4314 23.875H82.9314V24.375H83.4314V23.875ZM85.6564 25.25H83.4314V26.25H85.6564V25.25ZM82.9314 25.75V33H83.9314V25.75H82.9314ZM83.4314 32.5H81.2564V33.5H83.4314V32.5ZM81.7564 33V15.5H80.7564V33H81.7564ZM81.2564 16H85.7314V15H81.2564V16ZM85.7314 16C87.0834 16 88.0104 16.3033 88.6003 16.8247L89.2625 16.0753C88.4192 15.33 87.2128 15 85.7314 15V16ZM88.6096 16.8327C89.1894 17.3202 89.5314 18.1347 89.5314 19.4H90.5314C90.5314 17.9653 90.1402 16.8131 89.2532 16.0673L88.6096 16.8327ZM89.5314 19.4V21.8H90.5314V19.4H89.5314ZM89.5314 21.8C89.5314 22.6788 89.3561 23.3412 89.0475 23.8247C88.7441 24.3001 88.2854 24.6446 87.6329 24.8476L87.93 25.8024C88.7775 25.5388 89.4438 25.0624 89.8904 24.3628C90.3318 23.6713 90.5314 22.8045 90.5314 21.8H89.5314ZM87.326 25.5312L90.801 33.2062L91.7119 32.7938L88.2369 25.1188L87.326 25.5312ZM91.2564 32.5H88.8814V33.5H91.2564V32.5ZM89.3383 32.7968L86.1133 25.5468L85.1996 25.9532L88.4246 33.2032L89.3383 32.7968ZM88.3564 19.175C88.3564 18.4768 88.1925 17.8547 87.7498 17.4365L87.0631 18.1635C87.2204 18.312 87.3564 18.6066 87.3564 19.175H88.3564ZM87.76 17.4464C87.3409 17.0273 86.7229 16.875 86.0314 16.875V17.875C86.6066 17.875 86.9054 18.006 87.0529 18.1536L87.76 17.4464ZM86.0314 16.875H83.4314V17.875H86.0314V16.875ZM82.9314 17.375V23.875H83.9314V17.375H82.9314ZM83.4314 24.375H86.0314V23.375H83.4314V24.375ZM86.0314 24.375C86.7229 24.375 87.3409 24.2227 87.76 23.8036L87.0529 23.0964C86.9054 23.244 86.6066 23.375 86.0314 23.375V24.375ZM87.76 23.8036C88.1913 23.3723 88.3564 22.7512 88.3564 22.05H87.3564C87.3564 22.6154 87.2216 22.9277 87.0529 23.0964L87.76 23.8036ZM88.3564 22.05V19.175H87.3564V22.05H88.3564ZM93.4447 33H92.9447V33.5H93.4447V33ZM93.4447 31.175V30.675H92.9447V31.175H93.4447ZM95.1947 31.175V31.675H95.6947V31.175H95.1947ZM95.1947 17.325H95.6947V16.825H95.1947V17.325ZM93.4447 17.325H92.9447V17.825H93.4447V17.325ZM93.4447 15.5V15H92.9447V15.5H93.4447ZM99.1197 15.5H99.6197V15H99.1197V15.5ZM99.1197 17.325V17.825H99.6197V17.325H99.1197ZM97.3697 17.325V16.825H96.8697V17.325H97.3697ZM97.3697 31.175H96.8697V31.675H97.3697V31.175ZM99.1197 31.175H99.6197V30.675H99.1197V31.175ZM99.1197 33V33.5H99.6197V33H99.1197ZM93.9447 33V31.175H92.9447V33H93.9447ZM93.4447 31.675H95.1947V30.675H93.4447V31.675ZM95.6947 31.175V17.325H94.6947V31.175H95.6947ZM95.1947 16.825H93.4447V17.825H95.1947V16.825ZM93.9447 17.325V15.5H92.9447V17.325H93.9447ZM93.4447 16H99.1197V15H93.4447V16ZM98.6197 15.5V17.325H99.6197V15.5H98.6197ZM99.1197 16.825H97.3697V17.825H99.1197V16.825ZM96.8697 17.325V31.175H97.8697V17.325H96.8697ZM97.3697 31.675H99.1197V30.675H97.3697V31.675ZM98.6197 31.175V33H99.6197V31.175H98.6197ZM99.1197 32.5H93.4447V33.5H99.1197V32.5ZM103.479 31.95L103.138 32.3154L103.146 32.3228L103.479 31.95ZM103.479 16.575L103.816 16.9442L103.817 16.9439L103.479 16.575ZM110.204 15.5H110.704V15H110.204V15.5ZM110.204 17.4V17.9H110.704V17.4H110.204ZM105.079 17.95L104.734 17.5887V17.5887L105.079 17.95ZM108.879 31.1V31.6H109.379V31.1H108.879ZM108.879 25.675H109.379V25.175H108.879V25.675ZM106.779 25.675H106.279V26.175H106.779V25.675ZM106.779 23.8V23.3H106.279V23.8H106.779ZM110.954 23.8H111.454V23.3H110.954V23.8ZM110.954 33V33.5H111.454V33H110.954ZM106.829 32.5C105.455 32.5 104.474 32.1686 103.812 31.5772L103.146 32.3228C104.051 33.1314 105.303 33.5 106.829 33.5V32.5ZM103.821 31.5847C103.187 30.9923 102.829 30.0786 102.829 28.75H101.829C101.829 30.2548 102.238 31.4744 103.138 32.3153L103.821 31.5847ZM102.829 28.75V19.75H101.829V28.75H102.829ZM102.829 19.75C102.829 18.4206 103.187 17.5187 103.816 16.9442L103.142 16.2058C102.238 17.0313 101.829 18.2461 101.829 19.75H102.829ZM103.817 16.9439C104.479 16.3383 105.458 16 106.829 16V15C105.301 15 104.046 15.3784 103.142 16.2061L103.817 16.9439ZM106.829 16H110.204V15H106.829V16ZM109.704 15.5V17.4H110.704V15.5H109.704ZM110.204 16.9H106.579V17.9H110.204V16.9ZM106.579 16.9C105.856 16.9 105.225 17.1186 104.734 17.5887L105.425 18.3113C105.7 18.0481 106.069 17.9 106.579 17.9V16.9ZM104.734 17.5887C104.255 18.0468 104.004 18.6178 104.004 19.275H105.004C105.004 18.8988 105.137 18.5865 105.425 18.3113L104.734 17.5887ZM104.004 19.275V29.225H105.004V19.275H104.004ZM104.004 29.225C104.004 29.8822 104.255 30.4532 104.734 30.9113L105.425 30.1887C105.137 29.9135 105.004 29.6012 105.004 29.225H104.004ZM104.734 30.9113C105.225 31.3814 105.856 31.6 106.579 31.6V30.6C106.069 30.6 105.7 30.4519 105.425 30.1887L104.734 30.9113ZM106.579 31.6H108.879V30.6H106.579V31.6ZM109.379 31.1V25.675H108.379V31.1H109.379ZM108.879 25.175H106.779V26.175H108.879V25.175ZM107.279 25.675V23.8H106.279V25.675H107.279ZM106.779 24.3H110.954V23.3H106.779V24.3ZM110.454 23.8V33H111.454V23.8H110.454ZM110.954 32.5H106.829V33.5H110.954V32.5ZM122.36 33H121.86V33.5H122.36V33ZM122.36 24.95H122.86V24.45H122.36V24.95ZM117.21 24.95V24.45H116.71V24.95H117.21ZM117.21 33V33.5H117.71V33H117.21ZM115.035 33H114.535V33.5H115.035V33ZM115.035 15.5V15H114.535V15.5H115.035ZM117.21 15.5H117.71V15H117.21V15.5ZM117.21 23.1H116.71V23.6H117.21V23.1ZM122.36 23.1V23.6H122.86V23.1H122.36ZM122.36 15.5V15H121.86V15.5H122.36ZM124.535 15.5H125.035V15H124.535V15.5ZM124.535 33V33.5H125.035V33H124.535ZM122.86 33V24.95H121.86V33H122.86ZM122.36 24.45H117.21V25.45H122.36V24.45ZM116.71 24.95V33H117.71V24.95H116.71ZM117.21 32.5H115.035V33.5H117.21V32.5ZM115.535 33V15.5H114.535V33H115.535ZM115.035 16H117.21V15H115.035V16ZM116.71 15.5V23.1H117.71V15.5H116.71ZM117.21 23.6H122.36V22.6H117.21V23.6ZM122.86 23.1V15.5H121.86V23.1H122.86ZM122.36 16H124.535V15H122.36V16ZM124.035 15.5V33H125.035V15.5H124.035ZM124.535 32.5H122.36V33.5H124.535V32.5ZM133.255 17.4V16.9H132.755V17.4H133.255ZM133.255 33V33.5H133.755V33H133.255ZM131.08 33H130.58V33.5H131.08V33ZM131.08 17.4H131.58V16.9H131.08V17.4ZM127.23 17.4H126.73V17.9H127.23V17.4ZM127.23 15.5V15H126.73V15.5H127.23ZM137.105 15.5H137.605V15H137.105V15.5ZM137.105 17.4V17.9H137.605V17.4H137.105ZM132.755 17.4V33H133.755V17.4H132.755ZM133.255 32.5H131.08V33.5H133.255V32.5ZM131.58 33V17.4H130.58V33H131.58ZM131.08 16.9H127.23V17.9H131.08V16.9ZM127.73 17.4V15.5H126.73V17.4H127.73ZM127.23 16H137.105V15H127.23V16ZM136.605 15.5V17.4H137.605V15.5H136.605ZM137.105 16.9H133.255V17.9H137.105V16.9Z" fill="#814232"/>
    <path d="M146.3 17.325V23.3H151.7V25.125H146.3V33H144.125V15.5H152.325V17.325H146.3ZM162.543 33L161.593 28.575H156.718L155.743 33H153.518L157.743 15.5H160.618L164.768 33H162.543ZM159.143 17.15L157.118 26.7H161.193L159.143 17.15ZM166.718 33V31.175H168.468V17.325H166.718V15.5H172.393V17.325H170.643V31.175H172.393V33H166.718ZM180.253 25.75H178.028V33H175.853V15.5H180.328C181.745 15.5 182.811 15.8167 183.528 16.45C184.261 17.0667 184.628 18.05 184.628 19.4V21.8C184.628 23.6833 183.878 24.8583 182.378 25.325L185.853 33H183.478L180.253 25.75ZM182.453 19.175C182.453 18.5417 182.303 18.0833 182.003 17.8C181.72 17.5167 181.261 17.375 180.628 17.375H178.028V23.875H180.628C181.261 23.875 181.72 23.7333 182.003 23.45C182.303 23.15 182.453 22.6833 182.453 22.05V19.175ZM198.191 29.05C198.191 30.4833 197.858 31.5 197.191 32.1C196.541 32.7 195.458 33 193.941 33H189.041V15.5H193.641C195.141 15.5 196.275 15.8083 197.041 16.425C197.808 17.025 198.191 18.0167 198.191 19.4V29.05ZM196.016 19.175C196.016 18.625 195.85 18.1917 195.516 17.875C195.183 17.5417 194.741 17.375 194.191 17.375H191.216V31.125H194.166C194.8 31.125 195.266 30.9833 195.566 30.7C195.866 30.4 196.016 29.9333 196.016 29.3V19.175ZM206.8 25.75H204.575V33H202.4V15.5H206.875C208.292 15.5 209.359 15.8167 210.075 16.45C210.809 17.0667 211.175 18.05 211.175 19.4V21.8C211.175 23.6833 210.425 24.8583 208.925 25.325L212.4 33H210.025L206.8 25.75ZM209 19.175C209 18.5417 208.85 18.0833 208.55 17.8C208.267 17.5167 207.809 17.375 207.175 17.375H204.575V23.875H207.175C207.809 23.875 208.267 23.7333 208.55 23.45C208.85 23.15 209 22.6833 209 22.05V19.175ZM224.945 28.75C224.945 30.1667 224.553 31.2333 223.77 31.95C223.003 32.65 221.895 33 220.445 33H219.595C218.145 33 217.028 32.65 216.245 31.95C215.478 31.2333 215.095 30.1667 215.095 28.75V19.75C215.095 18.3333 215.478 17.275 216.245 16.575C217.028 15.8583 218.145 15.5 219.595 15.5H220.445C221.895 15.5 223.003 15.8583 223.77 16.575C224.553 17.275 224.945 18.3333 224.945 19.75V28.75ZM222.77 19.275C222.77 18.7583 222.578 18.3167 222.195 17.95C221.811 17.5833 221.311 17.4 220.695 17.4H219.345C218.728 17.4 218.228 17.5833 217.845 17.95C217.461 18.3167 217.27 18.7583 217.27 19.275V29.225C217.27 29.7417 217.461 30.1833 217.845 30.55C218.228 30.9167 218.728 31.1 219.345 31.1H220.695C221.311 31.1 221.811 30.9167 222.195 30.55C222.578 30.1833 222.77 29.7417 222.77 29.225V19.275ZM237.918 22.25C237.918 23.6 237.56 24.6 236.843 25.25C236.126 25.8833 235.068 26.2 233.668 26.2H231.318V33H229.143V15.5H233.618C235.035 15.5 236.101 15.8167 236.818 16.45C237.551 17.0667 237.918 18.05 237.918 19.4V22.25ZM235.743 19.175C235.743 18.5417 235.593 18.0833 235.293 17.8C235.01 17.5167 234.551 17.375 233.918 17.375H231.318V24.325H233.918C234.551 24.325 235.01 24.1833 235.293 23.9C235.593 23.6 235.743 23.1333 235.743 22.5V19.175Z" fill="#ED7A5D"/>
    <path d="M146.3 17.325V16.825H145.8V17.325H146.3ZM146.3 23.3H145.8V23.8H146.3V23.3ZM151.7 23.3H152.2V22.8H151.7V23.3ZM151.7 25.125V25.625H152.2V25.125H151.7ZM146.3 25.125V24.625H145.8V25.125H146.3ZM146.3 33V33.5H146.8V33H146.3ZM144.125 33H143.625V33.5H144.125V33ZM144.125 15.5V15H143.625V15.5H144.125ZM152.325 15.5H152.825V15H152.325V15.5ZM152.325 17.325V17.825H152.825V17.325H152.325ZM145.8 17.325V23.3H146.8V17.325H145.8ZM146.3 23.8H151.7V22.8H146.3V23.8ZM151.2 23.3V25.125H152.2V23.3H151.2ZM151.7 24.625H146.3V25.625H151.7V24.625ZM145.8 25.125V33H146.8V25.125H145.8ZM146.3 32.5H144.125V33.5H146.3V32.5ZM144.625 33V15.5H143.625V33H144.625ZM144.125 16H152.325V15H144.125V16ZM151.825 15.5V17.325H152.825V15.5H151.825ZM152.325 16.825H146.3V17.825H152.325V16.825ZM162.543 33L162.054 33.105L162.139 33.5H162.543V33ZM161.593 28.575L162.082 28.47L161.997 28.075H161.593V28.575ZM156.718 28.575V28.075H156.317L156.23 28.4674L156.718 28.575ZM155.743 33V33.5H156.145L156.232 33.1076L155.743 33ZM153.518 33L153.032 32.8827L152.883 33.5H153.518V33ZM157.743 15.5V15H157.35L157.257 15.3827L157.743 15.5ZM160.618 15.5L161.105 15.3846L161.014 15H160.618V15.5ZM164.768 33V33.5H165.401L165.255 32.8846L164.768 33ZM159.143 17.15L159.632 17.0451L158.654 17.0463L159.143 17.15ZM157.118 26.7L156.629 26.5963L156.501 27.2H157.118V26.7ZM161.193 26.7V27.2H161.812L161.682 26.5951L161.193 26.7ZM163.032 32.895L162.082 28.47L161.104 28.68L162.054 33.105L163.032 32.895ZM161.593 28.075H156.718V29.075H161.593V28.075ZM156.23 28.4674L155.255 32.8924L156.232 33.1076L157.207 28.6826L156.23 28.4674ZM155.743 32.5H153.518V33.5H155.743V32.5ZM154.004 33.1173L158.229 15.6173L157.257 15.3827L153.032 32.8827L154.004 33.1173ZM157.743 16H160.618V15H157.743V16ZM160.132 15.6154L164.282 33.1154L165.255 32.8846L161.105 15.3846L160.132 15.6154ZM164.768 32.5H162.543V33.5H164.768V32.5ZM158.654 17.0463L156.629 26.5963L157.607 26.8037L159.632 17.2537L158.654 17.0463ZM157.118 27.2H161.193V26.2H157.118V27.2ZM161.682 26.5951L159.632 17.0451L158.654 17.2549L160.704 26.8049L161.682 26.5951ZM166.718 33H166.218V33.5H166.718V33ZM166.718 31.175V30.675H166.218V31.175H166.718ZM168.468 31.175V31.675H168.968V31.175H168.468ZM168.468 17.325H168.968V16.825H168.468V17.325ZM166.718 17.325H166.218V17.825H166.718V17.325ZM166.718 15.5V15H166.218V15.5H166.718ZM172.393 15.5H172.893V15H172.393V15.5ZM172.393 17.325V17.825H172.893V17.325H172.393ZM170.643 17.325V16.825H170.143V17.325H170.643ZM170.643 31.175H170.143V31.675H170.643V31.175ZM172.393 31.175H172.893V30.675H172.393V31.175ZM172.393 33V33.5H172.893V33H172.393ZM167.218 33V31.175H166.218V33H167.218ZM166.718 31.675H168.468V30.675H166.718V31.675ZM168.968 31.175V17.325H167.968V31.175H168.968ZM168.468 16.825H166.718V17.825H168.468V16.825ZM167.218 17.325V15.5H166.218V17.325H167.218ZM166.718 16H172.393V15H166.718V16ZM171.893 15.5V17.325H172.893V15.5H171.893ZM172.393 16.825H170.643V17.825H172.393V16.825ZM170.143 17.325V31.175H171.143V17.325H170.143ZM170.643 31.675H172.393V30.675H170.643V31.675ZM171.893 31.175V33H172.893V31.175H171.893ZM172.393 32.5H166.718V33.5H172.393V32.5ZM180.253 25.75L180.71 25.5468L180.578 25.25H180.253V25.75ZM178.028 25.75V25.25H177.528V25.75H178.028ZM178.028 33V33.5H178.528V33H178.028ZM175.853 33H175.353V33.5H175.853V33ZM175.853 15.5V15H175.353V15.5H175.853ZM183.528 16.45L183.197 16.8248L183.206 16.8327L183.528 16.45ZM182.378 25.325L182.229 24.8476L181.689 25.0157L181.922 25.5312L182.378 25.325ZM185.853 33V33.5H186.628L186.308 32.7938L185.853 33ZM183.478 33L183.021 33.2032L183.153 33.5H183.478V33ZM182.003 17.8L181.649 18.1536L181.654 18.1586L181.66 18.1635L182.003 17.8ZM178.028 17.375V16.875H177.528V17.375H178.028ZM178.028 23.875H177.528V24.375H178.028V23.875ZM180.253 25.25H178.028V26.25H180.253V25.25ZM177.528 25.75V33H178.528V25.75H177.528ZM178.028 32.5H175.853V33.5H178.028V32.5ZM176.353 33V15.5H175.353V33H176.353ZM175.853 16H180.328V15H175.853V16ZM180.328 16C181.68 16 182.607 16.3033 183.197 16.8247L183.859 16.0753C183.016 15.33 181.809 15 180.328 15V16ZM183.206 16.8327C183.786 17.3202 184.128 18.1347 184.128 19.4H185.128C185.128 17.9653 184.737 16.8131 183.85 16.0673L183.206 16.8327ZM184.128 19.4V21.8H185.128V19.4H184.128ZM184.128 21.8C184.128 22.6788 183.953 23.3412 183.644 23.8247C183.341 24.3001 182.882 24.6446 182.229 24.8476L182.526 25.8024C183.374 25.5388 184.04 25.0624 184.487 24.3628C184.928 23.6713 185.128 22.8045 185.128 21.8H184.128ZM181.922 25.5312L185.397 33.2062L186.308 32.7938L182.833 25.1188L181.922 25.5312ZM185.853 32.5H183.478V33.5H185.853V32.5ZM183.935 32.7968L180.71 25.5468L179.796 25.9532L183.021 33.2032L183.935 32.7968ZM182.953 19.175C182.953 18.4768 182.789 17.8547 182.346 17.4365L181.66 18.1635C181.817 18.312 181.953 18.6066 181.953 19.175H182.953ZM182.356 17.4464C181.937 17.0273 181.319 16.875 180.628 16.875V17.875C181.203 17.875 181.502 18.006 181.649 18.1536L182.356 17.4464ZM180.628 16.875H178.028V17.875H180.628V16.875ZM177.528 17.375V23.875H178.528V17.375H177.528ZM178.028 24.375H180.628V23.375H178.028V24.375ZM180.628 24.375C181.319 24.375 181.937 24.2227 182.356 23.8036L181.649 23.0964C181.502 23.244 181.203 23.375 180.628 23.375V24.375ZM182.356 23.8036C182.788 23.3723 182.953 22.7512 182.953 22.05H181.953C181.953 22.6154 181.818 22.9277 181.649 23.0964L182.356 23.8036ZM182.953 22.05V19.175H181.953V22.05H182.953ZM197.191 32.1L196.857 31.7283L196.852 31.7326L197.191 32.1ZM189.041 33H188.541V33.5H189.041V33ZM189.041 15.5V15H188.541V15.5H189.041ZM197.041 16.425L196.728 16.8146L196.733 16.8188L197.041 16.425ZM195.516 17.875L195.163 18.2287L195.172 18.2375L195.516 17.875ZM191.216 17.375V16.875H190.716V17.375H191.216ZM191.216 31.125H190.716V31.625H191.216V31.125ZM195.566 30.7L195.91 31.0635L195.915 31.0586L195.92 31.0536L195.566 30.7ZM197.691 29.05C197.691 30.4246 197.369 31.2673 196.857 31.7284L197.526 32.4716C198.347 31.7327 198.691 30.5421 198.691 29.05H197.691ZM196.852 31.7326C196.341 32.2042 195.415 32.5 193.941 32.5V33.5C195.501 33.5 196.741 33.1958 197.53 32.4674L196.852 31.7326ZM193.941 32.5H189.041V33.5H193.941V32.5ZM189.541 33V15.5H188.541V33H189.541ZM189.041 16H193.641V15H189.041V16ZM193.641 16C195.084 16 196.086 16.2984 196.728 16.8146L197.355 16.0354C196.463 15.3183 195.198 15 193.641 15V16ZM196.733 16.8188C197.334 17.2888 197.691 18.1024 197.691 19.4H198.691C198.691 17.9309 198.282 16.7612 197.349 16.0312L196.733 16.8188ZM197.691 19.4V29.05H198.691V19.4H197.691ZM196.516 19.175C196.516 18.517 196.313 17.9419 195.861 17.5125L195.172 18.2375C195.387 18.4415 195.516 18.733 195.516 19.175H196.516ZM195.87 17.5214C195.427 17.0787 194.85 16.875 194.191 16.875V17.875C194.632 17.875 194.939 18.0046 195.163 18.2286L195.87 17.5214ZM194.191 16.875H191.216V17.875H194.191V16.875ZM190.716 17.375V31.125H191.716V17.375H190.716ZM191.216 31.625H194.166V30.625H191.216V31.625ZM194.166 31.625C194.861 31.625 195.478 31.4713 195.91 31.0635L195.223 30.3365C195.055 30.4953 194.738 30.625 194.166 30.625V31.625ZM195.92 31.0536C196.351 30.6223 196.516 30.0012 196.516 29.3H195.516C195.516 29.8654 195.381 30.1777 195.213 30.3464L195.92 31.0536ZM196.516 29.3V19.175H195.516V29.3H196.516ZM206.8 25.75L207.257 25.5468L207.125 25.25H206.8V25.75ZM204.575 25.75V25.25H204.075V25.75H204.575ZM204.575 33V33.5H205.075V33H204.575ZM202.4 33H201.9V33.5H202.4V33ZM202.4 15.5V15H201.9V15.5H202.4ZM210.075 16.45L209.744 16.8248L209.754 16.8327L210.075 16.45ZM208.925 25.325L208.777 24.8476L208.236 25.0157L208.47 25.5312L208.925 25.325ZM212.4 33V33.5H213.176L212.856 32.7938L212.4 33ZM210.025 33L209.569 33.2032L209.701 33.5H210.025V33ZM208.55 17.8L208.197 18.1536L208.202 18.1586L208.207 18.1635L208.55 17.8ZM204.575 17.375V16.875H204.075V17.375H204.575ZM204.575 23.875H204.075V24.375H204.575V23.875ZM206.8 25.25H204.575V26.25H206.8V25.25ZM204.075 25.75V33H205.075V25.75H204.075ZM204.575 32.5H202.4V33.5H204.575V32.5ZM202.9 33V15.5H201.9V33H202.9ZM202.4 16H206.875V15H202.4V16ZM206.875 16C208.227 16 209.154 16.3033 209.744 16.8247L210.406 16.0753C209.563 15.33 208.357 15 206.875 15V16ZM209.754 16.8327C210.333 17.3202 210.675 18.1347 210.675 19.4H211.675C211.675 17.9653 211.284 16.8131 210.397 16.0673L209.754 16.8327ZM210.675 19.4V21.8H211.675V19.4H210.675ZM210.675 21.8C210.675 22.6788 210.5 23.3412 210.191 23.8247C209.888 24.3001 209.429 24.6446 208.777 24.8476L209.074 25.8024C209.921 25.5388 210.588 25.0624 211.034 24.3628C211.476 23.6713 211.675 22.8045 211.675 21.8H210.675ZM208.47 25.5312L211.945 33.2062L212.856 32.7938L209.381 25.1188L208.47 25.5312ZM212.4 32.5H210.025V33.5H212.4V32.5ZM210.482 32.7968L207.257 25.5468L206.344 25.9532L209.569 33.2032L210.482 32.7968ZM209.5 19.175C209.5 18.4768 209.336 17.8547 208.894 17.4365L208.207 18.1635C208.364 18.312 208.5 18.6066 208.5 19.175H209.5ZM208.904 17.4464C208.485 17.0273 207.867 16.875 207.175 16.875V17.875C207.751 17.875 208.049 18.006 208.197 18.1536L208.904 17.4464ZM207.175 16.875H204.575V17.875H207.175V16.875ZM204.075 17.375V23.875H205.075V17.375H204.075ZM204.575 24.375H207.175V23.375H204.575V24.375ZM207.175 24.375C207.867 24.375 208.485 24.2227 208.904 23.8036L208.197 23.0964C208.049 23.244 207.751 23.375 207.175 23.375V24.375ZM208.904 23.8036C209.335 23.3723 209.5 22.7512 209.5 22.05H208.5C208.5 22.6154 208.366 22.9277 208.197 23.0964L208.904 23.8036ZM209.5 22.05V19.175H208.5V22.05H209.5ZM223.77 31.95L224.107 32.3192L224.107 32.3189L223.77 31.95ZM216.245 31.95L215.903 32.3154L215.911 32.3228L216.245 31.95ZM216.245 16.575L216.582 16.9442L216.582 16.9439L216.245 16.575ZM223.77 16.575L223.428 16.9404L223.436 16.9478L223.77 16.575ZM222.195 17.95L222.54 17.5887V17.5887L222.195 17.95ZM217.845 17.95L217.499 17.5887V17.5887L217.845 17.95ZM224.445 28.75C224.445 30.0755 224.08 30.9879 223.432 31.5811L224.107 32.3189C225.025 31.4788 225.445 30.2578 225.445 28.75H224.445ZM223.432 31.5808C222.789 32.1683 221.819 32.5 220.445 32.5V33.5C221.97 33.5 223.217 33.1317 224.107 32.3192L223.432 31.5808ZM220.445 32.5H219.595V33.5H220.445V32.5ZM219.595 32.5C218.221 32.5 217.24 32.1686 216.578 31.5772L215.911 32.3228C216.816 33.1314 218.069 33.5 219.595 33.5V32.5ZM216.586 31.5847C215.952 30.9923 215.595 30.0786 215.595 28.75H214.595C214.595 30.2548 215.004 31.4744 215.903 32.3153L216.586 31.5847ZM215.595 28.75V19.75H214.595V28.75H215.595ZM215.595 19.75C215.595 18.4206 215.952 17.5187 216.582 16.9442L215.907 16.2058C215.003 17.0313 214.595 18.2461 214.595 19.75H215.595ZM216.582 16.9439C217.244 16.3383 218.223 16 219.595 16V15C218.066 15 216.812 15.3784 215.907 16.2061L216.582 16.9439ZM219.595 16H220.445V15H219.595V16ZM220.445 16C221.817 16 222.784 16.3386 223.428 16.9403L224.111 16.2097C223.221 15.3781 221.972 15 220.445 15V16ZM223.436 16.9478C224.08 17.5231 224.445 18.4237 224.445 19.75H225.445C225.445 18.243 225.026 17.0269 224.103 16.2022L223.436 16.9478ZM224.445 19.75V28.75H225.445V19.75H224.445ZM223.27 19.275C223.27 18.6178 223.019 18.0468 222.54 17.5887L221.849 18.3113C222.137 18.5865 222.27 18.8988 222.27 19.275H223.27ZM222.54 17.5887C222.049 17.1186 221.417 16.9 220.695 16.9V17.9C221.205 17.9 221.574 18.0481 221.849 18.3113L222.54 17.5887ZM220.695 16.9H219.345V17.9H220.695V16.9ZM219.345 16.9C218.622 16.9 217.99 17.1186 217.499 17.5887L218.19 18.3113C218.465 18.0481 218.834 17.9 219.345 17.9V16.9ZM217.499 17.5887C217.02 18.0468 216.77 18.6178 216.77 19.275H217.77C217.77 18.8988 217.902 18.5865 218.19 18.3113L217.499 17.5887ZM216.77 19.275V29.225H217.77V19.275H216.77ZM216.77 29.225C216.77 29.8822 217.02 30.4532 217.499 30.9113L218.19 30.1887C217.902 29.9135 217.77 29.6012 217.77 29.225H216.77ZM217.499 30.9113C217.99 31.3814 218.622 31.6 219.345 31.6V30.6C218.834 30.6 218.465 30.4519 218.19 30.1887L217.499 30.9113ZM219.345 31.6H220.695V30.6H219.345V31.6ZM220.695 31.6C221.417 31.6 222.049 31.3814 222.54 30.9113L221.849 30.1887C221.574 30.4519 221.205 30.6 220.695 30.6V31.6ZM222.54 30.9113C223.019 30.4532 223.27 29.8822 223.27 29.225H222.27C222.27 29.6012 222.137 29.9135 221.849 30.1887L222.54 30.9113ZM223.27 29.225V19.275H222.27V29.225H223.27ZM236.843 25.25L237.174 25.6247L237.179 25.6204L236.843 25.25ZM231.318 26.2V25.7H230.818V26.2H231.318ZM231.318 33V33.5H231.818V33H231.318ZM229.143 33H228.643V33.5H229.143V33ZM229.143 15.5V15H228.643V15.5H229.143ZM236.818 16.45L236.487 16.8248L236.496 16.8327L236.818 16.45ZM235.293 17.8L234.94 18.1536L234.945 18.1586L234.95 18.1635L235.293 17.8ZM231.318 17.375V16.875H230.818V17.375H231.318ZM231.318 24.325H230.818V24.825H231.318V24.325ZM235.293 23.9L235.647 24.2536L235.293 23.9ZM237.418 22.25C237.418 23.5165 237.083 24.3572 236.507 24.8796L237.179 25.6204C238.036 24.8428 238.418 23.6835 238.418 22.25H237.418ZM236.512 24.8753C235.921 25.3975 235.002 25.7 233.668 25.7V26.7C235.135 26.7 236.332 26.3692 237.174 25.6247L236.512 24.8753ZM233.668 25.7H231.318V26.7H233.668V25.7ZM230.818 26.2V33H231.818V26.2H230.818ZM231.318 32.5H229.143V33.5H231.318V32.5ZM229.643 33V15.5H228.643V33H229.643ZM229.143 16H233.618V15H229.143V16ZM233.618 16C234.97 16 235.897 16.3033 236.487 16.8247L237.149 16.0753C236.306 15.33 235.1 15 233.618 15V16ZM236.496 16.8327C237.076 17.3202 237.418 18.1347 237.418 19.4H238.418C238.418 17.9653 238.027 16.8131 237.14 16.0673L236.496 16.8327ZM237.418 19.4V22.25H238.418V19.4H237.418ZM236.243 19.175C236.243 18.4768 236.079 17.8547 235.636 17.4365L234.95 18.1635C235.107 18.312 235.243 18.6066 235.243 19.175H236.243ZM235.647 17.4464C235.228 17.0273 234.61 16.875 233.918 16.875V17.875C234.493 17.875 234.792 18.006 234.94 18.1536L235.647 17.4464ZM233.918 16.875H231.318V17.875H233.918V16.875ZM230.818 17.375V24.325H231.818V17.375H230.818ZM231.318 24.825H233.918V23.825H231.318V24.825ZM233.918 24.825C234.61 24.825 235.228 24.6727 235.647 24.2536L234.94 23.5464C234.792 23.694 234.493 23.825 233.918 23.825V24.825ZM235.647 24.2536C236.078 23.8223 236.243 23.2012 236.243 22.5H235.243C235.243 23.0654 235.108 23.3777 234.94 23.5464L235.647 24.2536ZM236.243 22.5V19.175H235.243V22.5H236.243Z" fill="#ED7A5D"/>
    <path d="M14.2727 15.4556C14.1294 15.4095 13.9617 15.3938 13.858 15.3774C13.3889 15.3012 12.9011 15.3564 12.4581 15.5288C12.0023 15.7073 11.6432 16.0107 11.3231 16.3752C11.1212 16.605 10.845 16.8553 10.8235 17.1544L10.795 17.1376C10.6179 16.0222 9.90233 15.0443 9.13357 14.2493C8.48698 13.5811 7.80553 13.0133 6.91297 12.8344C9.68707 12.0997 12.7117 12.862 14.2727 15.4556Z" fill="#ED7A5D"/>
    <path d="M6.49223 12.9591C8.51436 13.1235 10.0538 15.2424 10.6539 17.0566C8.99824 16.183 6.38098 17.2937 5.9735 19.1525L5.94863 19.1363C5.57105 17.0318 5.44634 14.9957 6.37118 13.0014L6.3716 12.9978C6.41171 12.9844 6.4521 12.9723 6.49223 12.9591Z" fill="#ED7A5D"/>
    <path d="M5.86067 19.0809C5.2346 18.7302 4.37815 18.8919 3.76078 19.1975C2.97292 19.588 2.36326 20.2974 2.1333 21.1448C0.77818 17.9174 2.56761 14.6591 5.65461 13.2777C5.83104 13.1987 6.01126 13.1262 6.19292 13.0603C5.32725 14.8836 5.27546 17.1621 5.86067 19.0809Z" fill="#ED7A5D"/>
    <path d="M14.6061 15.7358C13.6467 18.8879 12.1586 22.0598 10.4088 24.8507C10.3784 24.8987 10.3255 24.8908 10.2952 24.8604C10.2781 24.864 10.2579 24.8646 10.2379 24.8545L10.2352 24.8528L10.2059 24.8386C8.87804 24.1902 7.53966 23.5657 6.1777 22.9876C4.87072 22.4326 3.50047 21.996 2.21492 21.3959C2.17176 21.4455 2.07586 21.3978 2.09174 21.3205L2.0933 21.3167L2.07802 21.3009C1.20669 19.879 1.31601 17.9745 1.98657 16.4976C2.68731 14.9549 4.03858 13.7944 5.56664 13.1094C8.80368 11.6592 12.7778 12.2997 14.5758 15.5812C14.5939 15.6155 14.5896 15.6462 14.5745 15.6709C14.5979 15.6802 14.615 15.7042 14.6061 15.7358ZM14.4249 15.7978C14.3701 15.8155 14.3235 15.7693 14.3091 15.7233L14.3015 15.6988C14.297 15.683 14.2975 15.6686 14.2996 15.6562C14.1169 15.6376 13.8581 15.5862 13.8321 15.5821C13.6529 15.552 13.4947 15.5425 13.3129 15.5509C12.9861 15.5677 12.6797 15.6407 12.3806 15.7766C11.9737 15.9614 10.9909 16.6934 10.9589 17.2476L10.963 17.2501C11.041 17.3088 10.9973 17.4182 10.9254 17.4333C10.7923 19.8579 10.6374 22.2975 10.3041 24.7046L10.3146 24.7095C11.1293 23.2381 11.9417 21.7778 12.6462 20.2473C13.3193 18.783 13.8843 17.2807 14.4714 15.7809L14.4572 15.7875L14.4249 15.7978ZM13.858 15.3775C13.9617 15.3939 14.1294 15.4096 14.2727 15.4557C12.7118 12.8621 9.6871 12.0998 6.913 12.8345C7.80556 13.0134 8.48701 13.5813 9.1336 14.2494C9.90236 15.0444 10.6179 16.0223 10.795 17.1377L10.8236 17.1545C10.8451 16.8554 11.1212 16.6051 11.3231 16.3753C11.6432 16.0108 12.0023 15.7074 12.4581 15.5289C12.9011 15.3566 13.3889 15.3013 13.858 15.3775ZM10.6539 17.0567C10.0539 15.2425 8.51439 13.1236 6.49227 12.9592C6.45213 12.9724 6.41174 12.9845 6.37163 12.9979L6.37121 13.0015C5.44638 14.9958 5.57109 17.0319 5.94867 19.1364L5.97354 19.1526C6.38101 17.2938 8.99827 16.1831 10.6539 17.0567ZM10.2112 24.6038C10.4039 22.1907 10.6458 19.785 10.778 17.3679C9.10532 16.2894 6.70295 17.4462 6.09355 19.2464L6.10205 19.253C6.16233 19.307 6.10924 19.3886 6.04346 19.3989C7.48118 21.0756 8.94338 22.7947 10.2112 24.6038ZM2.24633 21.3189C3.67765 21.6891 5.07557 22.3357 6.4329 22.9147C7.6816 23.4474 8.91597 24.0141 10.1322 24.6194C8.66268 22.9219 7.28591 21.1275 5.85262 19.3986C5.82715 19.3683 5.83293 19.3336 5.85145 19.3083C4.36845 18.5127 2.68625 19.9075 2.24633 21.3189ZM3.76083 19.1977C4.3782 18.8921 5.23465 18.7304 5.86072 19.081C5.27551 17.1623 5.3273 14.8838 6.19297 13.0605C6.01131 13.1263 5.83109 13.1989 5.65465 13.2779C2.56766 14.6593 0.778228 17.9176 2.13335 21.145C2.36331 20.2975 2.97297 19.5881 3.76083 19.1977Z" fill="#171717"/>
    <path d="M13.3993 25.6048C13.7738 25.5047 14.15 25.4064 14.527 25.3105L14.5289 25.3124C14.781 25.4657 15.0081 25.6331 15.2176 25.8143C14.6065 25.7831 13.9998 25.7151 13.3993 25.6048Z" fill="white"/>
    <path d="M7.90434 27.4023C7.48459 27.9357 7.06895 28.4705 6.66634 29.0157L6.6288 29.0285C6.72112 28.644 6.78863 28.1645 7.036 27.8768C7.23693 27.6442 7.58164 27.5155 7.90434 27.4023Z" fill="white"/>
    <path d="M15.37 25.95L15.382 25.9609C12.5143 26.9403 9.63949 27.9205 6.79558 28.9682C7.24419 28.4293 7.67971 27.8799 8.11345 27.3285C8.15173 27.3142 8.19033 27.301 8.22602 27.286C8.65116 27.1176 9.07734 26.956 9.5067 26.801C10.7012 26.3685 11.9121 26.0079 13.1345 25.6767C13.8693 25.8256 14.617 25.918 15.37 25.95Z" fill="white"/>
    <path d="M15.4796 26.0537C15.7774 26.3494 16.0361 26.6802 16.2712 27.0601L16.2642 27.0611C12.9819 28.3523 9.63702 29.4552 6.23973 30.3987C6.37506 29.9834 6.48621 29.5612 6.60135 29.1402C6.60453 29.127 6.6085 29.1123 6.61242 29.0977C6.61037 29.1263 6.64389 29.1513 6.66731 29.1244C6.68394 29.1033 6.7005 29.0822 6.71859 29.062C9.65304 28.1082 12.5697 27.0782 15.4796 26.0537Z" fill="white"/>
    <path d="M8.33051 29.9787C11.0297 29.1792 13.6908 28.2585 16.3109 27.2295C16.6176 29.3227 17.0635 31.5055 17.7612 33.5044C14.678 34.3616 11.5967 35.2953 8.5976 36.4136C8.13211 35.1291 7.6061 33.8662 7.10451 32.5954C6.97837 32.278 6.8529 31.9592 6.72746 31.6403C6.66013 31.4682 6.3121 30.8757 6.35177 30.6859C6.40978 30.4026 7.08867 30.3381 7.32982 30.2686C7.66432 30.1738 7.99704 30.077 8.33051 29.9787ZM9.95869 34.7909C9.56024 34.8729 9.15904 35.0595 8.76866 35.1829C8.70519 35.2028 8.73559 35.296 8.79928 35.2809C9.1921 35.1885 9.65464 35.0926 10.0066 34.8933C10.067 34.8597 10.0183 34.7784 9.95869 34.7909ZM8.67181 34.8735C9.02585 34.7822 9.41254 34.6979 9.7462 34.5495C9.82249 34.5158 9.78971 34.4112 9.70793 34.4269C9.34914 34.4953 8.98332 34.6464 8.64042 34.7732C8.5769 34.7967 8.60616 34.8903 8.67181 34.8735ZM10.1452 35.1017C9.75627 35.183 9.36968 35.342 8.99573 35.475C8.93106 35.4987 8.96104 35.5946 9.02774 35.5773C9.41074 35.4733 9.81902 35.3835 10.1849 35.2286C10.2637 35.1955 10.2289 35.0841 10.1452 35.1017Z" fill="white"/>
    <path d="M8.76867 35.1828C9.15906 35.0595 9.56025 34.8729 9.9587 34.7909C10.0183 34.7784 10.067 34.8596 10.0066 34.8933C9.65465 35.0925 9.19211 35.1884 8.7993 35.2808C8.73561 35.2959 8.7052 35.2028 8.76867 35.1828Z" fill="white"/>
    <path d="M9.7462 34.5493C9.41253 34.6978 9.02585 34.7821 8.6718 34.8733C8.60616 34.8901 8.5769 34.7966 8.64042 34.7731C8.98332 34.6463 9.34914 34.4951 9.70793 34.4268C9.78971 34.411 9.82249 34.5157 9.7462 34.5493Z" fill="white"/>
    <path d="M9.02772 35.5774C8.96102 35.5946 8.93104 35.4988 8.99571 35.475C9.36966 35.342 9.75625 35.1831 10.1451 35.1018C10.2289 35.0841 10.2637 35.1955 10.1849 35.2287C9.819 35.3836 9.41072 35.4734 9.02772 35.5774Z" fill="white"/>
    <path d="M8.2724 37.2063C9.0364 36.9548 9.81828 36.6406 10.6005 36.4248C10.7175 36.3923 10.8181 36.451 10.7007 36.5034C10.0167 36.8122 9.10872 37.0634 8.33822 37.2869C8.2133 37.3233 8.14818 37.2471 8.2724 37.2063Z" fill="#171717"/>
    <path d="M11.0774 36.9606C10.7437 37.1091 10.357 37.1934 10.003 37.2846C9.93733 37.3015 9.90807 37.2079 9.97159 37.1844C10.3145 37.0576 10.6803 36.9065 11.0391 36.8381C11.1209 36.8224 11.1537 36.927 11.0774 36.9606Z" fill="#171717"/>
    <path d="M12.7145 25.5841C12.01 25.4183 11.3186 25.2008 10.646 24.9224C10.0338 24.669 9.80257 25.1839 9.46674 25.6104C9.1422 26.0224 8.81766 26.4344 8.4928 26.8454C8.43877 26.9149 8.38441 26.9831 8.32924 27.053C8.4544 27.004 8.57938 26.954 8.70384 26.9064C10.0139 26.406 11.3552 25.9544 12.7145 25.5841ZM13.1346 25.6763C11.9121 26.0075 10.7012 26.3682 9.50672 26.8007C9.07737 26.9557 8.65119 27.1172 8.22605 27.2857C8.19035 27.3006 8.15175 27.3139 8.11348 27.3282C7.67974 27.8796 7.24422 28.4289 6.7956 28.9678C9.63952 27.9202 12.5144 26.94 15.382 25.9605L15.37 25.9497C14.617 25.9177 13.8693 25.8253 13.1346 25.6763ZM10.978 24.9248C11.4634 25.1127 11.9604 25.2713 12.4642 25.4009C12.6279 25.4437 12.7924 25.4815 12.9578 25.5177C13.4646 25.3835 13.9735 25.2598 14.4839 25.1526C14.5456 25.1393 14.5869 25.1888 14.5894 25.2357C15.3605 25.6141 16.0238 26.2657 16.3966 27.0426C16.404 27.0586 16.4053 27.0741 16.4009 27.0876C16.4249 27.0936 16.4452 27.108 16.4506 27.1369C16.8579 29.2742 17.3913 31.3575 17.8872 33.4733C17.9762 33.4688 18.0135 33.6074 17.9166 33.634C14.7881 34.5299 11.7063 35.5519 8.61855 36.5781C8.55211 36.6 8.51003 36.5399 8.51804 36.4873C8.50523 36.4814 8.49328 36.4706 8.48728 36.4552C7.64341 34.5009 6.89974 32.4994 6.11018 30.5232C6.10419 30.5079 6.10634 30.4914 6.1114 30.4764C6.1039 30.4639 6.10083 30.4503 6.10374 30.4323C6.21297 29.9104 6.3601 29.3962 6.49875 28.8823C6.58708 28.5515 6.63431 28.0735 6.82191 27.7826C6.93778 27.6021 7.13847 27.5404 7.32852 27.4602C7.58844 27.3495 7.84977 27.2433 8.11146 27.1382C8.27842 26.9259 8.44655 26.7131 8.61357 26.5008C8.93772 26.0876 9.26112 25.676 9.58567 25.264C9.72807 25.0825 9.91079 24.6977 10.1667 24.6446C10.4204 24.592 10.7567 24.8389 10.978 24.9248ZM8.5976 36.4135C11.5967 35.2952 14.678 34.3616 17.7612 33.5043C17.0635 31.5054 16.6176 29.3226 16.3109 27.2295C13.6908 28.2584 11.0297 29.1792 8.33051 29.9787C7.99704 30.0769 7.66432 30.1737 7.32982 30.2686C7.08867 30.338 6.40978 30.4025 6.35177 30.6858C6.3121 30.8756 6.66013 31.4681 6.72746 31.6403C6.85291 31.9591 6.97837 32.278 7.10452 32.5954C7.6061 33.8661 8.13211 35.1291 8.5976 36.4135ZM14.527 25.3102C14.15 25.4061 13.7738 25.5043 13.3993 25.6045C13.9998 25.7148 14.6065 25.7828 15.2176 25.814C15.0081 25.6326 14.781 25.4654 14.5289 25.3121L14.527 25.3102ZM7.90436 27.4023C7.58166 27.5155 7.23695 27.6442 7.03603 27.8768C6.78871 28.1645 6.72114 28.6441 6.62882 29.0286L6.6663 29.0157C7.06892 28.4705 7.48461 27.9357 7.90436 27.4023ZM6.23973 30.3983C9.63703 29.4549 12.9819 28.3519 16.2642 27.0607L16.2712 27.0598C16.0362 26.6799 15.7774 26.349 15.4796 26.0534C12.5697 27.0778 9.65304 28.1079 6.71859 29.0617C6.7005 29.0819 6.68394 29.103 6.66731 29.1241C6.64389 29.151 6.61038 29.126 6.61242 29.0973C6.6085 29.1119 6.60453 29.1267 6.60135 29.1399C6.48622 29.5609 6.37506 29.9831 6.23973 30.3983Z" fill="#171717"/>
    <circle cx="12.1526" cy="31.9772" r="0.586422" transform="rotate(-20.3119 12.1526 31.9772)" stroke="#FFD037" stroke-width="0.6"/>
    <path d="M11.713 30.7896L11.4932 30.1958" stroke="#FFD037" stroke-width="0.6" stroke-linecap="round" stroke-linejoin="round"/>
    <path d="M12.812 33.7589L12.5922 33.1651" stroke="#FFD037" stroke-width="0.6" stroke-linecap="round" stroke-linejoin="round"/>
    <path d="M13.3402 31.5378L13.934 31.3181" stroke="#FFD037" stroke-width="0.6" stroke-linecap="round" stroke-linejoin="round"/>
    <path d="M10.3712 32.6369L10.965 32.4171" stroke="#FFD037" stroke-width="0.6" stroke-linecap="round" stroke-linejoin="round"/>
    <path d="M12.6815 30.8264L12.946 30.2511" stroke="#FFD037" stroke-width="0.6" stroke-linecap="round" stroke-linejoin="round"/>
    <path d="M11.3592 33.7033L11.6237 33.128" stroke="#FFD037" stroke-width="0.6" stroke-linecap="round" stroke-linejoin="round"/>
    <path d="M13.3032 32.5064L13.8785 32.7709" stroke="#FFD037" stroke-width="0.6" stroke-linecap="round" stroke-linejoin="round"/>
    <path d="M10.4268 31.1838L11.0021 31.4482" stroke="#FFD037" stroke-width="0.6" stroke-linecap="round" stroke-linejoin="round"/>
    <path d="M29.2879 1.9561C29.2245 1.79305 28.5004 1.16506 28.7451 1.06448C28.8793 0.98531 29.19 1.48965 29.3462 1.57242C29.4305 1.66399 29.6456 1.78636 29.4891 1.94382C29.4314 1.99789 29.337 2.01213 29.2879 1.9561Z" fill="#231F20"/>
    <path d="M33.0446 0.874478C33.01 0.627814 33.0071 0.356345 32.8878 0.140086C32.5383 0.538736 32.9256 -0.587404 33.1762 0.59964C33.1756 0.59604 33.175 0.592453 33.1744 0.588913C33.1752 0.593809 33.1761 0.598358 33.1769 0.603239C33.1766 0.601884 33.1763 0.600512 33.1761 0.599156C33.1769 0.602424 33.1775 0.606027 33.1782 0.609627C33.1781 0.609567 33.1781 0.609173 33.178 0.609113C33.1795 0.616824 33.181 0.624521 33.1823 0.632565C33.1822 0.631676 33.1821 0.630804 33.1819 0.6299C33.1826 0.6335 33.1832 0.637098 33.1838 0.640683C33.1837 0.639358 33.1835 0.638049 33.1833 0.636708C33.1839 0.640278 33.1846 0.6435 33.1852 0.64707C33.1848 0.645685 33.1846 0.644313 33.1842 0.642927C33.1862 0.652898 33.188 0.662812 33.1898 0.672723C33.1893 0.668775 33.1885 0.665522 33.188 0.66159C33.1989 0.719821 33.2078 0.7783 33.217 0.83696C33.2279 0.937445 33.0588 0.979048 33.0446 0.874478Z" fill="#231F20"/>
    <path d="M42.2585 2.43066C42.26 2.07078 42.641 1.80552 42.786 1.48649C42.8775 1.33416 43.1619 1.45113 43.0458 1.62185C42.8857 1.89174 42.6752 2.12983 42.5401 2.41433C42.4898 2.51859 42.3152 2.5385 42.2585 2.43066Z" fill="#231F20"/>
    <path d="M46.4061 7.20974C46.2685 6.9416 46.8501 6.86161 47.0393 6.7988C47.3421 6.81502 47.1932 7.08142 46.9564 7.06899C46.7545 7.06064 46.5802 7.32632 46.4061 7.20974Z" fill="#231F20"/>
    <path d="M0.898496 15.6257C0.812183 15.5533 0.2089 15.4232 0.315879 15.2906C0.367098 15.2043 0.698727 15.3928 0.812534 15.3911C0.888479 15.4167 1.04783 15.4191 1.00827 15.5565C0.992465 15.6049 0.943608 15.6421 0.898496 15.6257Z" fill="#231F20"/>
    <path d="M1.65984 13.8731C1.56384 13.7446 1.47813 13.5923 1.34379 13.5072C1.27002 13.8405 1.13973 13.0848 1.64897 13.6772C1.64748 13.6754 1.64602 13.6735 1.64463 13.6717C1.64659 13.6742 1.64851 13.6765 1.65045 13.679C1.64989 13.6784 1.6493 13.6777 1.64873 13.677C1.65021 13.6786 1.65169 13.6804 1.65317 13.6822C1.65309 13.6822 1.65299 13.682 1.6529 13.682C1.65614 13.6859 1.65936 13.6898 1.66262 13.6939C1.66226 13.6934 1.66193 13.693 1.66155 13.6925C1.66304 13.6944 1.66452 13.6962 1.66598 13.698C1.66546 13.6973 1.66496 13.6966 1.66442 13.696C1.66586 13.6978 1.66727 13.6994 1.66871 13.7012C1.6681 13.7005 1.66751 13.6998 1.6669 13.6992C1.67109 13.7042 1.67518 13.7092 1.67928 13.7143C1.67776 13.7122 1.67631 13.7106 1.67482 13.7085C1.69901 13.738 1.72213 13.7683 1.74552 13.7985C1.78278 13.8519 1.70025 13.9277 1.65984 13.8731Z" fill="#231F20"/>
    <path d="M10.5326 11.5573C10.422 11.3537 10.5549 11.0859 10.5379 10.8609C10.5424 10.7466 10.7391 10.7245 10.7265 10.8568C10.7197 11.0588 10.6746 11.2584 10.6866 11.4608C10.6904 11.5353 10.5981 11.6006 10.5326 11.5573Z" fill="#231F20"/>
    <path d="M2.9442 12.9034C2.76877 12.752 2.7985 12.4545 2.70311 12.25C2.66691 12.1415 2.8432 12.0513 2.8781 12.1796C2.9431 12.3709 2.97147 12.5736 3.05412 12.7588C3.08404 12.827 3.02073 12.9208 2.9442 12.9034Z" fill="#231F20"/>
    <path d="M12.5649 12.0145C12.4211 11.8843 12.7532 11.7038 12.8529 11.6229C13.039 11.5638 13.0099 11.7581 12.8644 11.8045C12.7409 11.8454 12.6963 12.0451 12.5649 12.0145Z" fill="#231F20"/>
    <path d="M0.0294314 17.3061C-0.0111196 17.1163 0.363834 17.1641 0.492029 17.1568C0.677544 17.2176 0.540314 17.3583 0.395204 17.3109C0.271082 17.2718 0.118154 17.4078 0.0294314 17.3061Z" fill="#231F20"/>
    <path d="M41.467 15.0304C41.1692 15.0826 40.7132 15.1476 40.3848 15.328C41.4258 11.7421 40.7909 7.45152 38.3675 4.53514C41.3192 5.51065 43.8656 7.39302 45.4223 10.2899C46.4887 12.2717 46.985 14.5151 46.8339 16.7577C45.9256 15.7681 44.5942 15.1682 43.2766 14.9951C42.675 14.9159 42.0644 14.925 41.467 15.0304Z" fill="#ED7A5D"/>
    <path d="M38.1526 4.46768C40.4311 7.69786 41.3399 11.5794 40.1586 15.4347C40.1526 15.4573 40.1549 15.4762 40.1613 15.4916L40.1377 15.517C39.6991 13.8124 37.8521 12.685 36.2673 12.2131C34.5464 11.7009 32.5942 11.7975 30.9919 12.6398C31.7464 9.00315 33.9416 5.8779 37.3265 4.23287C37.6059 4.30328 37.8803 4.38109 38.1526 4.46768Z" fill="#ED7A5D"/>
    <path d="M37.049 4.16623C33.9017 5.76835 31.4518 8.87703 30.8964 12.3953C30.4833 11.2528 29.1815 10.5942 28.0521 10.2982C26.6468 9.92977 25.0228 10.046 23.7374 10.7612C25.517 6.61866 29.1965 3.56653 33.873 3.74518C34.9536 3.78691 36.0196 3.92616 37.049 4.16623Z" fill="#ED7A5D"/>
    <path d="M34.6833 3.56001C37.221 3.7917 39.8199 4.46472 41.9267 5.94651C45.4311 8.41357 47.4761 12.772 47.0379 17.044C47.0338 17.0808 47.0145 17.1073 46.9915 17.1253L46.9708 17.1622C46.0103 18.0025 44.8807 18.5858 43.733 19.1294C42.4412 19.7396 41.1488 20.3467 39.8712 20.9883C37.2151 22.3242 34.61 23.7573 32.0573 25.2808C31.9528 25.3416 31.8602 25.1921 31.9419 25.1203L31.9588 25.1082C34.4354 23.6354 36.9593 22.2453 39.532 20.9474C41.962 19.7226 44.6555 18.7715 46.8282 17.1066L46.8163 17.0836L46.7816 17.0605C45.9073 16.2137 44.9496 15.6051 43.748 15.3408C43.1532 15.2088 42.5395 15.1686 41.9331 15.223C41.6874 15.2455 41.3276 15.2745 40.9906 15.3539C40.6524 15.4315 40.3378 15.5563 40.1842 15.7693C38.9526 17.3589 37.5262 18.8181 36.1924 20.3208C34.7943 21.8985 33.4223 23.503 31.9885 25.0497L31.9475 25.0717L31.9263 25.1055C31.882 25.1509 31.7956 25.1622 31.7531 25.0901C30.3468 22.7862 28.9662 20.4668 27.5741 18.155C26.1844 15.8467 24.7186 13.5661 23.4312 11.1993C23.4121 11.1638 23.4265 11.1328 23.4507 11.1168L23.4603 11.0708C23.4082 11.0505 23.385 10.9744 23.4476 10.9339C23.4659 10.9222 23.4839 10.912 23.5022 10.9003C24.3082 8.61971 25.8482 6.58951 27.8403 5.21342C29.8803 3.80633 32.2348 3.33593 34.6833 3.56001ZM38.3675 4.53533C40.7909 7.45171 41.4259 11.7422 40.3848 15.3281C40.7133 15.1477 41.1692 15.0828 41.467 15.0305C42.0644 14.9252 42.675 14.9161 43.2767 14.9952C44.5942 15.1684 45.9257 15.7683 46.8339 16.7579C46.985 14.5153 46.4887 12.2719 45.4223 10.2901C43.8656 7.39321 41.3192 5.51084 38.3675 4.53533ZM36.2673 12.213C37.8521 12.685 39.6991 13.8124 40.1378 15.5169L40.1614 15.4916C40.1549 15.4762 40.1526 15.4573 40.1586 15.4346C41.3399 11.5794 40.4311 7.69784 38.1526 4.46766C37.8804 4.38107 37.606 4.30325 37.3265 4.23285C33.9416 5.87787 31.7465 9.00313 30.9919 12.6397C32.5942 11.7974 34.5464 11.7009 36.2673 12.213ZM23.5426 11.1357C25.0345 13.381 26.3661 15.7416 27.7592 18.0493C29.0855 20.2463 30.4203 22.4393 31.7353 24.6439C31.4058 20.7795 31.0233 16.8747 30.9792 12.9972C30.9123 13.0534 30.7696 13.0204 30.7552 12.9013C30.574 11.4263 28.8312 10.6883 27.5478 10.4518C26.1487 10.1941 24.829 10.4845 23.5504 11.0575C23.5379 11.0755 23.5268 11.0936 23.5182 11.1139L23.5426 11.1357ZM33.873 3.74529C29.1965 3.56665 25.517 6.61877 23.7374 10.7613C25.0228 10.0461 26.6468 9.92988 28.0521 10.2983C29.1815 10.5943 30.4833 11.2529 30.8963 12.3954C31.4518 8.87714 33.9017 5.76846 37.049 4.16634C36.0196 3.92627 34.9536 3.78702 33.873 3.74529ZM35.9945 12.4071C34.3138 11.9589 32.6176 12.1615 31.0403 12.8623L31.0097 12.8691L31.0147 12.8948C31.0401 12.8911 31.0678 12.9061 31.0709 12.9389C31.4524 16.9024 31.6033 20.8939 31.9389 24.8648C33.255 23.3208 34.6309 21.825 35.9791 20.3081C37.3058 18.8142 38.5801 17.2345 39.9964 15.8241C39.9618 15.8116 39.933 15.7841 39.9232 15.7359C39.5663 13.9719 37.6089 12.8371 35.9945 12.4071Z" fill="#171717"/>
    <path d="M36.0939 30.002C35.497 29.5281 34.9318 29.0372 34.404 28.5156C34.7588 28.6049 35.1135 28.694 35.4687 28.782C35.5057 28.7905 35.5358 28.7806 35.5578 28.7607C35.8137 29.0899 35.9615 29.5595 36.0939 30.002Z" fill="white"/>
    <path d="M25.3651 27.7634C25.7748 27.3066 26.1535 26.908 26.2477 26.8518C26.7176 26.5693 27.2223 26.698 27.7128 26.8349C26.9541 27.1085 26.1978 27.3843 25.4476 27.6828C25.4187 27.6947 25.4179 27.7248 25.4329 27.7425L25.4286 27.7413C25.4 27.7351 25.3774 27.7456 25.3651 27.7634Z" fill="white"/>
    <path d="M33.9976 28.4154C34.6461 29.0958 35.3604 29.7338 36.1386 30.2555C34.3631 29.8375 32.5667 29.5019 30.7885 29.0832C29.0099 28.666 27.2494 28.1824 25.4741 27.7523C26.3646 27.5678 27.2463 27.2655 28.1093 26.9432C28.5918 27.0643 29.0744 27.1852 29.5569 27.3063C31.0377 27.6757 32.5182 28.0464 33.9976 28.4154Z" fill="white"/>
    <path d="M24.2123 29.1309C24.3929 28.8752 24.897 28.2835 25.3627 27.7661C25.3422 27.7969 25.3483 27.8471 25.3959 27.8617C28.8862 28.9189 32.5484 29.8139 36.1489 30.4009C36.175 30.405 36.1955 30.397 36.2103 30.3814C36.231 30.4446 36.2511 30.5046 36.2718 30.5618C36.4584 31.0784 36.6478 31.5956 36.8734 32.097C36.8613 32.08 36.8442 32.0646 36.8188 32.0578C34.6788 31.4478 32.5242 30.8855 30.3575 30.3791C28.3306 29.9046 26.278 29.402 24.2123 29.1309Z" fill="white"/>
    <path d="M22.5733 37.935C22.983 36.5063 23.2492 35.0261 23.5084 33.5651C23.7524 32.182 24.0118 30.7712 24.105 29.3682L24.1023 29.3448C24.1487 29.3528 24.1762 29.2906 24.1448 29.2563L24.145 29.2442C26.2304 29.7542 28.353 30.1167 30.4448 30.609C32.5638 31.1069 34.6706 31.6607 36.7634 32.2608L36.7903 32.2622C36.2755 33.6927 35.7906 35.1359 35.3074 36.5781C34.8393 37.9819 34.1511 39.4865 33.9354 40.9546C33.925 40.9427 33.9128 40.9318 33.8931 40.9263C31.9752 40.4134 30.0577 39.9052 28.1379 39.3995C26.2877 38.9111 24.442 38.3452 22.5733 37.935ZM25.1178 37.8245C24.5945 37.5587 23.8833 37.4754 23.3015 37.4621C23.1884 37.46 23.1566 37.6486 23.2748 37.6655C23.5704 37.71 23.8667 37.7468 24.1614 37.8059C24.4543 37.8662 24.7423 37.9721 25.0374 38.0133C25.1425 38.0283 25.2309 37.8826 25.1178 37.8245ZM23.3466 37.0134C23.9773 37.2142 24.6253 37.4292 25.2734 37.5606C25.3927 37.584 25.4382 37.4175 25.3233 37.3771C24.6985 37.161 24.0311 37.0167 23.386 36.8694C23.2929 36.8486 23.2561 36.9841 23.3466 37.0134ZM25.3483 37.0805C25.4733 37.1056 25.5211 36.9307 25.4005 36.8886C24.7749 36.6754 24.1095 36.5241 23.4647 36.3754C23.359 36.3511 23.3167 36.5063 23.4199 36.5391C24.051 36.7386 24.7006 36.9476 25.3483 37.0805Z" fill="white"/>
    <path d="M25.2734 37.5605C24.6253 37.429 23.9773 37.2143 23.3466 37.0132C23.2561 36.984 23.2929 36.8484 23.386 36.8693C24.0311 37.0165 24.6985 37.1608 25.3233 37.3769C25.4382 37.4173 25.3928 37.5839 25.2734 37.5605Z" fill="white"/>
    <path d="M25.3483 37.0804C24.7006 36.9476 24.051 36.7386 23.4199 36.539C23.3168 36.5063 23.3591 36.351 23.4648 36.3754C24.1095 36.524 24.775 36.6754 25.4006 36.8885C25.5211 36.9307 25.4733 37.1056 25.3483 37.0804Z" fill="white"/>
    <path d="M23.3015 37.4623C23.8833 37.4756 24.5945 37.5589 25.1178 37.8247C25.2309 37.8828 25.1426 38.0285 25.0374 38.0135C24.7424 37.9723 24.4543 37.8664 24.1614 37.8062C23.8667 37.7471 23.5705 37.7102 23.2748 37.6657C23.1566 37.6488 23.1884 37.4602 23.3015 37.4623Z" fill="white"/>
    <path d="M31.9212 41.9978C31.2731 41.8663 30.6251 41.6516 29.9944 41.4505C29.9039 41.4213 29.9407 41.2857 30.0338 41.3066C30.6789 41.4538 31.3463 41.5982 31.9711 41.8142C32.086 41.8546 32.0406 42.0212 31.9212 41.9978Z" fill="#171717"/>
    <path d="M33.9811 41.9135C32.8355 41.6465 31.6952 41.3115 30.5869 40.9892C30.4058 40.9364 30.4993 40.8084 30.686 40.8543C31.8245 41.1346 32.9997 41.4221 34.0966 41.7552C34.3078 41.8203 34.2022 41.9646 33.9811 41.9135Z" fill="#171717"/>
    <path d="M37.0058 32.1554C37.0242 32.177 37.0324 32.208 37.0193 32.2453C36.5056 33.7552 35.9781 35.2596 35.4726 36.7729C35.0086 38.1613 34.6921 39.743 34.0177 41.0418C33.9992 41.0763 33.966 41.0703 33.9457 41.0496C33.9301 41.0847 33.894 41.1113 33.8461 41.0982C31.9278 40.5868 30.0131 40.0687 28.0968 39.5501C26.1861 39.0331 24.2368 38.5906 22.3527 37.9823C22.2942 37.9632 22.3188 37.8789 22.3777 37.8904L22.4091 37.8975C22.6874 36.4783 23.0312 35.0739 23.2842 33.6477C23.5377 32.2186 23.6877 30.775 23.9248 29.3445C23.9307 29.3067 23.9574 29.2866 23.9894 29.2801L23.9796 29.2548C23.9541 28.9823 24.2569 28.7725 24.4202 28.5911C24.8607 28.1047 25.3005 27.6213 25.7422 27.1366C25.9544 26.9036 26.1873 26.5395 26.5102 26.4396C26.9444 26.3047 27.5491 26.6003 27.9597 26.7017C27.984 26.7068 28.008 26.7134 28.0324 26.7185C29.2885 26.2668 30.5422 25.8128 31.7675 25.2572C31.8106 25.2385 31.8615 25.2463 31.8874 25.2899C32.5211 26.3909 33.2727 27.3543 34.1244 28.2342C34.5815 28.3485 35.04 28.463 35.4971 28.5771C35.5289 28.5388 35.5863 28.5227 35.6374 28.5638C36.0225 28.8692 36.1236 29.5216 36.2798 29.96C36.5382 30.6857 36.8122 31.4094 37.0058 32.1554ZM36.8188 32.0573C36.8442 32.0641 36.8613 32.0795 36.8734 32.0965C36.6478 31.5951 36.4584 31.0779 36.2718 30.5612C36.2511 30.5041 36.231 30.444 36.2103 30.3808C36.1955 30.3964 36.175 30.4044 36.1489 30.4003C32.5484 29.8133 28.8862 28.9184 25.3959 27.8611C25.3483 27.8465 25.3422 27.7964 25.3627 27.7656C24.897 28.283 24.3929 28.8747 24.2123 29.1304C26.278 29.4014 28.3306 29.904 30.3575 30.3785C32.5242 30.885 34.6788 31.4472 36.8188 32.0573ZM36.7903 32.2618L36.7634 32.2605C34.6706 31.6604 32.5638 31.1065 30.4448 30.6086C28.353 30.1164 26.2304 29.7538 24.145 29.2439L24.1448 29.2559C24.1762 29.2903 24.1487 29.3525 24.1023 29.3445L24.105 29.3679C24.0118 30.7709 23.7524 32.1817 23.5084 33.5648C23.2492 35.0257 22.983 36.506 22.5733 37.9347C24.442 38.3448 26.2877 38.9108 28.1379 39.3991C30.0577 39.9048 31.9752 40.4131 33.8931 40.926C33.9128 40.9314 33.9251 40.9424 33.9354 40.9543C34.1511 39.4861 34.8393 37.9815 35.3074 36.5777C35.7906 35.1355 36.2755 33.6923 36.7903 32.2618ZM25.4476 27.6825C26.198 27.3839 26.9541 27.1082 27.7128 26.8343C27.2223 26.6976 26.7175 26.5689 26.2477 26.8515C26.1535 26.9077 25.7748 27.3063 25.3651 27.763C25.3773 27.7453 25.4 27.7348 25.4286 27.741L25.4329 27.7422C25.4179 27.7246 25.4187 27.6944 25.4476 27.6825ZM25.4741 27.7519C27.2494 28.182 29.0099 28.6656 30.7885 29.0828C32.5667 29.5015 34.3631 29.8371 36.1386 30.2551C35.3604 29.7334 34.6461 29.0954 33.9976 28.415C32.5181 28.046 31.0377 27.6753 29.5569 27.3059C29.0744 27.1848 28.5917 27.0639 28.1092 26.9428C27.2463 27.2651 26.3646 27.5674 25.4741 27.7519ZM31.3587 25.6324C31.0241 25.72 30.6816 25.9298 30.3604 26.062C29.9362 26.2387 29.5087 26.4102 29.0789 26.5734C28.8657 26.6547 28.652 26.7374 28.4371 26.8199C30.2059 27.2558 31.9738 27.6958 33.74 28.1369C33.0767 27.4054 32.6073 26.5478 31.9828 25.7966C31.7246 25.4865 31.7061 25.5437 31.3587 25.6324ZM34.404 28.5152C34.9318 29.0369 35.4969 29.5278 36.0939 30.0017C35.9615 29.5592 35.8137 29.0896 35.5578 28.7604C35.5358 28.7803 35.5057 28.7902 35.4687 28.7816C35.1135 28.6937 34.7588 28.6046 34.404 28.5152Z" fill="#171717"/>
    <circle cx="29.1425" cy="35.3796" r="0.7617" transform="rotate(-26.9508 29.1425 35.3796)" stroke="#FFD037" stroke-width="0.7"/>
    <path d="M28.4227 33.9639L28.0628 33.256" stroke="#FFD037" stroke-width="0.7" stroke-linecap="round" stroke-linejoin="round"/>
    <path d="M30.2222 37.5033L29.8623 36.7955" stroke="#FFD037" stroke-width="0.7" stroke-linecap="round" stroke-linejoin="round"/>
    <path d="M30.5581 34.6599L31.2659 34.3" stroke="#FFD037" stroke-width="0.7" stroke-linecap="round" stroke-linejoin="round"/>
    <path d="M27.0189 36.4596L27.7268 36.0997" stroke="#FFD037" stroke-width="0.7" stroke-linecap="round" stroke-linejoin="round"/>
    <path d="M29.6345 33.8696L29.8806 33.1146" stroke="#FFD037" stroke-width="0.7" stroke-linecap="round" stroke-linejoin="round"/>
    <path d="M28.4044 37.6446L28.6504 36.8896" stroke="#FFD037" stroke-width="0.7" stroke-linecap="round" stroke-linejoin="round"/>
    <path d="M30.6524 35.8715L31.4074 36.1175" stroke="#FFD037" stroke-width="0.7" stroke-linecap="round" stroke-linejoin="round"/>
    <path d="M26.8775 34.6417L27.6325 34.8877" stroke="#FFD037" stroke-width="0.7" stroke-linecap="round" stroke-linejoin="round"/>
    <path d="M34.1419 25.0375C34.132 24.8997 34.3003 24.9223 34.3921 24.9062C34.6159 24.8637 34.8227 24.7624 35.0188 24.6499C35.0167 24.6509 35.0148 24.6521 35.0128 24.6535C35.1455 24.5735 35.2789 24.4919 35.3942 24.3878C35.3608 24.4223 35.2927 24.3914 35.3384 24.3498C35.3787 24.3247 35.4333 24.3046 35.4805 24.3203C35.5551 24.5196 34.7784 24.9541 34.5923 25.0251C34.5967 25.0232 34.6009 25.0215 34.6053 25.0197C34.4764 25.0534 34.2201 25.2011 34.1419 25.0375Z" fill="#231F20"/>
    <path d="M33.0673 25.4903C32.9275 25.33 33.2305 25.3207 33.3307 25.3119C33.3982 25.3094 33.4704 25.271 33.5356 25.2971C33.6745 25.4603 33.2368 25.4517 33.1477 25.4924C33.1514 25.4919 33.1549 25.491 33.1586 25.4904C33.1287 25.497 33.0958 25.507 33.0673 25.4903Z" fill="#231F20"/>
</svg>
