<svg width="23" height="21" viewBox="0 0 23 21" fill="none" xmlns="http://www.w3.org/2000/svg">
<path d="M17 3V1" stroke="#3B211B" stroke-width="2" stroke-linecap="round" stroke-linejoin="round"/>
<path d="M4 11L2 10L7 3L11.5 2L16 3L21 10L19 11" stroke="#3B211B" stroke-width="3" stroke-linecap="round" stroke-linejoin="round"/>
<mask id="path-3-inside-1" fill="white">
<path fill-rule="evenodd" clip-rule="evenodd" d="M11.4375 2.875C11.4375 2.875 7.29637 2.88592 5.57812 4.75C4.35152 6.08072 3.625 8.5 3.625 8.5V21H19.25V8.5C19.25 8.5 18.5235 6.08072 17.2969 4.75C15.5786 2.88592 11.4375 2.875 11.4375 2.875Z"/>
</mask>
<path fill-rule="evenodd" clip-rule="evenodd" d="M11.4375 2.875C11.4375 2.875 7.29637 2.88592 5.57812 4.75C4.35152 6.08072 3.625 8.5 3.625 8.5V21H19.25V8.5C19.25 8.5 18.5235 6.08072 17.2969 4.75C15.5786 2.88592 11.4375 2.875 11.4375 2.875Z" fill="#3B211B"/>
<path d="M5.57812 4.75L4.84284 4.07224V4.07224L5.57812 4.75ZM11.4375 2.875L11.4401 1.87499L11.4349 1.875L11.4375 2.875ZM3.625 8.5L2.66725 8.21239L2.625 8.35309V8.5H3.625ZM3.625 21H2.625V22H3.625V21ZM19.25 21V22H20.25V21H19.25ZM19.25 8.5H20.25V8.35309L20.2077 8.21239L19.25 8.5ZM17.2969 4.75L16.5616 5.42776V5.42776L17.2969 4.75ZM6.31341 5.42776C6.93933 4.74871 8.12117 4.32552 9.33747 4.09615C9.91585 3.98708 10.448 3.93139 10.836 3.9032C11.0293 3.88917 11.1848 3.88209 11.29 3.87854C11.3425 3.87676 11.3824 3.87587 11.408 3.87543C11.4208 3.8752 11.43 3.87509 11.4354 3.87504C11.4381 3.87501 11.4399 3.875 11.4407 3.875C11.4411 3.87499 11.4412 3.87499 11.4411 3.87499C11.4411 3.87499 11.441 3.87499 11.4408 3.87499C11.4407 3.87499 11.4406 3.875 11.4405 3.875C11.4403 3.875 11.4401 3.875 11.4375 2.875C11.4349 1.875 11.4346 1.875 11.4344 1.875C11.4343 1.87501 11.434 1.87501 11.4338 1.87501C11.4334 1.87501 11.4329 1.87501 11.4323 1.87501C11.4312 1.87502 11.4299 1.87502 11.4283 1.87503C11.4251 1.87505 11.4209 1.87509 11.4157 1.87514C11.4054 1.87524 11.3911 1.87542 11.3732 1.87573C11.3373 1.87635 11.2865 1.87752 11.2224 1.87968C11.0945 1.884 10.913 1.89235 10.6912 1.90846C10.249 1.94057 9.63851 2.00412 8.96684 2.13079C7.68301 2.3729 5.93516 2.88721 4.84284 4.07224L6.31341 5.42776ZM3.625 8.5C4.58275 8.78761 4.5827 8.78775 4.58267 8.78788C4.58266 8.78791 4.58262 8.78803 4.5826 8.78809C4.58257 8.78821 4.58254 8.7883 4.58252 8.78835C4.58249 8.78845 4.58251 8.78841 4.58256 8.78823C4.58267 8.78786 4.58296 8.78692 4.58342 8.78542C4.58433 8.78244 4.58593 8.77723 4.58821 8.7699C4.59278 8.75525 4.60005 8.73217 4.60998 8.7015C4.62986 8.64011 4.66029 8.54858 4.70081 8.43364C4.78207 8.20311 4.90271 7.88179 5.0588 7.52241C5.38058 6.78158 5.81545 5.96799 6.31341 5.42776L4.84284 4.07224C4.1142 4.86273 3.5725 5.92413 3.22437 6.72563C3.04551 7.13741 2.90785 7.50408 2.81456 7.76875C2.7678 7.90141 2.73189 8.00928 2.70724 8.0854C2.69491 8.12347 2.68538 8.15367 2.67871 8.17511C2.67537 8.18583 2.67274 8.19437 2.67083 8.20061C2.66987 8.20374 2.6691 8.20629 2.6685 8.20826C2.6682 8.20924 2.66795 8.21008 2.66774 8.21077C2.66764 8.21111 2.66755 8.21142 2.66746 8.21169C2.66742 8.21182 2.66737 8.212 2.66735 8.21206C2.6673 8.21223 2.66725 8.21239 3.625 8.5ZM4.625 21V8.5H2.625V21H4.625ZM19.25 20H3.625V22H19.25V20ZM18.25 8.5V21H20.25V8.5H18.25ZM16.5616 5.42776C17.0596 5.96799 17.4944 6.78158 17.8162 7.52241C17.9723 7.88179 18.0929 8.20311 18.1742 8.43364C18.2147 8.54858 18.2451 8.64011 18.265 8.7015C18.2749 8.73217 18.2822 8.75525 18.2868 8.7699C18.2891 8.77723 18.2907 8.78243 18.2916 8.78542C18.292 8.78692 18.2923 8.78786 18.2924 8.78823C18.2925 8.78841 18.2925 8.78845 18.2925 8.78835C18.2925 8.7883 18.2924 8.78821 18.2924 8.78809C18.2924 8.78803 18.2923 8.78791 18.2923 8.78788C18.2923 8.78775 18.2923 8.78761 19.25 8.5C20.2077 8.21239 20.2077 8.21223 20.2076 8.21206C20.2076 8.212 20.2076 8.21182 20.2075 8.21169C20.2075 8.21142 20.2074 8.21111 20.2073 8.21077C20.2071 8.21008 20.2068 8.20924 20.2065 8.20826C20.2059 8.20629 20.2051 8.20374 20.2042 8.20061C20.2023 8.19437 20.1996 8.18583 20.1963 8.17511C20.1896 8.15367 20.1801 8.12348 20.1678 8.0854C20.1431 8.00928 20.1072 7.90141 20.0604 7.76875C19.9671 7.50408 19.8295 7.13741 19.6506 6.72563C19.3025 5.92413 18.7608 4.86273 18.0322 4.07224L16.5616 5.42776ZM11.4375 2.875C11.4349 3.875 11.4347 3.875 11.4345 3.875C11.4344 3.875 11.4343 3.87499 11.4342 3.87499C11.434 3.87499 11.4339 3.87499 11.4339 3.87499C11.4338 3.87499 11.4339 3.87499 11.4343 3.875C11.4351 3.875 11.4369 3.87501 11.4396 3.87504C11.445 3.87509 11.4542 3.8752 11.467 3.87543C11.4926 3.87587 11.5325 3.87676 11.585 3.87854C11.6902 3.88209 11.8457 3.88917 12.039 3.9032C12.427 3.93139 12.9591 3.98708 13.5375 4.09615C14.7538 4.32552 15.9357 4.74871 16.5616 5.42776L18.0322 4.07224C16.9398 2.88721 15.192 2.3729 13.9082 2.13079C13.2365 2.00412 12.626 1.94057 12.1838 1.90846C11.962 1.89235 11.7805 1.884 11.6526 1.87968C11.5885 1.87752 11.5377 1.87635 11.5018 1.87573C11.4839 1.87542 11.4696 1.87524 11.4593 1.87514C11.4541 1.87509 11.4499 1.87505 11.4467 1.87503C11.4451 1.87502 11.4438 1.87502 11.4427 1.87501C11.4421 1.87501 11.4416 1.87501 11.4412 1.87501C11.441 1.87501 11.4407 1.87501 11.4406 1.875C11.4404 1.875 11.4401 1.875 11.4375 2.875Z" fill="white" mask="url(#path-3-inside-1)"/>
<rect x="10.375" y="6.375" width="2.25" height="2.25" rx="0.625" fill="#3B211B" stroke="white" stroke-width="0.75" stroke-linejoin="round"/>
<rect x="7.375" y="9.375" width="2.25" height="2.25" rx="0.625" fill="#3B211B" stroke="white" stroke-width="0.75" stroke-linejoin="round"/>
<rect x="13.375" y="9.375" width="2.25" height="2.25" rx="0.625" fill="#3B211B" stroke="white" stroke-width="0.75" stroke-linejoin="round"/>
<path d="M15 20V14H8V20" stroke="white" stroke-linecap="round" stroke-linejoin="round"/>
<path d="M8 14L15 20M15 14L8 20" stroke="white" stroke-linecap="round" stroke-linejoin="round"/>
</svg>
