<svg width="318" height="346" viewBox="0 0 318 346" fill="none" xmlns="http://www.w3.org/2000/svg">
    <path d="M55.7225 342.656C64.5038 343.012 73.3016 343.462 82.0924 343.112C82.0868 343.112 82.081 343.112 82.0754 343.112C82.1121 343.11 82.149 343.109 82.1855 343.107C82.1523 343.109 82.1192 343.11 82.0862 343.112C82.3261 343.101 82.5661 343.09 82.8066 343.079C82.7573 343.081 82.7077 343.083 82.6582 343.084C86.8724 342.902 91.0866 342.747 95.2953 342.457C95.2927 342.457 95.2901 342.457 95.2875 342.457C106.366 341.744 117.53 341.33 128.465 339.314C129.28 334.624 131.639 330.41 133.24 325.974C133.218 326.033 133.196 326.095 133.175 326.154C140.126 309.25 131.973 311.434 120.602 303.439C116.22 300.611 115.902 295.01 117.793 290.564C118.92 286.971 121.154 283.777 121.695 280.001C122.644 273.064 117.832 266.812 112.274 263.224C108.525 261.064 104.189 260.072 100.078 258.8C93.8648 256.994 87.4375 256.549 80.9993 256.903C81.0408 256.903 81.0816 256.901 81.1229 256.897C65.9859 257.718 51.0607 260.891 36.5385 265.14C28.5066 267.879 9.10005 272.764 16.3121 284.587C16.3024 284.574 16.2927 284.561 16.2831 284.55C19.6851 288.313 25.0452 289.27 29.3882 291.586C33.3747 293.631 37.5543 296.706 38.6318 301.29C41.7015 311.067 33.3194 313.908 30.842 321.591C29.7051 327.363 37.3899 328.621 40.9951 331.131C45.1088 333.672 45.5826 338.819 43.5792 342.891C47.6149 342.84 51.6731 342.556 55.7225 342.656ZM75.6966 345.442C67.8727 345.488 60.0613 344.941 52.2424 344.941C50.286 345.008 48.3297 345.03 46.373 345.062C44.8811 345.242 39.3684 345.777 41.7743 343.002C42.5969 339.437 43.7386 337.026 40.727 333.967C36.817 330.74 30.0942 330.038 28.6459 324.411C27.4369 316.712 37.2659 312.806 37.0533 305.411C36.8239 302.335 35.7995 299.229 33.2999 297.267C33.3384 297.304 33.3777 297.339 33.4162 297.377C31.394 295.384 28.8911 294.014 26.3068 292.889C26.3317 292.901 26.357 292.912 26.3822 292.923C22.2981 290.968 17.497 289.691 14.5543 286.038C11.3693 281.893 12.5269 275.462 16.6271 272.356C23.4011 266.789 32.2328 264.708 40.4725 262.256C53.4614 258.64 66.7762 255.955 80.2517 255.117C80.2469 255.117 80.2418 255.117 80.2372 255.117C80.5813 255.106 80.9235 255.071 81.2685 255.069C81.2659 255.069 81.2635 255.069 81.2611 255.069C88.1478 254.644 95.0005 255.294 101.629 257.249C101.589 257.238 101.549 257.229 101.51 257.217C105.279 258.336 109.144 259.37 112.702 261.06C118.902 264.613 124.024 270.904 124.077 278.311C124.047 283.785 120.542 288.315 119.381 293.528C116.908 305.273 135.782 303.694 138.013 313.424C139.204 319.245 136.039 324.882 134.154 330.235C132.931 333.144 131.65 336.046 130.925 339.128C130.766 340.061 130.625 341.295 129.521 341.543C114.278 343.846 98.821 344.481 83.433 345.231C83.4432 345.231 83.4534 345.231 83.4639 345.229C80.8769 345.343 78.287 345.458 75.6966 345.442Z" fill="#707070"/>
    <path d="M42.3825 345.107C34.0493 345.174 26.045 342.324 17.7094 342.344C12.1174 342.162 5.85714 343.605 0.779926 340.68C-1.07173 339.455 0.921617 337.304 1.17465 335.692C5.13174 325.371 7.57548 314.581 10.0674 303.836C11.1025 299.046 12.0571 294.227 12.6214 289.355C12.9558 285.999 12.7207 282.398 13.2762 279.162C14.7393 278.515 14.0888 283.27 14.2426 284.082C14.6177 292.408 12.7402 300.619 10.9397 308.7C8.88049 317.802 6.55442 326.864 3.1572 335.571C3.16074 335.561 3.16427 335.55 3.16762 335.541C3.15124 335.585 3.13486 335.632 3.11828 335.677C3.12164 335.667 3.12499 335.658 3.12834 335.651C2.81777 336.507 2.49995 337.362 2.18882 338.218C2.20465 338.174 2.22066 338.131 2.23667 338.086C2.14842 338.33 2.05216 338.574 1.97433 338.821C7.14836 342.1 16.9742 339.36 23.2409 340.441C23.24 340.441 23.2393 340.441 23.2383 340.441C23.2865 340.447 23.3348 340.451 23.3832 340.456C23.3668 340.454 23.3506 340.452 23.3342 340.451C23.3653 340.454 23.3964 340.456 23.4275 340.46C23.413 340.458 23.3985 340.458 23.3837 340.456C23.432 340.462 23.4804 340.466 23.5286 340.471C23.5225 340.469 23.5161 340.469 23.51 340.469C27.8612 340.935 32.1473 341.843 36.4746 342.465C38.2339 342.901 42.6019 341.976 43.6118 343.078C44.1463 343.929 43.3597 345.143 42.3825 345.107Z" fill="#707070"/>
    <path d="M127.082 340.883C127.178 338.472 131.949 339.346 133.624 339.247C135.86 339.39 138.095 339.074 140.33 338.994C138.263 331.842 137.086 324.525 136.444 317.124C136.279 316.025 136.209 314.908 135.908 313.834C135.677 313.201 135.409 312.359 136.147 311.957C136.678 311.613 137.47 312.119 137.169 312.752C138.686 316.984 138.706 321.579 139.468 325.975C139.902 327.861 140.495 329.71 140.816 331.622C141.26 333.924 141.911 336.177 142.475 338.45C143.519 340.917 140.491 341.207 138.761 341.15C138.769 341.15 138.776 341.15 138.784 341.148C136.073 341.425 133.371 341.33 130.656 341.362C129.519 341.064 127.5 342.494 127.082 340.883Z" fill="#707070"/>
    <path d="M126.242 305.239C124.858 304.202 125.146 299.363 124.782 297.544C124.092 292.61 123.665 287.652 123.23 282.693C122.854 279.772 121.975 276.95 121.544 274.039C121.55 274.067 121.555 274.095 121.561 274.123C121.487 273.036 120.191 269.919 121.676 269.565C121.883 269.602 122.002 269.789 121.995 269.988C121.996 269.984 121.996 269.98 121.996 269.977C122.414 273.684 123.884 277.231 124.605 280.895C125.481 285.864 125.632 290.936 126.575 295.905C126.877 298.132 126.992 300.385 127.375 302.603C127.753 303.696 127.963 305.522 126.242 305.239Z" fill="#707070"/>
    <path d="M121.065 296.881C121.112 295.698 120.334 293.248 120.943 292.403C121.585 292.166 121.265 293.101 121.421 293.438C121.418 293.421 121.415 293.405 121.412 293.39C121.479 294.287 122.501 296.624 121.651 297.149C121.424 297.24 121.121 297.145 121.065 296.881Z" fill="#707070"/>
    <path d="M122.51 291.965C122.513 291.403 121.92 289.936 122.592 289.729C123.157 289.804 123.031 291.094 123.343 291.558C123.577 292.068 122.713 292.569 122.51 291.965Z" fill="#707070"/>
    <path d="M123.424 298.78C123.49 298.136 122.778 296.704 123.814 296.65C124.343 296.883 124.125 297.948 124.367 298.466C124.535 299.054 123.557 299.482 123.424 298.78Z" fill="#707070"/>
    <path d="M136.264 329.165C135.985 328.298 135.836 327.352 135.906 326.445C135.973 326.149 136.417 325.985 136.593 326.27C136.707 326.769 136.69 327.329 136.891 327.834C136.994 328.32 137.481 328.994 136.895 329.338C136.685 329.459 136.358 329.42 136.264 329.165Z" fill="#707070"/>
    <path d="M132.687 333.785C132.509 332.877 132.623 331.927 132.626 331.005C132.681 330.419 133.638 330.324 133.593 330.996C133.594 330.985 133.595 330.972 133.596 330.961C133.396 331.914 134.402 333.554 133.427 334.122C133.136 334.245 132.773 334.117 132.687 333.785Z" fill="#707070"/>
    <path d="M136.16 335.424C136.146 334.838 136.113 334.244 136.214 333.665C136.304 332.935 137.467 333.041 137.186 333.814C137.187 333.812 137.187 333.81 137.188 333.81C137.023 334.464 137.654 335.532 136.773 335.832C136.5 335.905 136.176 335.732 136.16 335.424Z" fill="#707070"/>
    <path d="M16.775 296.758C15.6009 296.6 16.3248 295.166 16.4121 294.429C16.7455 292.863 16.9869 291.28 17.1295 289.686C17.128 289.703 17.1267 289.72 17.1256 289.737C17.128 289.705 17.1306 289.673 17.1336 289.643C17.1323 289.656 17.131 289.67 17.1298 289.684C17.1714 289.044 17.3056 285.341 18.455 286.856C18.344 288.454 18.6603 296.749 16.775 296.758Z" fill="#707070"/>
    <path d="M14.7871 305.69C13.7632 305.551 14.3626 304.281 14.5258 303.652C15.0159 302.391 15.0757 300.833 15.9301 299.766C16.2207 299.494 16.7421 299.688 16.7181 300.107C16.6346 300.472 16.4216 300.796 16.3846 301.187C15.9096 302.257 16.0986 305.603 14.7871 305.69Z" fill="#707070"/>
    <path d="M22.666 295.608C21.638 295.457 22.3239 294.245 22.4602 293.625C22.7838 292.621 22.9505 291.545 23.4122 290.595C23.6844 290.007 24.6116 290.348 24.1292 290.927C23.6317 291.956 23.8823 295.704 22.666 295.608Z" fill="#707070"/>
    <path d="M20.6319 300.44C19.6797 300.342 20.0858 299.277 20.3349 298.705C20.6983 298.044 20.6458 296.625 21.6246 296.633C22.4183 296.871 21.7868 297.815 21.7285 298.353C21.5252 299.089 21.6788 300.401 20.6319 300.44Z" fill="#707070"/>
    <path d="M17.4777 312.623C16.3934 312.26 17.3567 310.935 17.5118 310.216C18.0961 308.464 18.6744 306.71 19.3179 304.978C19.5273 303.681 21.2715 304.075 20.2929 305.144C19.7264 306.365 18.8492 313.111 17.4777 312.623Z" fill="#707070"/>
    <path d="M12.4036 321.358C11.3566 320.992 12.3687 319.729 12.5067 319.035C12.5061 319.035 12.5058 319.037 12.5054 319.039C13.0519 318.13 12.9366 316.119 14.1182 315.886C14.5042 315.909 14.5987 316.406 14.3608 316.659C13.8912 317.785 13.8564 321.323 12.4036 321.358Z" fill="#707070"/>
    <path d="M14.2734 311.481C13.9781 311.428 13.8109 311.099 13.909 310.821C14.2538 310.239 14.2322 308.973 15.0835 308.965C15.4019 309.019 15.5194 309.397 15.3788 309.662C15.0885 310.257 15.1697 311.52 14.2734 311.481Z" fill="#707070"/>
    <path d="M31.1999 300.578C30.1935 300.438 30.8839 299.293 31.0282 298.707C31.301 298.208 31.8292 294.303 32.6538 295.391C32.6535 295.391 32.6533 295.389 32.6531 295.389C32.4092 296.893 32.109 298.396 31.9534 299.917C31.9126 300.276 31.5609 300.587 31.1999 300.578Z" fill="#707070"/>
    <path d="M26.3821 311.328C25.0952 310.909 26.8281 308.584 26.8357 307.616C27.2345 306.813 26.9338 304.852 28.1886 304.975C28.983 305.223 27.9102 307.576 27.9134 308.319C27.4874 309.254 27.7374 311.295 26.3821 311.328Z" fill="#707070"/>
    <path d="M25.1947 306.985C24.0481 306.586 25.1107 305.154 25.2025 304.357C25.5451 303.181 25.7858 301.98 26.0638 300.788C26.5568 298.746 27.0733 296.707 27.4965 294.648C27.6448 294.201 27.6097 293.125 28.3009 293.285C28.421 293.35 28.4577 293.477 28.4394 293.599C28.4405 293.599 28.4416 293.598 28.4428 293.598C28.0979 295.266 27.0188 307.655 25.1947 306.985Z" fill="#707070"/>
    <path d="M20.9867 321.08C19.5448 320.724 21.2135 318.727 21.317 317.829C21.306 317.859 21.2959 317.887 21.2857 317.915C21.8551 317.057 22.4477 312.452 23.5714 312.958C24.1642 313.005 22.7458 316.537 22.6911 317.205C22.1876 318.189 22.2083 320.967 20.9867 321.08Z" fill="#707070"/>
    <path d="M16.3071 333.508C15.2324 333.184 16.1274 331.983 16.3894 331.344C17.0243 330.238 17.214 328.81 18.0394 327.849C19.325 327.514 18.0599 329.901 18.0092 330.473C17.473 331.408 17.683 333.471 16.3071 333.508Z" fill="#707070"/>
    <path d="M10.1947 331.544C9.2628 330.922 10.6039 329.678 10.6899 328.849C11.0828 328.183 11.056 326.487 12.0236 326.509C12.631 326.896 11.6751 328.397 11.6596 329.054C11.3174 329.844 11.3859 331.668 10.1947 331.544Z" fill="#707070"/>
    <path d="M24.6333 331.348C23.5936 330.994 24.8692 329.661 25.0338 329.015C25.3405 328.57 25.4365 327.646 25.9951 327.516C26.0258 328.169 25.5281 328.979 25.447 329.702C25.4486 329.692 25.4505 329.685 25.4522 329.676C25.4486 329.694 25.4447 329.711 25.4406 329.728C25.4427 329.718 25.4447 329.711 25.4466 329.702C25.2515 330.242 25.3855 331.277 24.6333 331.348Z" fill="#707070"/>
    <path d="M34.3932 301.885C34.5085 301.004 35.3988 298.038 36.2235 297.77C36.6567 297.716 36.7364 298.323 36.4076 298.517C36.054 299.6 35.6595 300.695 35.5334 301.831C35.4945 302.488 34.3787 302.646 34.3932 301.885Z" fill="#707070"/>
    <path d="M31.452 311.652C30.4183 311.327 31.5907 309.308 31.8274 308.617C31.4766 308.731 31.8117 308.267 31.8747 308.139C31.8734 308.141 31.8723 308.143 31.8709 308.145C33.0803 305.774 32.4569 309.403 32.2037 310.1C32.0249 310.625 32.2143 311.608 31.452 311.652Z" fill="#707070"/>
    <path d="M23.7497 341.331C23.1585 340.553 23.9426 339.548 24.1023 338.725C25.3038 334.971 26.6502 331.266 27.8999 327.529C28.5649 325.948 28.9139 322.32 30.5127 321.606C30.9768 321.642 31.1902 322.334 30.7452 322.565C29.5251 327.646 28.3052 332.731 26.5446 337.665C25.9073 338.773 25.681 342.545 23.7497 341.331Z" fill="#707070"/>
    <path d="M24.6005 340.277C23.0169 339.866 25.3132 336.125 25.4417 334.971C26.3611 332.39 27.269 329.8 27.8517 327.119C27.8474 327.138 27.8432 327.157 27.8391 327.175C28.0228 326.356 29.0731 320.335 30.4232 321.975C30.4243 321.975 30.4256 321.973 30.4269 321.973C29.2307 326.866 28.6894 331.815 26.7458 336.57C26.1144 337.686 26.1898 340.218 24.6005 340.277Z" fill="#707070"/>
    <path d="M29.6771 334.776C28.3215 334.199 30.1609 332.048 30.2875 331.041C30.2772 331.069 30.267 331.097 30.2569 331.125C30.429 330.721 30.4869 330.239 30.7987 329.913C32.1881 329.248 31.2741 331.551 31.1529 332.175C30.8097 333.03 30.9274 334.802 29.6771 334.776Z" fill="#707070"/>
    <path d="M30.8524 340.338C29.6233 340.142 31.9535 336.636 32.2266 335.89C32.5962 335.49 33.1939 335.962 32.8953 336.415C32.6502 336.765 32.5715 337.208 32.4084 337.601C31.9135 338.372 31.9436 340.312 30.8524 340.338Z" fill="#707070"/>
    <path d="M36.5842 336.046C35.5711 335.528 36.9229 334.167 37.0915 333.413C37.2852 333.167 37.2673 332.508 37.6823 332.592C38.0783 332.858 37.3852 336.454 36.5842 336.046Z" fill="#707070"/>
    <path d="M39.7961 339.886C38.9016 339.547 40.4464 337.818 40.5053 337.125C40.5248 336.989 40.6741 336.853 40.8171 336.929C41.0411 337.415 40.5634 338.095 40.5401 338.642C40.5438 338.626 40.5473 338.611 40.5511 338.594C40.4094 339.052 40.4838 339.944 39.7961 339.886Z" fill="#707070"/>
    <path d="M26.2597 277.396C26.002 276.918 25.7303 276.447 25.4669 275.972C25.2248 275.659 25.223 275.086 25.7201 275.069C26.3049 275.424 26.7527 276.137 27.1971 276.689C27.5661 277.23 26.6551 277.983 26.2597 277.396Z" fill="#707070"/>
    <path d="M29.4831 276.263C28.8337 275.988 28.8156 275.049 28.4509 274.506C28.2263 274.444 28.1639 274.178 28.2561 273.981C28.255 273.984 28.2537 273.988 28.2524 273.99C28.9947 272.571 31.364 276.373 29.4831 276.263Z" fill="#707070"/>
    <path d="M32.6469 274.755C32.6067 273.925 32.8515 273.117 33.1634 272.359C33.153 272.377 33.1431 272.398 33.1329 272.417C33.1332 272.417 33.1334 272.415 33.1336 272.415C33.1327 272.418 33.1308 272.42 33.1291 272.424C33.1306 272.422 33.1317 272.42 33.1325 272.418C33.1299 272.428 33.1273 272.437 33.1245 272.446C33.4983 271.683 34.2472 272.206 33.9837 272.921C33.986 272.897 33.9882 272.873 33.9903 272.849C33.9009 273.567 34.1184 274.398 33.7555 275.051C33.4373 275.517 32.6302 275.377 32.6469 274.755Z" fill="#707070"/>
    <path d="M38.0025 275.18C37.1587 274.731 38.0995 273.698 38.3639 273.126C38.5933 272.659 39.2016 271.923 39.679 272.543C39.6687 272.529 39.6581 272.515 39.6473 272.501C40.0033 273.046 39.3613 273.551 39.1787 274.042C38.9214 274.511 38.7057 275.387 38.0025 275.18Z" fill="#707070"/>
    <path d="M74.8814 267.704C74.6449 267.341 74.2029 266.858 74.45 266.41C74.6351 266.043 75.2606 266.028 75.3247 266.486C75.4617 266.737 75.7903 266.858 75.8239 267.162C75.9008 267.64 75.2431 268.097 74.8814 267.704Z" fill="#707070"/>
    <path d="M78.6014 267.292C77.8088 267.089 78.3262 266.178 78.4393 265.659C78.3532 265.24 78.7184 264.793 79.149 264.804C80.1926 264.849 79.5208 267.521 78.6014 267.292Z" fill="#707070"/>
    <path d="M82.1158 267.309C81.3409 267.132 82.2746 265.233 82.8482 265.417C83.6613 265.578 82.854 267.639 82.1158 267.309Z" fill="#707070"/>
    <path d="M74.6096 311.591C73.9464 311.23 73.1219 310.872 72.7367 310.198C72.6989 309.008 73.9404 309.837 74.4882 310.118C74.48 310.114 74.4718 310.111 74.4634 310.107C74.9369 310.302 75.7228 310.507 75.4191 311.181C75.2934 311.479 74.9317 311.708 74.6096 311.591Z" fill="#707070"/>
    <path d="M76.779 310.5C76.3972 310.22 76.5199 309.63 76.3897 309.219C76.3013 308.679 76.0872 308.148 76.1266 307.595C76.2231 307.012 77.0581 307.148 76.8844 307.755C76.8837 307.737 76.8822 307.718 76.8816 307.701C76.9604 308.509 78.4782 310.675 76.779 310.5Z" fill="#707070"/>
    <path d="M79.5814 311.225C78.2846 310.97 80.3189 307.894 80.9006 307.566C81.4925 307.402 81.7338 308.208 81.2998 308.542C80.7306 309.35 80.7818 311.159 79.5814 311.225Z" fill="#707070"/>
    <path d="M82.2783 311.947C81.4124 311.182 82.9352 310.244 83.2824 309.547C83.4044 309.279 83.6366 309.013 83.9656 309.074C84.7975 309.363 83.9786 310.227 83.7248 310.674C83.3452 311.158 83.0922 312.286 82.2783 311.947Z" fill="#707070"/>
    <path d="M48.9623 329.735C48.4854 329.179 46.6392 327.98 47.9483 327.406C48.1036 327.38 48.2752 327.46 48.3462 327.602C48.8036 328.075 49.4054 328.378 49.8379 328.879C50.2883 329.397 49.4685 330.247 48.9623 329.735Z" fill="#707070"/>
    <path d="M50.9671 328.334C50.6657 327.604 50.2045 326.308 50.543 325.597C51.2245 325.929 51.4848 326.979 51.9514 327.591C52.3286 328.167 51.3902 328.947 50.9671 328.334Z" fill="#707070"/>
    <path d="M53.8371 328.688C52.5887 328.45 54.0807 325.665 54.9453 325.899C55.6547 326.154 55.0033 326.899 54.9666 327.385C54.8338 327.956 54.5812 328.8 53.8371 328.688Z" fill="#707070"/>
    <path d="M56.9418 329.176C56.3495 328.627 57.0963 327.985 57.5368 327.633C57.8405 327.348 58.3105 326.691 58.6705 327.285C58.8655 327.903 57.6772 329.759 56.9418 329.176Z" fill="#707070"/>
    <path d="M110.076 323.226C109.447 322.783 108.959 322.169 108.499 321.56C108.51 321.577 108.525 321.591 108.54 321.604C108.309 321.374 108.378 320.999 108.633 320.808C109.285 320.392 109.581 321.435 110.144 321.629C110.497 321.899 111.091 322.122 111.097 322.632C111.098 323.12 110.505 323.541 110.076 323.226Z" fill="#707070"/>
    <path d="M111.701 321.528C111.179 321.238 110.567 318.748 111.759 319.117C112.091 319.545 112.154 320.188 112.464 320.676C112.663 321.126 112.174 321.69 111.701 321.528Z" fill="#707070"/>
    <path d="M113.969 322.198C113.071 321.938 113.746 320.884 113.959 320.331C114.27 319.854 114.216 318.925 114.933 318.895C115.34 318.899 115.508 319.392 115.296 319.703C114.954 320.497 115.14 322.204 113.969 322.198Z" fill="#707070"/>
    <path d="M116.633 323.021C115.997 322.434 116.814 321.792 117.219 321.362C117.654 320.969 118.005 320.103 118.698 320.252C119.179 320.427 119.08 321.122 118.674 321.328C118.052 321.867 117.685 323.578 116.633 323.021Z" fill="#707070"/>
    <path d="M164.592 287.063C168.53 287.132 171.264 283.44 175.084 283.361C178.559 283.153 182.135 285.869 185.479 284.289C185.429 284.313 185.379 284.337 185.328 284.363C185.442 284.307 185.556 284.251 185.669 284.195C185.619 284.22 185.569 284.244 185.518 284.27C198.639 276.091 198.114 292.276 211.105 282.099C213.402 280.511 216.344 280.187 219.066 280.462C219.047 280.461 219.027 280.459 219.008 280.457C219.057 280.462 219.105 280.466 219.153 280.472C219.144 280.47 219.137 280.47 219.127 280.47C219.142 280.47 219.157 280.472 219.17 280.474C219.161 280.472 219.152 280.472 219.14 280.47C222.937 280.729 226.327 283.088 230.182 282.769C237.37 282.505 243.286 276.096 236.864 270.092C236.879 270.105 236.892 270.118 236.907 270.131C231.152 265.431 228.314 269.295 222.881 267.997C218.526 267.053 218.444 263.413 213.441 264.619C208.109 265.42 203.75 270.866 198.06 268.691C194.766 267.74 191.972 264.856 188.302 265.621C181.364 266.589 179.015 272.253 174.008 272.73C170.508 272.935 167.208 271.279 163.717 271.469C158.463 271.471 154.766 275.344 154.837 280.572C155.098 284.83 159.327 286.802 163.116 287.063C163.053 287.055 162.988 287.05 162.924 287.042C163.483 287.078 164.036 287.081 164.592 287.063ZM161.019 289.839C152.505 288.886 149.732 281.462 153.782 274.335C157.104 268.889 164.408 268.211 170.012 270.028C175.809 271.734 176.818 269.302 181.124 266.308C185.163 263.72 190.784 262.221 195.051 265.105C197.883 266.85 201.512 268.194 204.612 266.331C209.028 263.96 215.586 259.952 220.003 264.195C219.997 264.191 219.993 264.186 219.988 264.182C222.062 266.113 225.305 266.876 227.973 265.85C230.515 265.15 233.276 265.638 235.652 266.684C242.975 270.142 244.038 279.617 236.251 283.283C225.886 289.433 218.964 277.36 210.084 285.387C206.835 287.8 202.266 288.932 198.524 287.001C196.356 286.002 194.45 283.993 191.92 284.078C189.473 284.272 187.466 285.851 185.282 286.808C181.476 288.26 177.669 285.281 173.796 285.856C172.61 286.044 171.681 287.052 170.524 287.214C167.853 289.332 164.414 290.39 161.019 289.839Z" fill="#707070"/>
    <path d="M181.152 272.002C181.121 271.952 181.1 271.894 181.094 271.837C181.888 269.74 186.442 268.076 188.602 268.115C189.237 268.206 190.089 268.07 190.551 268.588C190.897 269.142 190.389 269.919 189.756 269.9C187.067 269.651 183.98 270.124 181.882 271.917C181.739 272.174 181.327 272.282 181.152 272.002Z" fill="#707070"/>
    <path d="M196.17 271.523C195.582 271.276 194.103 270.747 195.057 270.011C195.729 269.866 197.412 269.881 197.155 270.944C197.042 271.337 196.582 271.681 196.17 271.523Z" fill="#707070"/>
    <path d="M180.785 281.539C176.479 280.968 176.358 277.154 177.968 278.664C177.957 278.655 177.946 278.644 177.933 278.633C180.454 280.806 184.051 279.951 186.945 279.119C187.55 278.981 188.455 278.139 188.905 278.919C189.283 280.94 182.271 281.791 180.785 281.539Z" fill="#707070"/>
    <path d="M192.288 278.589C191.977 278.032 193.23 277.483 193.649 277.516C194.332 277.902 193.623 278.607 193.053 278.557C193.072 278.553 193.091 278.549 193.109 278.546C192.83 278.561 192.513 278.92 192.288 278.589Z" fill="#707070"/>
    <path d="M219.192 272.377C215.189 271.061 211.864 268.745 207.654 271.149C207.671 271.139 207.688 271.132 207.705 271.124C207.474 271.27 207.096 271.407 206.986 271.046C206.999 270.313 208.285 270.102 208.805 269.698C213.575 267.276 216.418 270.367 220.753 271.052C222.026 271.076 227.519 268.953 227.632 270.886C227.578 271.255 227.232 271.594 226.849 271.575C224.225 271.082 221.782 272.869 219.192 272.377Z" fill="#707070"/>
    <path d="M228.02 280.412C226.893 280.274 223.315 279.857 224.047 278.163C224.292 277.753 224.858 277.524 225.272 277.837C228.223 280.24 236.019 277.61 232.758 273.318C232.392 272.784 230.9 272.346 231.142 271.694C231.246 271.456 231.544 271.292 231.785 271.419C235.041 271.975 236.221 275.623 234.097 278.082C232.604 279.734 230.206 280.471 228.02 280.412Z" fill="#707070"/>
    <path d="M217.305 277.674C217.312 277.679 217.321 277.685 217.329 277.69C215.903 277.056 214.292 277.718 212.845 277.569C211.164 275.324 216.402 276.205 217.368 276.583C218.366 276.761 218.256 277.957 217.305 277.674Z" fill="#707070"/>
    <path d="M161.539 283.471C156.841 282.3 157.789 277.056 161.57 275.371C162.025 275.249 162.956 274.528 163.181 275.228C163.268 275.882 161.023 276.107 160.474 277.583C159.267 279.501 160.351 281.048 162.328 281.665C163.237 282.18 162.488 283.672 161.539 283.471Z" fill="#707070"/>
    <path d="M282.155 301.291C285.551 300.989 287.888 298.407 289.915 295.927C294.277 290.062 301.526 294.834 307.355 294.256C311.037 294.165 315.065 291.75 315.533 287.852C315.518 283.115 310.077 280.523 306.011 279.819C301.337 279.006 297.539 282.547 293.039 282.791C286.31 283.426 284.457 279.002 278.711 277.578C274.533 276.546 269.873 277.911 266.957 281.089C264.904 283.539 263.848 287.034 260.577 288.196C256.034 290.404 251.159 288.352 246.423 288.542C241.12 288.688 236.682 292.814 240.434 297.909C243.891 300.434 248.623 300.539 252.595 299.194C260.451 295.983 265.275 292.29 273.28 297.952C275.955 299.71 278.822 301.492 282.155 301.291ZM280.922 303.518C273.747 303.493 268.759 294.422 261.239 297.807C261.26 297.8 261.28 297.792 261.301 297.785C261.252 297.801 261.203 297.818 261.156 297.835C261.16 297.833 261.167 297.831 261.171 297.828C261.165 297.831 261.156 297.835 261.148 297.837C261.152 297.835 261.156 297.833 261.162 297.831C258.33 298.911 255.71 300.509 252.884 301.604C253.223 301.911 252.769 302.536 252.369 302.304C248.404 303.367 243.742 303.046 240.262 300.745C238.99 300.079 237.086 298.908 237.472 297.243C234.869 291.909 240.113 286.867 245.296 286.496C249.353 285.774 253.351 287.552 257.397 286.99C263.848 286.219 263.22 280.363 268.382 277.522C268.339 277.549 268.301 277.576 268.261 277.604C272.299 274.868 277.729 274.675 282.091 276.76C282.087 276.76 282.082 276.758 282.08 276.756C282.116 276.773 282.155 276.788 282.191 276.805C282.189 276.805 282.189 276.805 282.189 276.805C285.175 278.002 287.413 280.773 290.844 280.845C295.273 281.592 298.879 278.352 303.14 277.948C309.163 277.285 317.895 281.314 317.279 288.313C316.249 294.389 309.527 297.101 303.943 296.334C299.765 296.237 294.415 292.825 291.285 297.088C291.291 297.081 291.297 297.072 291.306 297.064C291.299 297.07 291.295 297.074 291.291 297.079C291.325 297.04 291.361 297.003 291.395 296.966C291.331 297.036 291.265 297.107 291.204 297.178C291.21 297.17 291.219 297.163 291.223 297.154C291.189 297.193 291.157 297.23 291.123 297.269C291.127 297.264 291.129 297.26 291.133 297.254C288.674 300.509 285.307 303.76 280.922 303.518Z" fill="#707070"/>
    <path d="M249.022 302.712C244.825 302.081 238.219 299.915 237.78 294.994C237.897 294.469 238.705 294.64 238.351 295.149C238.927 296.275 239.597 297.379 240.677 298.092C240.655 298.077 240.632 298.063 240.61 298.05C240.688 298.1 240.766 298.152 240.844 298.202C240.844 298.202 240.843 298.202 240.843 298.2C246.298 301.386 250.405 302.583 256.028 298.954C256.57 298.645 257.417 298.18 257.788 298.962C258.616 300.878 250.454 303.088 249.022 302.712Z" fill="#707070"/>
    <path d="M252.859 301.391C252.334 300.292 258.227 298.151 259.188 297.347C260.099 297.073 261.998 295.602 262.625 296.771C262.718 297.118 262.528 297.544 262.204 297.706C259.197 299.11 255.911 300.38 252.859 301.391Z" fill="#707070"/>
    <path d="M287.923 285.598C284.849 285.507 282.51 283.323 279.826 282.115C275.703 280.435 270.013 281.191 267.752 285.386C267.415 285.768 266.72 285.498 266.85 284.967C266.848 284.971 266.846 284.975 266.846 284.978C266.846 284.976 266.846 284.976 266.846 284.976C268.334 281.8 271.683 279.674 275.211 279.739C275.246 279.737 275.284 279.735 275.319 279.733H275.317C278.573 279.447 281.707 280.927 284.297 282.77C284.291 282.766 284.285 282.763 284.279 282.759C285.658 283.88 287.363 284.086 289.029 284.394C289.871 285.144 288.757 285.896 287.923 285.598Z" fill="#707070"/>
    <path d="M293.285 285.638C292.874 285.526 291.727 285.873 291.82 285.197C292.059 284.81 292.635 285.18 293.015 285.061C293.009 285.061 293.001 285.061 292.993 285.063C295.207 284.884 297.362 284.19 299.475 283.536C299.45 283.544 299.424 283.553 299.4 283.562C299.789 283.391 300.414 283.249 300.495 283.83C300.909 284.975 294.188 285.735 293.285 285.638Z" fill="#707070"/>
    <path d="M278.38 296.784C275.864 296.38 273.608 295.006 271.409 293.783C270.853 293.396 269.733 293.299 270.007 292.373C270.428 291.13 271.832 291.88 272.562 292.398C273.914 293.252 275.392 293.872 276.8 294.617C280.431 296.456 283.924 294.015 286.797 291.93C287.361 291.459 289.912 290.182 289.95 291.467C289.875 291.638 289.685 291.748 289.503 291.692C288.726 291.515 288.025 292.167 287.457 292.615C287.459 292.614 287.461 292.612 287.463 292.61C287.435 292.632 287.41 292.655 287.384 292.677C287.398 292.666 287.414 292.653 287.427 292.639C284.95 294.954 281.999 297.309 278.38 296.784Z" fill="#707070"/>
    <path d="M256.464 294.27C255.688 292.265 261.167 291.323 262.558 291.583C263.945 291.676 263.614 292.955 262.729 292.719C261.024 292.432 259.197 293.13 257.745 294.002C257.382 294.266 256.874 294.706 256.464 294.27Z" fill="#707070"/>
    <path d="M246.244 296.808C244.163 296.788 240.925 294.3 242.569 292.177C243.146 292.023 242.589 292.985 243.233 293.49C243.219 293.47 243.205 293.451 243.191 293.432C243.291 293.566 243.394 293.699 243.494 293.833C243.489 293.825 243.483 293.818 243.477 293.808C243.502 293.842 243.528 293.875 243.554 293.909C243.537 293.889 243.52 293.866 243.505 293.846C244.265 294.784 245.531 295.138 246.682 295.305C247.641 295.523 247.102 296.981 246.244 296.808Z" fill="#707070"/>
    <path d="M310.943 289.798C309.891 289.466 310.88 288.303 310.817 287.577C310.949 285.192 308.112 284.207 306.127 284.365C305.916 284.393 305.746 284.222 305.75 284.015C305.899 282.892 310.641 283.898 311.004 284.868C311.804 285.681 312.326 286.715 312.106 287.876C312.005 288.593 311.944 289.893 310.943 289.798Z" fill="#707070"/>
    <path d="M138.511 218.522C143.675 218.361 146.629 213.66 149.999 210.46C153.826 207.609 158.001 209.318 161.243 212.118C165.056 214.591 170.811 216.74 174.07 212.305C179.048 204.913 181.679 203.289 190.452 201.701C198.637 198.48 193.765 189.087 187.067 187.538C183.202 186.104 178.756 186.417 175.324 188.783C173.407 190.098 171.783 191.883 169.582 192.742C163.812 195.834 158.188 193.127 153.187 189.94C147.142 187.554 141.269 189.279 137.561 194.63C135.758 197.378 132.144 197.851 129.103 197.707C124.283 196.862 119.338 194.756 114.467 196.544C104.553 199.482 106.366 212.927 117.367 211.169C119.254 211.186 120.717 209.899 122.472 209.48C129.639 209.718 130.468 219.175 138.511 218.522ZM136.437 220.773C131.076 220.599 129.231 216.892 125.811 213.604C125.834 213.625 125.856 213.647 125.879 213.668C123.422 211.502 122.229 211.567 119.395 212.861C116.34 213.412 113.072 213.653 110.148 212.37C104.823 209.679 104.55 202.247 108.146 198.002C110.098 195.736 112.988 194.484 115.855 193.836C120.595 192.807 125.158 194.592 129.741 195.529C132.287 195.7 135.11 195.319 136.546 192.969C139.303 189.597 143.07 186.765 147.617 186.901C155.008 186.022 157.985 192.016 165.039 191.781C170.755 191.144 174.047 185.391 179.692 184.525C179.639 184.534 179.586 184.546 179.532 184.555C188.682 182.537 202.518 191.626 194.906 201.267C192.015 204.788 187.192 203.999 183.396 205.693C178.843 207.486 177.427 212.455 173.863 215.375C168.836 219.486 162.094 215.714 157.757 212.321C154.163 209.7 150.711 211.528 148.489 214.859C145.5 218.283 141.222 221.452 136.437 220.773Z" fill="#707070"/>
    <path d="M135.242 215.703C130.273 215.314 129.197 210.718 125.482 208.469C125.513 208.49 125.543 208.51 125.574 208.531C123.964 207.484 121.934 206.84 120.016 207.225C120.036 207.222 120.056 207.218 120.076 207.214C115.145 209.495 120.949 202.632 128.701 208.441C131.084 210.756 132.822 213.751 136.552 213.867C137.516 214.152 139.239 212.953 139.601 214.317C139.492 216.114 136.525 215.813 135.242 215.703Z" fill="#707070"/>
    <path d="M142.351 211.032C142.318 210.915 142.387 210.805 142.481 210.741C143.031 210.265 143.324 209.595 143.722 209.001C143.714 209.014 143.706 209.025 143.698 209.036C143.734 208.984 143.769 208.932 143.806 208.88C143.788 208.906 143.77 208.934 143.751 208.96C144.491 208.051 145.215 206.93 146.407 206.606C147.022 206.427 148.094 206.029 148.231 206.98C148.315 208.206 146.782 208.032 146.051 208.531C145.28 208.859 142.901 211.566 142.351 211.032Z" fill="#707070"/>
    <path d="M162.842 198.486C159.482 198.255 157 195.89 154.14 194.451C150.543 193.088 145.371 191.982 142.473 195.199C141.984 196.14 140.894 195.197 141.714 194.533C145.859 189.817 153.902 190.885 158.404 194.566C159.956 195.505 161.561 196.363 163.369 196.681C164.516 196.948 163.885 198.688 162.842 198.486Z" fill="#707070"/>
    <path d="M168.912 196.161C168.899 196.043 168.985 195.911 169.104 195.885C170.215 195.494 171.332 195.081 172.396 194.561C172.371 194.574 172.345 194.586 172.321 194.599C174.632 193.167 176.183 190.597 178.879 189.683C179.949 189.432 182.738 188.082 182.949 189.855C182.804 191.616 179.789 190.812 178.562 191.796C176.741 192.672 175.395 194.28 173.652 195.282C172.491 195.671 169.925 196.568 168.912 196.161Z" fill="#707070"/>
    <path d="M189.564 195.474C189.681 194.538 189.089 193.32 188.131 193.093C188.138 193.095 188.147 193.095 188.155 193.097C187.496 192.983 187.857 191.98 188.44 192.138C188.43 192.136 188.421 192.134 188.41 192.132C189.843 192.423 191.393 193.687 191.264 195.273C191.307 196.31 189.581 196.681 189.564 195.474Z" fill="#707070"/>
    <path d="M167.596 209.24C166.849 209.225 166.698 208.231 167.203 207.799C167.689 207.341 168.428 207.611 169.007 207.362C170.753 206.773 172.213 205.658 173.477 204.342C174.945 202.807 176.669 201.519 178.715 200.873C179.301 200.763 180.638 200.074 180.836 200.931C180.815 201.493 180.225 201.443 179.819 201.474C178.858 201.752 177.963 202.215 177.121 202.751C177.132 202.744 177.143 202.737 177.153 202.729C177.145 202.735 177.136 202.74 177.129 202.746C177.134 202.744 177.138 202.74 177.142 202.737C177.119 202.753 177.095 202.768 177.071 202.783C177.076 202.781 177.082 202.778 177.086 202.774C174.099 205.12 171.893 209.233 167.596 209.24Z" fill="#707070"/>
    <path d="M111.754 201.832C111.388 200.198 115.387 197.907 116.765 198.062C117.657 198.874 116.479 199.455 115.707 199.544C114.592 199.985 113.357 200.401 112.538 201.317C112.515 201.695 112.142 202.274 111.754 201.832Z" fill="#707070"/>
    <path d="M216.914 119.954C230.753 119.14 228.543 104.742 241.412 108.39C250.571 110.546 254.462 98.1734 247.985 92.7162C244.781 89.5063 240.001 88.7205 235.676 89.6012C227.5 90.925 225.095 97.4435 216.236 93.0085C212.177 90.2901 207.04 91.6959 203.588 94.7624C201.505 96.4102 200.328 99.0913 197.922 100.324C192.945 102.791 187.25 98.6445 182.299 101.229C178.171 102.966 174.907 108.544 178.62 112.257C182.389 115.947 188.118 115.923 192.867 114.405C193.612 113.573 194.891 113.348 195.895 112.908C195.852 112.921 195.809 112.936 195.768 112.951C196.481 112.685 197.204 112.445 197.96 112.333C197.915 112.341 197.87 112.35 197.824 112.359C205.349 111.145 209.373 120.89 216.914 119.954ZM216.253 121.905C209.379 122.609 205.547 115.511 199.265 114.299C197.045 113.949 195.437 115.735 193.5 116.476C191.24 117.317 188.829 117.828 186.41 117.8C178.92 117.891 171.761 111.121 176.564 103.789C176.559 103.798 176.553 103.807 176.546 103.815C176.598 103.742 176.648 103.668 176.699 103.595C176.669 103.638 176.641 103.681 176.611 103.722C176.684 103.616 176.758 103.508 176.833 103.402C176.812 103.431 176.792 103.461 176.771 103.493C181.08 97.6279 186.831 97.8978 193.271 99.2123C195.226 99.3967 197.507 99.0634 198.79 97.4305C202.097 93.0383 207.204 89.0538 213.015 89.9903C215.458 90.5601 217.509 92.152 219.969 92.7069C222.7 93.6881 225.287 92.5523 227.545 91.0181C230.921 89.1748 234.611 87.7784 238.491 87.6425C248.385 86.868 256.591 97.0041 251.247 106.127C247.359 111.153 243.36 110.873 237.774 109.445C235.728 109.298 233.54 109.972 232.205 111.587C228.578 117.07 223.184 121.888 216.253 121.905Z" fill="#707070"/>
    <path d="M211.395 114.759C205.93 113.586 204.604 110.114 197.738 109.955C197.749 109.957 197.76 109.957 197.771 109.959C197.747 109.957 197.725 109.953 197.701 109.952C197.71 109.952 197.717 109.953 197.727 109.953C196.138 109.747 194.584 110.24 193.156 110.894C192.586 111.339 192.048 110.866 192.755 110.531C192.755 110.531 192.754 110.532 192.752 110.532C194.792 109.352 197.002 108.643 199.378 108.92C201.672 109.063 204.165 109.358 206.141 110.613C207.861 111.75 209.727 112.739 211.726 113.273C212.613 113.471 212.201 114.817 211.395 114.759Z" fill="#707070"/>
    <path d="M216.225 114.648C215.516 114.49 215.895 113.481 216.53 113.658C218.843 113.379 221.622 112.755 222.864 110.584C223.304 109.86 223.678 109.093 224.326 108.525C225.108 107.702 226.266 108.81 225.531 109.653C223.438 113.345 220.47 114.952 216.225 114.648Z" fill="#707070"/>
    <path d="M228.016 106.73C226.908 105.807 232.088 102.669 232.308 104.388C232.285 105.699 230.137 105.363 229.291 106.069C228.796 106.172 228.55 106.952 228.016 106.73Z" fill="#707070"/>
    <path d="M220.446 98.8183C217.478 98.3584 214.815 96.5393 211.751 96.6752C210.73 96.6939 209.783 97.1109 208.868 97.474C208.232 97.4051 208.472 96.5486 208.995 96.4853C208.991 96.4872 208.989 96.4891 208.986 96.4909C210.82 95.5134 212.937 95.2379 214.975 95.5935C216.975 96.1614 219.005 96.6976 220.945 97.4423C221.728 97.7588 221.196 98.9616 220.446 98.8183Z" fill="#707070"/>
    <path d="M225.078 97.3297C224.266 97.3911 224.255 96.3671 225.026 96.4863C227.839 96.3317 229.656 94.0974 232.099 93.0752C232.446 92.9616 232.822 93.1869 232.913 93.5295C233.127 94.5312 231.872 94.6671 231.258 95.0973C229.349 96.2386 227.415 97.5364 225.078 97.3297Z" fill="#707070"/>
    <path d="M241.697 105.656C240.843 105.498 236.823 105.594 237.331 104.271C237.7 102.658 240.975 105.203 243.414 104.131C243.412 104.133 243.41 104.133 243.408 104.133C244.215 103.891 244.928 103.451 245.538 102.876C245.509 102.9 245.479 102.926 245.449 102.951C249.363 100.111 246.935 95.9517 243.431 94.1624C243.434 94.1643 243.44 94.1662 243.444 94.168C242.101 93.5741 240.476 93.1328 239.044 93.6206C238.573 93.7956 238.487 93.0639 238.921 92.969C243.101 91.4217 248.847 94.0042 249.121 98.7669C249.283 102.61 245.36 105.73 241.697 105.656Z" fill="#707070"/>
    <path d="M180.309 109.181C179.044 107.542 179.426 104.329 181.536 103.623C181.524 103.623 181.511 103.625 181.5 103.625C182.198 103.543 182.038 104.614 181.433 104.561C180.199 106.008 181.027 107.246 181.722 108.598C181.739 109.287 180.754 109.827 180.309 109.181Z" fill="#707070"/>
    <path d="M103.6 185.858C103.602 185.858 103.603 185.858 103.604 185.86C103.565 185.845 103.527 185.823 103.492 185.799C103.495 185.801 103.498 185.802 103.502 185.804C103.476 185.784 103.451 185.762 103.429 185.734C103.443 185.76 103.467 185.775 103.487 185.795C102.901 184.328 103.652 182.412 103.681 180.818C104.014 178.193 104.206 175.549 104.647 172.939C105.509 166.089 106.552 159.537 114.824 159.002C116.539 158.863 117.511 158.351 117.904 156.602C118.52 154.901 119.101 153.184 119.491 151.415C120.698 146.691 121.136 141.268 124.429 137.451C129.721 131.953 137.81 131.47 141.21 139.194C144.549 145.716 142.951 154.214 147.201 160.267C149.488 161.834 152.012 156.87 156.758 159.501C161.962 163.154 162.077 170.55 162.971 176.292C162.984 178.554 164.013 181.038 163.308 183.203C162.839 183.877 161.643 183.684 161.686 182.769C161.735 180.872 161.377 178.984 161.236 177.094C160.532 170.032 159.506 155.526 148.984 161.912C142.663 163.503 142.346 148.762 141.342 144.681C139.59 134.98 132.41 131.299 125.145 138.985C122.332 143.329 122.183 148.836 120.749 153.707C118.331 162.002 117.995 159.416 111.141 161.892C106.446 164.139 106.422 177.039 104.915 182.075C104.532 182.881 104.675 186.184 103.6 185.858Z" fill="#707070"/>
    <path d="M125.802 146.652C125.018 146.496 125.813 143.988 125.849 143.327C125.909 143.107 126.141 142.93 126.372 142.973C127.01 143.254 126.357 144.195 126.461 144.74C126.463 144.72 126.465 144.699 126.467 144.679C126.307 145.286 126.602 146.5 125.802 146.652Z" fill="#707070"/>
    <path d="M128.536 142.28C128.262 141.803 128.531 139.914 129.323 140.061C129.837 140.172 129.658 140.692 129.57 141.049C129.65 141.694 129.392 142.887 128.536 142.28Z" fill="#707070"/>
    <path d="M128.766 148.415C128.455 147.899 128.818 147.225 128.7 146.646C128.701 146.67 128.702 146.694 128.703 146.72C128.666 146.214 128.484 145.326 129.226 145.29C129.858 145.395 129.605 146.29 129.768 146.754C129.934 147.454 129.839 149.105 128.766 148.415Z" fill="#707070"/>
    <path d="M132.268 140.869C132.22 140.335 132.291 139.791 132.431 139.274C132.539 138.791 133.322 138.875 133.166 139.406C133.136 139.801 133.26 140.203 133.31 140.598C133.429 141.218 132.374 141.592 132.268 140.869Z" fill="#707070"/>
    <path d="M132.645 145.652C132.536 145.041 132.564 143.576 133.522 144.179C133.757 144.526 133.532 144.989 133.663 145.384C133.77 145.993 132.751 146.358 132.645 145.652Z" fill="#707070"/>
    <path d="M132.89 152.337C132.932 151.43 132.219 149.663 133.592 149.514C134.609 149.611 134.022 151.343 134.226 152.084C134.272 152.838 133.008 153.206 132.89 152.337Z" fill="#707070"/>
    <path d="M112.645 172.789C111.731 172.638 112.352 171.428 112.408 170.84C112.6 170.331 112.602 169.179 113.343 169.257C113.829 169.508 113.328 170.136 113.371 170.549C113.224 171.277 113.725 172.679 112.645 172.789Z" fill="#707070"/>
    <path d="M114.446 166.919C114.148 166.547 114.621 164.756 115.213 164.856C115.651 164.962 115.426 165.495 115.42 165.81C115.514 166.402 115.193 167.478 114.446 166.919Z" fill="#707070"/>
    <path d="M118.102 167.036C117.759 166.379 118.324 165.577 118.325 164.871C118.31 164.616 118.55 164.372 118.808 164.415C119.282 164.58 118.96 165.256 119.069 165.64C119.183 166.292 119.057 167.666 118.102 167.036Z" fill="#707070"/>
    <path d="M115.66 172.566C115.703 171.518 115.985 170.464 116.541 169.57C116.54 169.572 116.538 169.576 116.537 169.578C117.649 168.731 116.724 171.913 116.9 172.421C116.93 173.177 115.665 173.445 115.66 172.566Z" fill="#707070"/>
    <path d="M114.364 179.875C114.476 178.868 114.255 176.731 115.608 176.621C116.015 176.693 116.173 177.155 116.011 177.507C115.799 178.153 115.937 178.9 115.915 179.581C115.975 180.456 114.494 180.884 114.364 179.875Z" fill="#707070"/>
    <path d="M120.918 174.434C120.472 174.073 120.984 171.437 121.699 171.619C122.13 171.952 121.631 172.706 121.796 173.207C121.973 173.809 121.73 174.872 120.918 174.434Z" fill="#707070"/>
    <path d="M124.876 175.182C125.051 174.475 124.441 173.049 125.397 172.838C126.022 172.911 125.707 174.453 125.918 174.985C126.025 175.652 124.906 175.972 124.876 175.182Z" fill="#707070"/>
    <path d="M124.55 181.558C124.576 180.734 124.162 178.972 125.416 178.978C126.27 179.302 125.665 180.594 125.833 181.314C125.87 182.041 124.666 182.394 124.55 181.558Z" fill="#707070"/>
    <path d="M142.734 170.946C142.813 170.147 142.44 168.258 143.477 168.088C143.705 168.129 143.817 168.373 143.751 168.583C143.543 169.289 143.689 170.045 143.674 170.767C143.706 171.298 142.815 171.559 142.734 170.946Z" fill="#707070"/>
    <path d="M145.567 167.438C145.451 166.785 145.164 165.945 145.608 165.366C145.846 165.103 146.345 165.129 146.458 165.493C146.456 165.485 146.454 165.476 146.451 165.468C146.573 165.865 146.586 166.297 146.683 166.705C146.681 166.695 146.679 166.688 146.678 166.679C146.683 166.707 146.688 166.734 146.694 166.762C146.693 166.759 146.692 166.755 146.692 166.751C147.061 167.485 145.916 168.326 145.567 167.438Z" fill="#707070"/>
    <path d="M151.014 169.133C150.46 168.461 150.691 167.359 150.355 166.553C150.163 165.972 151.147 165.476 151.348 166.145C151.407 166.932 152.585 169.401 151.014 169.133Z" fill="#707070"/>
    <path d="M150.561 174.515C150.745 173.733 150.255 172.018 151.353 171.897C151.607 171.944 151.751 172.225 151.667 172.463C151.538 173.094 151.725 173.74 151.741 174.375C151.783 175.094 150.565 175.353 150.561 174.515Z" fill="#707070"/>
    <path d="M145.868 178.492C145.082 174.718 147.921 174.895 147.068 176.464C146.936 177.263 147.604 178.591 146.579 178.967C146.258 179.053 145.897 178.848 145.868 178.492Z" fill="#707070"/>
    <path d="M140.865 181.823C140.526 181.432 140.795 180.806 140.785 180.334C140.784 180.35 140.782 180.369 140.781 180.386C140.772 179.89 141.59 179.723 141.593 180.293C141.616 180.868 141.88 182.246 140.865 181.823Z" fill="#707070"/>
    <path d="M152.833 179.791C152.738 178.935 153.094 176.89 154.28 177.952C154.526 178.467 154.178 179.063 154.27 179.622C154.308 180.497 152.851 180.812 152.833 179.791Z" fill="#707070"/>
    <path d="M292.195 256.59C291.025 255.521 291.557 251.698 291.102 250.023C290.293 245.453 289.995 240.454 287.668 236.367C285.043 232.997 280.217 233.543 276.759 231.648C270.926 228.041 271.618 217.679 269.346 211.733C264.857 199.798 253.956 204.78 252.295 189.922C252.305 189.974 252.315 190.025 252.324 190.075C250.746 181.905 252.024 173.451 250.397 165.265C249.799 160.636 249.24 155.992 247.308 151.691C246.394 149.239 245.265 146.78 243.232 145.053C243.236 145.055 243.24 145.059 243.244 145.063C236.445 138.264 225.584 146.049 222.88 153.38C219.924 161.129 222.47 169.545 221.433 177.567C220.535 188.07 211.711 191.481 209.606 200.004C208.904 203.523 208.805 207.147 207.978 210.643C206.349 217.813 201.176 223.213 196.11 228.221C190.529 233.936 185.414 240.998 185.088 249.255C185.628 249.943 184.496 251.047 183.866 250.356C183.297 249.328 183.603 248.025 183.643 246.9C184.768 236.382 192.666 228.64 199.528 221.297C202.934 217.614 205.339 212.976 206.033 207.983C206.609 204.367 206.702 200.613 208.026 197.163C210.9 190.425 218.195 186.055 219.018 178.339C220.318 167.006 215.866 153.913 225.966 145.361C233.293 138.666 242.688 138.028 247.708 147.682C249.826 152.076 251.428 156.739 251.899 161.616C252.692 166.455 253.445 171.296 253.495 176.21C253.924 182.791 253.348 189.993 256.607 195.951C258.591 199.414 262.653 200.634 265.723 202.894C270.251 206.359 272.162 212.023 272.991 217.469C272.991 217.462 272.989 217.456 272.989 217.451C273.975 221.267 274.273 225.809 277.037 228.812C278.327 230.028 280.066 230.461 281.763 230.756C285.981 231.618 290.393 233.852 291.174 238.497C292.434 243.134 293.268 247.878 293.795 252.648C294.033 254.096 294.699 257.293 292.195 256.59Z" fill="#707070"/>
    <path d="M230.375 160.049C230.068 158.401 230.526 156.537 231.792 155.409C232.971 155.195 232.166 156.42 231.988 156.947C231.999 156.919 232.008 156.893 232.019 156.865C231.602 157.796 231.679 158.799 231.731 159.792C231.777 160.555 230.498 160.931 230.375 160.049Z" fill="#707070"/>
    <path d="M229.701 169.733C229.269 169.202 229.359 164.46 230.397 164.672C230.665 164.721 230.764 165.004 230.682 165.236C230.47 166.136 231.427 170.511 229.701 169.733Z" fill="#707070"/>
    <path d="M236.635 163.863C236.586 163.284 236.559 162.69 236.702 162.12C236.7 162.126 236.7 162.131 236.698 162.137C236.855 161.662 236.903 160.776 237.583 160.841C237.849 160.887 237.996 161.183 237.91 161.433C237.316 162.278 238.19 163.816 237.231 164.259C236.963 164.33 236.657 164.161 236.635 163.863Z" fill="#707070"/>
    <path d="M235 177.636C234.803 177.484 234.762 177.247 234.76 177.013C234.76 177.02 234.76 177.029 234.762 177.037C234.782 175.953 234.484 172.928 236.091 173.032C236.868 173.367 236.179 174.169 236.181 174.743C236.041 175.681 236.743 178.279 235 177.636Z" fill="#707070"/>
    <path d="M230.785 182.817C230.893 181.953 230.997 180.085 232.226 180.273C233.164 180.761 232.079 181.86 232.235 182.645C232.259 183.53 230.805 183.848 230.785 182.817Z" fill="#707070"/>
    <path d="M224.979 176.299C225.073 175.374 225.216 172.629 226.543 172.877C227.203 173.428 226.167 174.266 226.3 174.994C226.197 175.638 226.478 176.72 225.596 176.871C225.261 176.913 224.97 176.643 224.979 176.299Z" fill="#707070"/>
    <path d="M225.002 162.812C224.151 162.666 224.722 161.506 224.767 160.946C224.942 160.425 224.882 159.315 225.698 159.473C226.266 159.767 225.797 160.559 225.804 161.052C225.631 161.642 225.854 162.756 225.002 162.812Z" fill="#707070"/>
    <path d="M231.781 150.441C230.556 150.348 232.157 146.781 233.069 147.507C233.572 147.958 232.944 148.457 232.738 148.877C232.373 149.373 232.591 150.41 231.781 150.441Z" fill="#707070"/>
    <path d="M238.009 151.065C237.97 150.24 238.141 149.432 238.473 148.676C238.569 148.415 238.895 148.233 239.167 148.326C239.824 148.644 239.165 149.394 239.107 149.888C238.927 150.43 239.268 151.379 238.5 151.523C238.229 151.558 238.007 151.342 238.009 151.065Z" fill="#707070"/>
    <path d="M242.913 163.108C242.861 162.136 242.356 160.073 243.695 159.861C244.012 159.917 244.125 160.247 244.038 160.524C244.04 160.515 244.043 160.507 244.047 160.498C243.574 161.449 244.853 163.056 243.617 163.577C243.297 163.665 242.952 163.46 242.913 163.108Z" fill="#707070"/>
    <path d="M242.023 172.549C242.129 171.81 242.042 170.272 243.058 170.259C243.95 170.602 243.004 171.734 243.131 172.417C243.148 173.093 242.042 173.335 242.023 172.549Z" fill="#707070"/>
    <path d="M250.465 213.973C250.441 212.944 250.532 211.903 250.346 210.882C250.178 210.424 250.491 209.877 250.981 209.819C252.117 209.663 251.603 213.031 251.709 213.828C251.731 214.584 250.489 214.859 250.465 213.973Z" fill="#707070"/>
    <path d="M244.28 215.638C244.351 214.573 244.041 211.313 245.542 211.328C246.589 211.689 245.572 212.981 245.687 213.754C245.52 214.534 246.023 215.815 245.041 216.144C244.701 216.236 244.308 216.018 244.28 215.638Z" fill="#707070"/>
    <path d="M248.743 204.615C248.726 203.593 248.015 202.184 248.888 201.379C249.203 201.132 249.681 201.137 249.938 201.456C249.929 201.444 249.921 201.435 249.912 201.424C250.273 202.243 250.026 203.308 250.262 204.217C250.411 205.122 248.931 205.669 248.743 204.615Z" fill="#707070"/>
    <path d="M247.741 221.698C247.631 220.814 247.451 217.155 249.089 218.579C249.069 219.512 248.959 220.49 249.015 221.456C249.048 222.175 247.86 222.528 247.741 221.698Z" fill="#707070"/>
    <path d="M248.726 230.502C248.94 229.446 248.102 227.491 249.422 227.061C250.713 227.067 249.786 229.509 249.942 230.358C249.959 231.098 248.75 231.366 248.726 230.502Z" fill="#707070"/>
    <path d="M239.42 226.18C239.415 225.061 239.052 222.101 240.355 221.738C240.588 221.78 240.716 222.037 240.642 222.257C240.228 223.432 240.349 224.702 240.4 225.923C240.494 226.508 239.528 226.859 239.42 226.18Z" fill="#707070"/>
    <path d="M259.27 217.577C259.097 216.611 258.456 214.442 259.892 214.261C260.208 214.317 260.374 214.66 260.277 214.956C260.059 215.652 260.313 216.397 260.415 217.097C260.415 217.095 260.415 217.095 260.415 217.093C260.629 217.775 259.523 218.356 259.27 217.577Z" fill="#707070"/>
    <path d="M257.985 231.243C258.015 230.276 257.373 228.312 258.614 227.979C259.553 228.211 258.761 229.576 259.004 230.274C259.031 230.76 259.214 231.472 258.585 231.641C258.313 231.715 258.019 231.542 257.985 231.243Z" fill="#707070"/>
    <path d="M215.053 223.353C214.009 223.043 215.443 220.908 215.573 220.178C215.783 219.606 216.679 219.861 216.409 220.468C215.908 221.17 215.891 223.243 215.053 223.353Z" fill="#707070"/>
    <path d="M217.67 212.852C216.504 212.867 217.329 209.832 218.338 210.169C219.031 210.307 218.908 211.093 218.645 211.564C218.476 212.087 218.385 212.869 217.67 212.852Z" fill="#707070"/>
    <path d="M222.827 206.277C222.6 205.272 222.291 202.749 223.857 202.907C224.518 203.35 223.626 203.994 223.793 204.583C223.743 205.246 224.344 206.229 223.538 206.601C223.265 206.713 222.888 206.597 222.827 206.277Z" fill="#707070"/>
    <path d="M221.244 217.74C221.229 216.891 221.375 214.889 222.611 215.211C223.3 215.764 222.334 216.796 222.555 217.583C222.583 218.384 221.267 218.673 221.244 217.74Z" fill="#707070"/>
    <path d="M220.299 230.407C220.505 229.315 219.684 226.329 220.851 225.906C221.187 225.856 221.432 226.186 221.362 226.5C221.285 227.757 221.553 229.005 221.497 230.265C221.525 230.993 220.317 231.257 220.299 230.407Z" fill="#707070"/>
    <path d="M211.635 231.062C210.773 230.802 211.434 229.698 211.576 229.122C211.756 228.623 211.894 227.813 212.598 227.914C212.935 227.975 213.125 228.348 213.013 228.666C212.579 229.407 212.747 231.057 211.635 231.062Z" fill="#707070"/>
    <path d="M207.721 227.559C206.906 227.298 207.572 226.272 207.68 225.719C207.96 225.123 208.073 223.892 208.986 224.108C209.885 224.611 208.803 225.7 208.673 226.397C208.5 226.862 208.384 227.654 207.721 227.559Z" fill="#707070"/>
    <path d="M204.351 240.986C203.655 240.332 204.683 236.236 205.886 237.731C206.053 238.381 205.468 238.984 205.459 239.645C205.552 240.325 205.241 241.486 204.351 240.986Z" fill="#707070"/>
    <path d="M210.384 246.423C210.494 245.436 210.887 242.653 212.25 242.912C213.329 243.5 212.03 244.742 211.94 245.576C211.844 246.159 211.862 246.995 211.099 247.086C210.717 247.133 210.36 246.824 210.384 246.423Z" fill="#707070"/>
    <path d="M224.78 240.69C224.735 239.843 224.57 238.038 225.746 237.99C226.078 238.05 226.236 238.401 226.143 238.709C225.964 239.215 225.903 239.746 225.942 240.282C225.94 240.254 225.938 240.226 225.938 240.198C226.182 240.952 224.987 241.606 224.78 240.69Z" fill="#707070"/>
    <path d="M307.038 200.547C305.558 194.781 307.566 188.745 305.821 183.053C305.828 183.066 305.832 183.079 305.838 183.094C302.26 175.079 295.184 184.254 294.241 164.49C294.246 164.543 294.248 164.596 294.248 164.649C294.246 164.55 294.239 164.452 294.235 164.353C294.237 164.406 294.239 164.46 294.244 164.513C294.229 164.195 294.212 163.877 294.196 163.56C294.198 163.612 294.202 163.665 294.204 163.718C293.807 159.457 294.233 153.424 289.471 151.547C282.913 151.593 280.871 159.05 280.348 164.411C280.354 164.35 280.358 164.289 280.365 164.227C280.344 171.8 279.071 178.164 274.589 184.433C273.173 186.756 272.519 189.469 272.124 192.138C272.305 192.476 271.854 192.919 271.526 192.679C271.524 192.679 271.524 192.679 271.524 192.679C271.539 192.688 271.553 192.698 271.566 192.707C270.018 187.049 274.685 181.838 276.375 176.64C278.149 171.905 277.262 166.753 278.159 161.867C279.079 157.54 280.577 152.947 284.624 150.588C288.668 148.351 291.897 148.766 294.464 152.795C295.82 154.951 295.863 157.643 296.196 160.101C296.785 164.576 296.106 174.797 301.188 176.523C308.488 178.62 308.936 184.103 308.486 190.761C308.224 193.765 308.399 196.803 308.939 199.766C309.267 200.877 307.456 201.832 307.038 200.547Z" fill="#707070"/>
    <path d="M286.728 166.036C286.814 164.894 286.623 163.684 286.993 162.587C287.147 162.114 287.915 161.976 288.065 162.523C288.022 163.125 287.96 163.741 288.022 164.362C287.948 165.095 288.332 166.398 287.346 166.609C287.013 166.652 286.717 166.383 286.728 166.036Z" fill="#707070"/>
    <path d="M281.672 173.855C281.042 172.862 281.766 171.457 282.059 170.422C282.376 169.545 283.749 169.937 283.338 170.866C282.647 171.702 283.363 174.525 281.672 173.855Z" fill="#707070"/>
    <path d="M282.547 160.776C282.555 160.237 282.807 159.755 282.988 159.26C282.984 159.274 282.978 159.287 282.972 159.301C283.053 158.532 284.21 158.495 283.957 159.36C283.589 159.976 284.011 161.13 283.118 161.305C282.811 161.343 282.532 161.095 282.547 160.776Z" fill="#707070"/>
    <path d="M289.924 158.461C289.757 157.648 289.09 155.87 290.469 155.868C291.203 156.169 291.034 157.337 291.28 158.006C291.427 158.764 290.176 159.312 289.924 158.461Z" fill="#707070"/>
    <path d="M290.714 171.435C290.728 170.982 290.716 170.531 290.704 170.078C290.704 170.097 290.706 170.115 290.708 170.134C290.692 169.289 290.294 167.548 291.601 167.581C291.794 167.615 291.956 167.744 292.034 167.923C292.05 169.046 292.074 170.231 291.954 171.377C291.902 172.09 290.714 172.265 290.714 171.435Z" fill="#707070"/>
    <path d="M286.112 177.062C286.153 176.224 286.056 174.392 287.31 174.569C288.147 174.998 287.236 176.021 287.38 176.737C287.38 176.733 287.38 176.73 287.382 176.726C287.528 177.561 286.188 178.073 286.112 177.062Z" fill="#707070"/>
    <path d="M279.143 188.482C279.297 187.546 279.196 185.202 280.52 185.276C281.288 185.658 280.482 186.54 280.438 187.131C280.212 187.73 280.478 188.807 279.674 188.976C279.389 189.011 279.126 188.78 279.143 188.482Z" fill="#707070"/>
    <path d="M289.908 194.11C288.953 193.328 289.136 191.585 289.433 190.489C289.743 189.362 291.458 189.695 290.973 190.889C290.452 191.874 291.795 194.285 289.908 194.11Z" fill="#707070"/>
    <path d="M295.316 195.354C294.822 191.685 297.883 190.72 297.343 192.971C297.345 192.969 297.345 192.968 297.347 192.966C296.963 193.595 296.887 194.325 296.925 195.047C296.978 195.956 295.472 196.405 295.316 195.354Z" fill="#707070"/>
    <path d="M166.884 64.9971C166.907 65.0864 166.929 65.1758 166.951 65.2633C166.948 65.1684 166.944 65.0734 166.938 64.9785C166.922 64.9859 166.903 64.9915 166.884 64.9971ZM139.922 74.3903C139.922 74.3903 139.922 74.3922 139.922 74.3941C140.004 74.3904 140.086 74.3829 140.167 74.3755C140.086 74.381 140.003 74.3848 139.922 74.3903ZM91.7061 78.5703C90.2301 78.2408 90.9911 76.1331 90.6472 75.0439C89.2403 73.64 99.0944 72.9697 100.109 72.588C109.024 71.2642 117.957 70.0633 126.916 69.0523C126.902 69.0541 126.889 69.056 126.875 69.056C127.211 69.0206 127.548 68.9815 127.886 68.9443C127.847 68.948 127.809 68.9536 127.771 68.9573C131.152 68.5887 134.54 68.2721 137.926 67.95C137.864 67.4641 137.94 66.7175 138.583 66.751C147.232 65.2764 156.114 65.321 164.844 64.4552C164.993 63.2878 166.633 63.3065 167.545 63.2003C168.033 63.2581 168.705 63.083 168.986 63.6006C169.7 65.6711 169.653 67.9277 169.781 70.0931C169.672 71.6441 170.515 73.8727 169.43 75.1109C168.541 75.7495 166.518 76.8294 166.449 74.9489C166.374 74.9173 166.302 74.8707 166.244 74.8149C159.506 74.7683 152.774 74.9806 146.039 75.1705C144.683 74.8558 137.709 76.2858 138.171 74.4779C128.742 74.6734 119.373 75.7477 109.99 76.6004C110.025 76.5967 110.061 76.593 110.096 76.5874C106.916 76.9356 103.755 77.4495 100.567 77.7269C100.602 77.7232 100.639 77.7194 100.675 77.7157C97.6963 78.0657 94.7061 78.5219 91.7061 78.5703Z" fill="#4F4F4F"/>
    <path d="M57.7449 248.491C58.3622 258.916 59.0334 269.379 59.4395 279.821C69.7296 277.618 80.4495 278.417 90.6357 275.529C89.5195 264.944 89.1756 254.525 88.8909 243.883C84.8426 244.357 80.768 244.544 76.702 244.739L76.7253 244.737C70.2768 244.849 63.8944 245.668 57.4699 245.359C57.5718 246.413 57.6699 247.446 57.7449 248.491ZM92.7791 313.981C92.0584 302.765 91.9258 291.445 91.0146 280.201C85.3857 281.108 80.048 282.18 74.278 282.627C69.4153 282.645 64.3861 283.368 59.5973 283.359C59.794 288.432 59.8349 293.463 60.254 298.585C60.4847 301.456 60.5801 305.055 60.75 308.256C60.896 310.477 61.5481 314.136 58.461 314.382C55.9465 314.261 56.3934 311.347 56.2009 309.552C55.9687 306.251 55.9229 303.32 55.635 300.131C54.6838 285.632 54.4338 270.902 53.309 256.115C52.9738 248.608 52.0516 241.123 51.6247 233.638C51.1575 224.901 50.2737 216.166 49.8269 207.438C48.9879 196.583 49.3113 185.691 48.9447 174.793C48.5509 165.605 47.6402 156.392 47.395 147.319C46.8966 140.015 47.0992 131.668 46.7264 124.097C45.7277 110.958 44.4836 98.1277 43.9414 84.8691C44.5737 84.6085 45.1865 84.3013 45.796 83.9922C45.7633 84.009 45.7312 84.0257 45.6987 84.0425C46.5782 83.5844 47.4738 83.1525 48.3897 82.7745C48.8495 94.2773 49.6719 105.767 50.6494 117.235C51.5329 125.768 51.2965 135.295 51.7068 144.074C52.1015 153.374 52.8351 162.412 53.4199 171.768C53.7571 181.891 53.6864 192.046 54.323 202.185C62.1355 201.057 70.0832 202.768 77.8346 201.456C77.9743 203.048 78.005 204.647 78.1033 206.241C71.1309 206.494 64.1458 206.792 57.1826 207.067C56.5274 207.618 55.6049 207.825 54.7789 208.034C55.6868 219.859 56.4116 231.441 57.2612 243.16C67.5348 240.589 78.423 241.447 88.8341 239.732C88.3858 229.002 89.3475 217.146 89.2983 206.511C89.3813 198.65 88.7237 189.201 88.7651 181.714C88.219 165.042 88.7963 148.176 87.8207 131.571C87.3757 126.332 87.3511 120.988 87.3448 115.728C87.2782 108.4 86.3628 99.8165 86.0225 92.246C87.566 91.7731 89.1318 91.3839 90.6655 90.8793C91.3641 102.058 92.2071 113.272 92.1431 124.371C93.3984 139.966 93.1284 155.716 93.4663 171.563C93.9272 190.236 94.6745 208.106 93.8138 226.755C93.4986 248.532 95.6513 269.644 96.9593 291.467C97.1697 298.228 97.5668 304.877 97.7103 311.646C98.3108 314.609 94.4083 317.683 92.7791 313.981Z" fill="#4F4F4F"/>
    <path d="M81.6288 203.242C81.5698 202.486 81.5227 201.728 81.47 200.972C85.8128 199.888 85.346 205.504 81.8591 206.025C81.7748 205.098 81.701 204.169 81.6288 203.242Z" fill="#4F4F4F"/>
    <path d="M83.9524 58.1664C83.0831 46.8461 82.6655 35.9574 81.7137 24.9428C81.3224 16.9532 79.8585 8.71187 81.3276 0.818924C84.9453 -3.37476 84.8017 9.8266 85.2573 11.4874C87.2658 27.6419 87.6645 43.2345 88.8988 59.4677C87.3519 60.1441 85.5827 60.3194 84.1747 61.3105C84.107 60.3239 84.0333 59.2834 83.9524 58.1664Z" fill="#4F4F4F"/>
    <path d="M43.398 72.8816C43.3455 62.4508 42.269 52.3766 41.6495 42.0388C41.4583 30.2232 40.869 18.4186 40.0386 6.64068C39.6723 1.81518 46.9367 1.8307 44.7888 6.84231C46.3381 17.9135 45.6495 29.0223 45.8427 40.109C46.4921 50.757 47.8126 61.569 47.815 72.2037C46.1959 72.4075 44.7737 73.2516 43.4049 74.0869C43.4016 73.6815 43.3998 73.2804 43.398 72.8816Z" fill="#4F4F4F"/>
    <path d="M53.4515 173.828C51.7163 173.955 50.1236 172.199 51.7645 170.838C53.7364 169.753 56.2105 169.835 58.3886 169.358C63.5099 168.462 68.6969 168.092 73.8293 167.302C73.9868 168.958 74.2543 170.62 74.8347 172.184C67.7664 173.19 60.5834 173.609 53.4515 173.828Z" fill="#4F4F4F"/>
    <path d="M78.1525 171.464C78.1292 171.323 78.1059 171.181 78.0827 171.042C78.0914 171.096 78.1002 171.15 78.1089 171.204C78.0944 171.114 78.0799 171.025 78.0652 170.936C78.0739 170.99 78.0827 171.044 78.0914 171.098C77.8572 169.61 77.4733 168.132 76.7913 166.782C79.0393 166.555 81.3134 166.262 83.5585 166.177C86.1066 166.648 85.6076 170.386 83.4536 171.088C81.7832 171.641 79.9861 171.561 78.2517 171.732C78.2189 171.643 78.1862 171.554 78.1525 171.464Z" fill="#4F4F4F"/>
    <path d="M50.4241 136.127C49.4438 136.239 48.672 135.338 48.9673 134.386C49.9063 132.186 53.2155 132.463 55.2131 131.91C55.2816 132.361 55.2665 132.817 55.2963 133.273C55.2963 133.271 55.2956 133.271 55.2956 133.271C55.3589 134.113 55.4806 134.947 55.6702 135.768C53.9209 135.876 52.1726 136.021 50.4241 136.127Z" fill="#4F4F4F"/>
    <path d="M57.853 131.429C60.1678 131.422 60.021 134.738 58.1232 135.367C58.0305 134.055 57.94 132.742 57.853 131.429Z" fill="#4F4F4F"/>
    <path d="M56.9316 131.565C56.9443 131.563 56.9569 131.561 56.9696 131.558C56.9726 131.619 56.9778 131.677 56.9772 131.736C56.9627 131.68 56.9475 131.623 56.9316 131.565Z" fill="#4F4F4F"/>
    <path d="M47.8867 94.6676C45.1972 89.944 61.0237 89.8378 63.7164 89.188C63.8214 90.6422 64.1258 92.0759 64.1981 93.5337C61.1381 93.9508 58.0579 94.1593 54.986 94.4479C52.7709 94.4833 49.8287 96.0361 47.8867 94.6676Z" fill="#4F4F4F"/>
    <path d="M67.0527 92.5281C67.054 92.3717 67.0162 92.219 66.985 92.0682C66.9915 92.0998 66.9982 92.1315 67.0047 92.1631C66.7809 91.0479 66.5331 89.9363 66.324 88.8192C69.3487 88.2215 69.36 92.6156 66.7647 93.1406C66.9388 92.9935 67.0507 92.7738 67.0527 92.5281Z" fill="#4F4F4F"/>
    <path d="M66.4702 89.5741C66.4752 89.6001 66.481 89.6243 66.4855 89.6504C66.4803 89.6262 66.4752 89.6001 66.4702 89.5741Z" fill="#4F4F4F"/>
    <path d="M53.7139 59.6416C51.0711 59.2813 48.1562 59.3575 45.6867 58.389C44.7178 57.5597 45.5912 56.044 46.7393 55.9964C49.493 55.5331 52.2825 55.9506 55.0536 55.8534C60.9294 55.3138 66.8342 55.1118 72.7008 54.494C76.0718 53.903 79.4538 53.4874 82.8613 53.2033C84.7598 52.191 86.9509 53.6342 86.0017 55.7981C84.7276 58.3261 81.2049 57.411 78.8786 57.8495C70.5679 59.2107 62.1231 59.512 53.7139 59.6416Z" fill="#4F4F4F"/>
    <path d="M46.713 59.5898C45.7517 59.5974 45.1484 58.5079 45.7857 57.7398C46.8882 56.8138 48.6612 57.0268 50.0206 56.6275C56.986 55.5038 64.0085 54.4961 71.0777 54.5265C75.3751 54.3668 79.5439 53.0701 83.8616 53.0321C86.0997 53.1538 85.5088 56.5115 83.5435 56.6332C81.8108 56.7682 80.0622 56.7378 78.3384 57.0002C73.2761 58.1334 68.1219 57.7341 62.9915 58.103C57.5416 58.314 52.1526 59.3559 46.713 59.5898Z" fill="#4F4F4F"/>
    <path d="M47.2264 23.9208C45.8396 24.1209 43.8096 22.9013 45.1404 21.4689C45.14 21.4689 45.1394 21.4689 45.1392 21.4689C46.0776 20.5963 47.4933 20.6665 48.681 20.4324C51.6209 20.0238 54.5825 19.8152 57.5322 19.4938C65.5185 18.5658 73.4782 17.5889 81.5189 17.3356C85.1018 16.0288 85.649 21.2135 82.3216 21.7179C81.1186 21.7562 79.9165 21.7584 78.7121 21.8371C78.7521 21.835 78.7923 21.8329 78.8323 21.8307C68.2707 22.0649 57.7968 23.7271 47.2264 23.9208Z" fill="#4F4F4F"/>
    <path d="M84.7422 79.3097C84.8898 79.2967 85.0337 79.2576 85.1723 79.2054C84.5407 79.0807 84.2527 78.2875 84.5299 77.7383C84.3962 77.7811 84.2665 77.8332 84.1365 77.8853C84.1389 77.8835 84.1413 77.8816 84.1438 77.8816C83.7114 78.0492 83.2433 78.2316 82.9665 78.6245C83.3145 79.2445 84.0968 79.3283 84.7422 79.3097ZM84.4348 80.1345C80.56 79.8496 82.4541 76.4628 85.3557 77.1666C86.9072 77.5912 86.492 80.4529 84.4348 80.1345Z" fill="#707070"/>
    <path d="M84.7908 80.8932C84.6701 80.6623 85.0168 80.7386 85.1341 80.6586C85.1289 80.6604 85.1231 80.6623 85.1181 80.6642C85.3566 80.5673 85.5688 80.4147 85.7515 80.2359C85.7489 80.2378 85.7463 80.2397 85.7435 80.2434C85.761 80.2266 85.7777 80.2099 85.7945 80.1931C85.7893 80.1968 85.7835 80.2024 85.7777 80.2099C85.9125 80.074 86.0434 79.9324 86.1334 79.763C86.34 79.4707 86.669 79.8691 86.4169 80.0721C85.9554 80.4072 85.4217 81.1054 84.7908 80.8932Z" fill="#707070"/>
    <path d="M82.811 84.1436C82.3048 83.9294 82.816 83.2628 82.8812 82.896C82.8415 82.5981 83.175 82.2574 83.4692 82.4268H83.4699C83.7187 82.5851 83.7148 82.9426 83.51 83.1418C83.2797 83.4472 83.2659 84.1231 82.811 84.1436Z" fill="#707070"/>
    <path d="M84.3503 83.6396C83.8712 83.4386 84.4683 82.7794 84.5601 82.4573C84.5277 82.3493 84.6783 82.2637 84.7452 82.3605C84.8171 82.5337 84.7014 82.7292 84.6629 82.9005C84.6629 82.9005 84.6629 82.9005 84.6631 82.9005C84.5551 83.1313 84.6804 83.5912 84.3503 83.6396Z" fill="#707070"/>
    <path d="M85.7074 83.2237C85.2777 83.2517 85.7106 82.1178 85.8742 82.0228C86.17 81.9763 86.0105 83.3075 85.7074 83.2237Z" fill="#707070"/>
    <path d="M53.4994 209.287C53.5032 209.285 53.5067 209.28 53.5097 209.276C53.4304 209.198 53.3555 209.114 53.2835 209.028C53.354 209.116 53.4261 209.203 53.4994 209.287ZM77.088 246.959C74.4015 245.505 81.72 241.613 82.6847 240.364C80.9697 232.723 81.8144 224.795 81.2626 217.023C80.6348 198.406 80.2181 179.501 74.7003 161.565C66.5672 164.183 57.9725 165.36 50.103 168.802C50.1378 168.789 50.172 168.774 50.2069 168.759C47.4876 170.115 44.6255 171.344 42.0929 173.006C41.0875 176.034 41.8972 179.417 42.8278 182.377C42.819 182.349 42.8103 182.323 42.8008 182.297C44.5633 187.155 47.1574 191.635 49.4353 196.258C51.3247 200.201 53.1029 204.214 55.5738 207.831C55.9093 208.893 54.6575 209.673 54.1891 210.512C52.8187 212.129 51.6338 209.3 50.5627 208.61C49.1785 212.041 46.3581 214.977 42.8146 216.16C42.8451 216.146 42.8756 216.133 42.9064 216.122C39.3715 217.993 38.3881 216.921 40.8743 213.733C41.8812 212.253 42.6334 210.632 43.51 209.079C40.3278 202.925 37.2246 196.734 34.0964 190.555C31.9264 186.987 30.3737 183.113 28.6802 179.307C27.6027 176.82 26.4157 174.366 25.9296 171.677C21.8111 158.929 45.4907 155.039 53.7482 151.25C53.762 151.258 53.7765 151.261 53.791 151.267C53.781 151.263 53.7707 151.259 53.7605 151.256C53.773 151.259 53.7854 151.263 53.7979 151.269C53.7847 151.565 54.0494 151.809 54.3263 151.87C59.8763 154.319 66.2335 154.669 72.2421 155.009C73.7455 155.147 75.5464 155.257 76.9238 154.669C78.4684 152.948 79.946 151.176 81.3654 149.349C81.7627 151.431 81.7705 153.762 82.707 155.657C86.0721 156.638 89.8862 156.482 93.3726 156.153C94.0663 165.901 93.0678 175.728 92.8868 185.496C92.5453 194.185 92.6135 202.903 92.5181 211.602C92.7332 216.726 92.6797 221.855 92.9426 226.979C93.1197 232.673 93.7945 238.359 93.4262 244.058C93.2705 245.743 90.97 245.226 89.7906 245.484C88.621 245.125 88.8016 243.446 88.5031 242.474C85.6444 245.514 81.1369 246.706 77.088 246.959Z" fill="#707070"/>
    <path d="M66.2861 99.6794C66.2667 99.6292 66.2585 99.577 66.2576 99.523C66.491 99.4858 66.7232 99.4411 66.9565 99.4076C66.8355 99.6347 66.4747 100.063 66.2861 99.6794Z" fill="#707070"/>
    <path d="M84.5662 98.2556C84.4491 98.1513 84.3299 98.0489 84.2085 97.9484C84.806 97.8627 85.4067 97.8199 86.0103 97.8161C86.0716 97.9167 86.1291 98.0191 86.1859 98.1215C85.988 98.1662 85.788 98.2072 85.5873 98.2389H85.588C85.2806 98.2817 84.9698 98.304 84.6628 98.3506C84.6308 98.3189 84.5988 98.2873 84.5662 98.2556Z" fill="#707070"/>
    <path d="M41.688 84.2105C41.4787 83.8531 41.1722 83.5663 40.898 83.261C42.0743 82.6447 43.2805 82.0898 44.5229 81.6188C44.4909 81.6318 44.4588 81.6448 44.4276 81.6579C45.926 81.0397 47.6105 80.9019 49.0533 80.1441C49.0265 80.1404 48.9987 80.1367 48.9712 80.133C48.993 80.1367 49.014 80.1386 49.035 80.1423C48.4048 79.9878 47.7872 80.1348 47.1666 80.2168C45.7683 79.485 48.1309 78.6881 48.6859 78.2692C47.8717 78.1147 47.1169 78.6844 46.342 78.6006C45.3948 77.8205 46.9642 77.3308 47.5688 77.1297C47.5652 77.1316 47.5623 77.1316 47.5595 77.1334C47.5757 77.126 47.5922 77.1204 47.6088 77.113C47.6038 77.1148 47.598 77.1186 47.5921 77.1204C47.9317 76.9566 48.3566 76.8449 48.5783 76.5227C48.5208 76.4557 48.4442 76.4092 48.3675 76.3645C48.3848 76.3738 48.4016 76.3813 48.4184 76.3906C47.5435 76.1709 46.6293 76.7723 45.7529 76.8318C44.1185 75.8655 47.4215 75.2362 47.8278 74.5175C44.3786 74.51 41.8226 77.3848 39.0971 79.1369C39.0979 79.1369 39.0979 79.1369 39.0979 79.1369C39.0979 79.1369 39.0979 79.1387 39.0971 79.1387C38.7231 79.4143 38.3604 79.701 38.0115 80.0064C37.797 79.7625 37.5853 79.5111 37.3384 79.2989C39.5905 77.2657 42.1317 75.4522 44.85 74.1041C46.1171 73.4022 50.2808 72.9032 48.1791 75.3628C49.1847 75.2902 49.8273 76.5321 49.0235 77.2303C50.1987 77.2433 49.9621 78.6379 49.1486 79.0531C51.3013 79.4869 49.5709 81.4977 48.2502 81.7789C46.0789 82.6726 43.8986 83.5347 41.7894 84.5811C41.7891 84.4507 41.7556 84.3185 41.688 84.2105Z" fill="#707070"/>
    <path d="M126.41 74.1626C126.197 72.2989 125.212 69.8281 126.7 68.2902C127.28 67.8676 128.11 67.9365 128.446 68.6235C128.664 67.6665 130.101 67.3127 130.384 68.4094C130.905 67.5268 131.899 66.8566 132.184 68.3033C133.26 66.5922 134.501 67.9346 134.253 69.4725C133.851 71.7161 134.039 74.0491 134.212 76.3094C133.833 76.2331 133.443 76.2368 133.058 76.2536C132.592 73.6786 132.993 71.0514 133.36 68.5472C133.365 68.5677 133.37 68.5863 133.375 68.6067C133.351 68.4839 133.308 68.3517 133.186 68.2995C132.515 68.6645 132.398 69.4614 132.31 70.1503C131.322 71.4759 131.733 68.6403 131.42 68.2232C130.887 68.7185 130.502 69.4297 130.666 70.1726C130.805 70.6008 130.326 71.2041 129.95 70.7554C129.619 70.1316 130.089 68.981 129.468 68.5639C129.475 68.5639 129.482 68.5621 129.489 68.5621C129.489 68.5621 129.487 68.5621 129.486 68.5621C129.498 68.5621 129.51 68.5602 129.522 68.5602C128.43 68.6719 129.515 72.5167 128.081 71.4312C127.839 70.9062 128.215 68.8823 127.278 69.21C126.618 71.7273 127.888 74.3898 127.959 76.9573C127.623 76.9871 127.273 76.976 126.947 77.0635C126.725 76.1046 126.567 75.1346 126.41 74.1626Z" fill="#707070"/>
    <path d="M89.0048 82.928C89.0043 82.9306 89.0037 82.9307 89.0034 82.9307C89.004 82.9307 89.0043 82.9306 89.0048 82.928Z" fill="#707070"/>
    <path d="M89.0319 82.9209C89.0273 82.9229 89.0229 82.9248 89.0193 82.9248C89.0229 82.9248 89.0273 82.9229 89.0319 82.9209Z" fill="#707070"/>
    <path d="M91.1838 98.975C91.3113 98.9639 91.4389 98.9546 91.5662 98.9434C91.439 98.9546 91.3104 98.9583 91.1838 98.975ZM39.9736 116.263L39.9838 116.259C39.7699 116.259 39.5613 116.255 39.3571 116.252C39.5586 116.255 39.7637 116.259 39.9736 116.263ZM83.6193 154.374C83.6237 154.374 83.6286 154.374 83.6327 154.374C83.6152 154.339 83.6016 154.303 83.5897 154.268C83.5997 154.303 83.6096 154.339 83.6193 154.374ZM88.2005 156.368C80.8285 155.986 83.5897 155.64 80.2811 154.268C78.8618 156.094 78.4149 154.374 76.9237 154.666C75.5476 155.256 73.7439 155.147 72.2421 155.009C66.2342 154.668 59.8756 154.318 54.3262 151.87C53.5507 151.676 53.7557 150.827 54.2703 150.455C54.9568 149.546 55.4616 148.554 55.8187 147.47C57.6138 143.156 57.6467 139.244 57.2265 134.686C56.7556 129.151 55.4184 123.675 54.2266 118.253C44.2816 117.89 28.9539 119.188 20.9757 112.407C14.4395 105.466 17.119 96.6905 22.9724 90.3228C26.8744 85.8673 31.2763 81.6073 36.7052 79.1235C37.9011 79.1067 38.617 81.1679 39.5593 81.8512C40.219 82.8622 42.8914 84.2884 41.2058 85.4521C39.2906 87.5635 36.7478 89.1628 34.7059 91.196L34.7297 91.17C15.0472 108.046 46.0318 102.172 55.3903 101.338C60.862 100.835 66.2332 100.085 71.7176 99.4089C75.0063 99.4331 78.1077 99.0235 81.3537 98.9825L81.3317 98.9899C83.0402 98.7982 84.8455 98.9788 86.4957 98.4928C92.4493 97.3347 98.6736 97.2472 104.67 97.9584L104.597 97.9566C110.177 98.3774 115.745 98.9471 121.341 99.083C123.937 98.962 126.675 99.7887 129.197 99.0793L129.207 99.0532H129.204C129.461 96.1599 129.024 93.7915 128.671 91.0583C128.134 87.0422 127.459 83.067 125.886 79.3022C125.061 77.3565 127.337 76.8371 128.808 76.8911C130.576 76.7905 133.962 75.4425 135.275 76.8185C135.888 76.7831 135.97 78.9466 136.398 79.5219C138.841 85.5899 139.638 91.8831 140.737 98.3141L140.731 98.2824C141.412 103.148 141.344 110.005 135.787 111.874C131.14 113.688 126.069 114.23 121.136 114.637H121.14C121.124 114.637 120.832 114.66 120.807 114.662L120.84 114.66C116.666 115.274 112.553 115.153 108.345 115.09C105.221 115.038 102.026 115.263 98.8598 115.056C98.6569 121.376 99.0565 127.476 97.2647 133.867C95.145 137.646 93.6787 142.873 95.145 147.034C95.9789 148.978 95.9874 150.568 96.7096 152.51C98.3887 155.033 95.7328 155.917 94.2706 156.053C94.0226 156.221 93.6858 156.273 93.408 156.146C91.6949 156.441 89.9344 156.368 88.2005 156.368Z" fill="#4F4F4F"/>
    <path d="M61.728 101.399C60.7999 99.9321 65.4101 99.8818 66.2577 99.5243C66.4908 99.4871 66.7233 99.4424 66.9566 99.4089C66.9568 99.4089 66.9568 99.407 66.9568 99.407C67.4172 99.3419 67.8831 99.3251 68.3445 99.2655C68.3415 99.2674 68.3385 99.2674 68.3357 99.2674C73.6345 98.679 78.9517 98.8206 84.2082 97.9473H84.2084C87.0755 97.6048 89.963 97.7481 92.8392 97.8356C93.4494 97.9157 94.3131 97.588 94.7427 98.141C94.9514 98.5338 94.7404 98.99 94.3425 99.1501C90.2929 99.3568 86.1986 99.1054 82.1544 99.6044C82.1799 99.6007 82.2061 99.5969 82.2314 99.5932C76.2763 100.323 70.2252 100.007 64.2816 100.992C64.2822 100.992 64.2827 100.992 64.2831 100.992C64.0221 101.029 63.7608 101.064 63.4991 101.096C63.5002 101.096 63.5013 101.096 63.5022 101.096C62.9064 101.109 62.2738 101.58 61.728 101.399Z" fill="#4F4F4F"/>
    <path d="M73.4946 81.3988C71.6533 81.7023 71.4735 84.6125 72.6414 85.7557C73.4886 86.1188 72.8239 87.4742 72.7768 88.178C72.291 90.2578 71.046 92.1755 69.1489 93.2182C69.0288 94.2571 68.9912 95.3202 69.0333 96.3685C73.4719 95.8304 78.0056 95.3556 82.4848 95.4469C82.5129 94.11 82.1952 92.6578 82.4598 91.3749C84.1768 90.1572 86.5878 90.3788 88.4776 89.4758C88.6028 88.3754 87.1827 82.3168 88.5315 82.3894C89.385 82.0784 90.5272 82.0282 91.1426 81.3225C88.5853 80.5666 86.9017 78.7494 86.8595 75.9993C86.8587 75.9993 86.8587 75.9993 86.8587 75.9993C86.8535 75.9398 86.8457 75.8783 86.8397 75.8188C86.8427 75.843 86.8449 75.8653 86.8477 75.8876C86.834 75.761 86.8209 75.6326 86.8092 75.5041C85.9468 75.9379 85.0458 76.327 84.1067 76.5598C84.1299 76.5542 84.1539 76.5486 84.1772 76.5449C83.3019 76.8186 80.5223 76.9843 81.5828 75.4259C83.1485 74.6513 84.9212 73.9531 86.7016 74.2212C86.626 73.4783 86.6247 72.728 86.4588 71.9981C83.5535 73.119 80.7011 74.4596 77.7537 75.5115C77.7634 77.9301 78.2722 80.3171 78.553 82.7115C79.0764 85.5099 78.6515 85.2493 76.0407 85.8562C74.6369 85.1133 75.5067 81.3169 73.4946 81.3988ZM66.3378 99.1185C66.424 97.9828 66.9763 97.0034 68.1291 96.6701C68.0342 95.7001 68.0521 94.7244 68.047 93.7507C66.1183 94.6649 64.6604 92.7192 66.2092 91.2204C64.685 91.4996 64.3268 89.6731 65.6374 89.0643C64.4363 88.8185 64.2381 87.2061 65.407 86.7481C66.0689 86.4092 66.8325 86.426 67.5263 86.1858C66.6646 81.0861 67.4013 75.4333 70.4172 71.1305C70.4159 71.1323 70.4137 71.1342 70.4122 71.1379C72.7018 67.8833 76.7313 66.4925 80.5959 67.0362C80.5944 67.0362 80.5938 67.0362 80.5923 67.0362C83.9166 67.6301 84.5766 65.623 84.9892 62.8283C85.4623 60.8007 88.6426 60.1546 88.6974 62.737C90.4542 61.443 92.3081 62.7743 91.2357 64.787C92.1951 64.4593 93.3339 64.8242 93.3558 65.9749C93.3536 65.9544 93.3514 65.9358 93.3491 65.9153C93.3551 65.9637 93.3601 66.0103 93.3651 66.0587C93.3631 66.0382 93.3609 66.0196 93.3586 65.9991C93.4556 67.2131 92.6699 68.2874 91.8283 69.0805C91.8343 69.0768 91.8393 69.0694 91.8451 69.0656C90.6036 70.3075 89.0455 71.2087 87.3635 71.7095C88.1261 73.8191 87.9178 76.1464 88.578 78.2765C88.9873 79.7194 90.5041 80.0676 91.6278 80.7733C92.1491 81.5459 91.0251 82.1846 90.3963 82.3875C90.3971 82.3875 90.3971 82.3875 90.3978 82.3875C89.9432 82.5942 89.4723 82.7599 89.0042 82.9293C89.0029 82.9293 89.0022 82.9293 89.0014 82.9293C89.0022 82.9293 89.0021 82.9293 89.0029 82.9293C88.9178 82.9628 88.832 82.9982 88.7476 83.0317C88.8893 89.9654 91.7304 90.2484 83.7823 91.9595C83.8069 91.9539 83.8324 91.9484 83.8579 91.9428C83.682 91.9837 83.5081 92.0266 83.3364 92.0806C83.395 93.2852 83.3872 94.4917 83.5123 95.6926C84.4984 96.1562 85.3884 96.9233 86.0106 97.8152C85.407 97.8189 84.806 97.8618 84.2085 97.9474C81.829 96.052 78.3996 97.3311 75.6082 97.3199C73.1872 97.9362 68.1064 96.968 66.9567 99.409C66.7234 99.4425 66.4912 99.4872 66.2577 99.5244C66.2557 99.3866 66.3008 99.2433 66.3378 99.1185Z" fill="#4F4F4F"/>
    <path d="M53.9902 115.288C53.2425 114.018 54.2615 113.459 54.3637 114.251C54.4443 114.457 54.5627 114.645 54.6921 114.824C54.9714 115.241 54.2468 115.783 53.9902 115.288Z" fill="white"/>
    <path d="M99.1939 112.043C98.842 111.415 99.4117 110.223 99.691 109.607C100.61 109.097 100.206 110.654 100.278 111.123C100.277 111.097 100.275 111.069 100.274 111.043C100.483 111.692 99.8459 112.607 99.1939 112.043Z" fill="white"/>
    <path d="M88.3808 98.5957C87.8038 98.633 86.5022 98.1508 87.5342 97.648C87.5339 97.6462 87.5337 97.6462 87.5335 97.6462C88.2231 97.7188 88.9176 97.7318 89.6077 97.6257C89.8652 97.5978 90.0731 97.797 90.0681 98.0539C89.989 98.8564 88.9398 98.579 88.3808 98.5957Z" fill="white"/>
    <path d="M137.648 71.7907C137.225 71.3755 137.539 70.6084 137.461 70.0648C137.396 69.9698 137.426 69.8469 137.48 69.7519C137.48 69.7519 137.48 69.7519 137.481 69.7519C137.861 68.9997 138.182 70.0294 138.176 70.4222C138.267 70.9212 138.525 72.0346 137.648 71.7907Z" fill="white"/>
    <path d="M165.598 73.2896C165.384 71.6772 165.59 70.076 165.542 68.4635C165.696 67.743 164.901 65.101 166.106 65.3263C166.106 65.3263 166.106 65.3263 166.106 65.3244C166.985 67.3148 166.46 69.7669 166.668 71.9155C166.667 71.9081 166.667 71.9006 166.667 71.8913C166.668 71.9192 166.668 71.9472 166.67 71.9732C166.67 71.9695 166.67 71.9658 166.67 71.9621C166.637 72.5318 166.84 73.5279 166.093 73.6806C165.855 73.7085 165.614 73.5391 165.598 73.2896Z" fill="white"/>
    <path d="M74.0068 71.083C73.2792 70.6194 74.7994 69.8336 75.1805 69.6065C75.6959 69.3942 75.894 70.1651 75.449 70.3755C74.967 70.5803 74.5395 71.0607 74.0068 71.083Z" fill="white"/>
    <path d="M75.2499 72.5134C75.165 72.4464 75.1309 72.3459 75.1352 72.2453C75.1348 72.2453 75.1345 72.2472 75.1343 72.249C75.1376 72.1969 75.1479 72.1448 75.1682 72.0964C75.1682 72.0964 75.168 72.0982 75.1678 72.0982C75.5337 71.5397 76.1172 71.076 76.6411 70.6627C77.1257 70.4002 77.3754 71.1151 76.9399 71.3423C76.9431 71.3404 76.9463 71.3386 76.9496 71.3367C76.6679 71.5341 76.4169 71.7724 76.1509 71.9902C76.1551 71.9865 76.1592 71.9828 76.1633 71.9791C76.1494 71.9902 76.1354 72.0033 76.1213 72.0144C76.1246 72.0126 76.1282 72.0089 76.1315 72.007C75.8412 72.182 75.6599 72.7778 75.2499 72.5134Z" fill="white"/>
    <path d="M76.8531 73.1366C76.078 72.5334 77.5646 71.837 77.9882 71.4833C78.1448 71.3865 78.3643 71.4144 78.4662 71.5745C78.7147 72.1629 77.8234 72.4198 77.5179 72.7885C77.5187 72.7885 77.5198 72.7885 77.5207 72.7866C77.4582 72.8443 77.3913 72.8983 77.3375 72.9635C77.3403 72.9597 77.3431 72.956 77.3459 72.9523C77.3388 72.9579 77.3319 72.9653 77.325 72.9747C77.3438 72.9542 77.3595 72.9337 77.3746 72.9095C77.3723 72.9132 77.3703 72.9151 77.368 72.9188C77.3779 72.9002 77.387 72.8834 77.3963 72.8648C77.298 73.0622 77.0731 73.2167 76.8531 73.1366Z" fill="white"/>
    <path d="M33.7617 172.756C32.864 172.389 31.6749 172.077 31.2258 171.14C31.0387 170.583 32.0214 170.155 32.1243 170.835C32.5917 171.574 34.5813 171.473 34.3697 172.449C34.2731 172.672 34.0031 172.846 33.7617 172.756Z" fill="white"/>
    <path d="M35.558 170.728C35.1495 170.205 33.5207 168.917 33.8994 168.289C34.4321 168.109 34.76 169.338 35.2301 169.602C35.4347 169.95 36.2735 170.265 35.9311 170.715C35.8272 170.816 35.6651 170.834 35.558 170.728Z" fill="white"/>
    <path d="M78.3632 161.104C77.9193 161.07 78.0778 160.396 78.468 160.428C78.9976 160.586 80.0542 159.854 80.2651 160.53C80.0479 161.18 78.9374 161.001 78.3632 161.104Z" fill="white"/>
    <path d="M80.3857 164.161C79.9016 164.008 78.6765 164.325 78.7513 163.565C79.0541 162.9 79.9899 163.487 80.5501 163.425C80.9916 163.511 80.784 164.198 80.3857 164.161Z" fill="white"/>
</svg>
