<svg width="483" height="395" viewBox="0 0 483 395" fill="none" xmlns="http://www.w3.org/2000/svg">
    <path d="M457.785 188.415C457.721 188.324 457.661 188.231 457.6 188.139C457.597 188.139 457.591 188.14 457.585 188.14C457.658 188.232 457.721 188.324 457.785 188.415ZM480.79 274.23C478.629 273.084 476.006 274.035 473.673 273.958C466.792 273.503 459.919 272.899 453.02 272.746C453.069 272.752 453.114 272.757 453.16 272.76C452.85 272.733 452.54 272.707 452.227 272.681H452.23C451.969 272.657 451.701 272.633 451.434 272.61C451.486 272.615 451.531 272.617 451.577 272.623C448.544 272.314 445.49 272.412 442.454 272.241C442.451 272.241 442.451 272.241 442.448 272.238C442.448 272.238 442.448 272.238 442.451 272.241C434.927 271.745 427.557 269.851 420.012 269.919C414.964 270.27 418.113 265.898 418.24 263.089C418.237 263.103 418.237 263.113 418.234 263.124C418.246 263.05 418.255 262.976 418.268 262.905C418.268 262.91 418.265 262.918 418.265 262.926C419.143 257.601 419.912 252.265 420.632 246.919C420.635 246.911 420.635 246.9 420.635 246.892C420.635 246.892 420.635 246.895 420.635 246.9C420.641 246.861 420.647 246.821 420.65 246.784C420.65 246.8 420.65 246.813 420.647 246.829C421.626 238.426 424.041 230.171 427.618 222.509C425.184 221.668 419.629 220.384 418.292 218.348C418.104 216.97 420.532 215.014 421.121 213.539C421.677 212.675 422.27 211.834 422.789 210.948C422.932 210.115 423.883 210.087 424.534 210.358C424.503 210.351 424.476 210.344 424.449 210.338C427.442 211.219 430.599 211.48 433.55 212.498C433.714 211.566 433.875 210.635 434.012 209.697C434.003 209.745 433.994 209.793 433.991 209.84C434.58 205.272 435.592 200.777 436.361 196.248C434.006 195.897 431.59 194.526 431.277 191.959C420.738 196.719 408.987 198.123 397.512 198.026C383.014 199.078 381.105 189.968 379.498 177.945C378.367 169.147 376.908 160.334 376.987 151.443C376.984 151.5 376.984 151.561 376.984 151.619C376.987 151.367 376.994 151.114 377 150.862C376.997 150.92 376.997 150.981 376.994 151.038C377.051 149.236 376.632 146.55 378.975 146.118C378.972 146.121 378.972 146.121 378.969 146.121C379.008 146.106 379.045 146.094 379.084 146.079C379.081 146.079 379.078 146.079 379.078 146.079C381.521 145.261 384.208 143.848 386.773 144.012C386.764 144.009 386.754 144.003 386.751 143.997C386.876 144.046 387.016 144.098 387.083 144.222C388.602 145.386 388.222 148.109 388.873 149.847C388.863 149.817 388.857 149.783 388.848 149.75C389.398 152.233 390.064 154.706 390.328 157.241C390.322 157.186 390.316 157.134 390.31 157.08C390.322 157.171 390.328 157.259 390.34 157.35C390.337 157.329 390.334 157.308 390.331 157.283C390.34 157.332 390.343 157.381 390.346 157.429C390.343 157.408 390.343 157.387 390.343 157.365C390.343 157.39 390.346 157.417 390.349 157.441V157.438C390.435 158.623 390.878 159.815 390.748 161.003C392.768 166.731 393.297 179.744 400.423 180.938C406.933 181.559 413.257 179.166 419.438 177.443C426.506 175.665 433.265 172.712 440.327 171.025C440.822 169.831 442.582 169.992 443.654 170.034C444.18 170.208 444.302 170.894 444.004 171.323C443.521 171.928 442.615 171.84 441.934 172.098C441.09 176.179 440.825 180.379 439.722 184.404C439.725 184.404 439.725 184.403 439.725 184.403C439.506 185.171 439.318 185.947 439.224 186.741C440.546 186.333 443.515 182.478 444.311 184.776C445.244 190.062 446 195.384 446.642 200.713C448.274 197.518 450.632 194.809 452.564 191.806C453.388 190.406 454.357 189.102 455.269 187.759C455.743 187.203 455.974 186.223 456.761 186.064C457.712 185.39 458.469 186.763 459.08 187.314C459.217 186.423 459.411 185.54 459.663 184.676C459.66 184.688 459.657 184.7 459.654 184.712C459.663 184.669 459.678 184.627 459.688 184.584C459.688 184.586 459.688 184.587 459.688 184.588C460.812 181.167 461.614 177.519 463.483 174.429C464.082 169.299 468.759 172.772 471.278 174.368C475.307 176.714 475.791 181.833 476.73 185.975C478.41 196.076 475.353 206.302 472.901 216.052C479.863 224.34 478.784 241.132 480.227 251.783C480.747 257.108 481.103 262.447 481.586 267.774C481.403 269.205 483.12 274.641 480.79 274.23Z" fill="#ED7A5D"/>
    <path d="M391.242 65.9848C392.52 66.9096 392.881 68.6592 392.812 70.1559C393.265 69.2732 393.858 68.4774 394.638 67.8582C393.55 67.1599 392.622 66.1903 392.174 64.9756C391.882 65.3366 391.55 65.666 391.186 65.9505C391.205 65.9611 391.223 65.9716 391.242 65.9848ZM390.857 80.2608C388.246 78.7958 390.243 72.19 389.811 69.5604C388.63 67.6553 385.237 68.8305 383.574 67.3813C379.88 67.5526 380.151 65.0678 383.55 65.0125C384.836 63.2576 387.01 65.2997 388.654 64.3459C392.57 62.9915 390.114 56.9338 393.012 55.3766C396.153 55.005 394.195 60.3882 394.533 62.2037C394.483 65.5026 398.409 65.9479 400.825 66.7278C401.918 67.2706 401.655 68.9253 400.63 69.3944C399.215 69.8713 397.439 69.4523 396.185 70.3851C393.737 72.3718 394.427 80.6402 390.857 80.2608Z" fill="#ED7A5D"/>
    <path d="M391.17 70.4032C389.5 70.008 390.804 64.9252 391.397 63.8185C392.345 62.3957 394.585 63.9186 393.42 65.2756C393.766 65.576 393.997 66.0292 394.39 66.2875C397.452 66.298 395.347 71.1304 393.015 69.0515C392.772 69.8472 392.084 70.672 391.17 70.4032Z" fill="#ED7A5D"/>
    <path d="M128.272 101.354C128.174 101.57 128.072 101.783 127.966 101.991C128.227 101.799 128.577 101.696 128.906 101.765C128.714 101.533 128.558 101.272 128.429 100.993C128.379 101.117 128.327 101.235 128.272 101.354ZM126.985 103.804C127.047 103.72 127.068 103.62 127.088 103.52C127.026 103.612 126.96 103.704 126.893 103.794C126.924 103.796 126.955 103.802 126.985 103.804ZM131.331 104.213C131.327 104.334 131.306 104.458 131.269 104.579C131.727 104.286 132.213 104.031 132.702 103.799C132.048 103.586 131.398 103.356 130.766 103.085C130.771 103.098 130.775 103.114 130.779 103.13C131.135 103.343 131.346 103.773 131.331 104.213ZM127.995 116.773C125.672 115.258 127.617 110.642 126.953 108.268C126.31 106.995 123.995 107.596 123.174 106.244C121.907 106.336 118.375 107.675 118.417 105.557C118.502 105.043 118.929 104.603 119.456 104.603C119.445 104.603 119.434 104.6 119.423 104.6C124.025 104.79 126.399 102.092 127.04 97.7255C127.034 97.7861 127.028 97.8467 127.022 97.9047C127.539 96.1973 126.16 93.0354 128.177 92.2212C128.776 92.1158 129.267 92.5769 129.324 93.1566C129.666 95.4042 129.497 97.8283 130.415 99.9389C130.398 99.9151 130.381 99.8888 130.364 99.8625C131.271 102.034 140.503 101.644 137.409 104.727C135.239 105.412 132.277 105.696 131.161 108.004C129.891 110.01 130.945 117.25 127.995 116.773Z" fill="#ED7A5D"/>
    <path d="M131.611 104.017C131.613 101.619 135.195 101.058 135.196 103.756C135.195 106.154 131.612 106.715 131.611 104.017Z" fill="#ED7A5D"/>
    <path d="M130.854 105.824C129.356 105.215 127.65 104.499 126.777 103.065C125.973 101.6 127.29 99.4395 129.015 99.8637C130.471 100.567 130.781 102.654 132.472 103.387C132.418 103.358 132.364 103.329 132.31 103.297C132.495 103.402 132.695 103.529 132.915 103.5C132.892 103.503 132.868 103.505 132.845 103.508C135.242 103.808 133.726 107.176 130.854 105.824Z" fill="#ED7A5D"/>
    <path d="M125.008 107.487C123.578 106.491 119.8 108.494 119.737 105.946C119.831 105.372 120.283 104.918 120.865 104.866C122.507 105.221 125.92 104.426 126.111 106.773C126.11 106.771 126.11 106.765 126.109 106.763C126.247 107.356 125.484 108.009 125.008 107.487Z" fill="#ED7A5D"/>
    <path d="M134.928 27.5332C134.905 27.6325 134.878 27.7318 134.847 27.8311C134.965 27.7999 135.086 27.797 135.202 27.8169C135.131 27.6183 135.059 27.4225 134.997 27.2211C134.975 27.3261 134.952 27.431 134.928 27.5332ZM132.054 40.706C131.947 40.5698 131.899 40.4137 131.885 40.2492C131.884 40.252 131.882 40.252 131.88 40.2549C131.666 37.8263 133.838 34.0331 131.32 32.4443C130.697 31.8087 129.478 32.0754 129.088 31.2583C128.066 31.0371 126.616 31.3491 125.911 30.4611C125.48 29.7036 126.053 28.5943 126.937 28.5631C133.352 30.5406 133.542 27.7999 134.478 22.4008C134.479 22.4008 134.48 22.4037 134.48 22.4037C135.233 21.544 135.513 22.92 135.406 23.5215C135.07 30.7817 141.025 28.1971 142.323 30.3249C142.405 31.2981 141.188 31.4626 140.484 31.5874C132.74 31.6867 135.255 42.6097 132.054 40.706Z" fill="#ED7A5D"/>
    <path d="M405.046 110.775C405.078 110.727 405.109 110.68 405.143 110.635C405.101 110.64 405.062 110.645 405.02 110.651C405.03 110.693 405.038 110.735 405.046 110.775ZM403.502 116.624C402.48 114.616 404.337 111.726 402.572 109.894C402.59 109.916 402.609 109.937 402.627 109.955C401.718 108.772 400.106 108.543 398.725 108.29C397.355 107.852 397.874 105.687 399.218 105.644C405.188 106.667 405.12 103.594 406.329 98.9991C408.73 97.4655 406.89 103.088 407.359 104.119C407.436 106.962 415.47 106.19 412.769 108.988C411.204 109.686 409.156 109.009 407.868 110.387C405.591 111.449 405.984 117.907 403.502 116.624Z" fill="#ED7A5D"/>
    <path d="M419.502 78.2955C416.897 77.8806 417.095 74.2481 419.047 73.0783C419.652 71.4615 421.964 71.0439 422.818 72.6795C424.103 74.9414 422.165 78.4561 419.502 78.2955Z" fill="#ED7A5D"/>
    <path d="M412.254 40.2856C412.276 37.9845 415.717 37.475 415.697 40.0637C415.673 42.3648 412.235 42.8744 412.254 40.2856Z" fill="#ED7A5D"/>
    <path d="M450.601 98.554C450.618 96.7403 453.326 96.3405 453.311 98.3798C453.343 100.173 450.535 100.565 450.601 98.554Z" fill="#ED7A5D"/>
    <path d="M97.5158 69.987C97.5445 66.8805 102.195 66.1875 102.165 69.6893C102.136 72.7985 97.486 73.4888 97.5158 69.987Z" fill="#ED7A5D"/>
    <path d="M101.221 55.6048C101.201 54.4975 102.934 54.2549 102.894 55.4967C102.914 56.604 101.181 56.8466 101.221 55.6048Z" fill="#ED7A5D"/>
    <path d="M139.679 62.3732C139.648 60.7764 142.148 60.426 142.09 62.2178C142.12 63.8146 139.621 64.165 139.679 62.3732Z" fill="#ED7A5D"/>
    <path d="M74.3416 145.035C73.4207 144.695 73.9806 143.101 74.9158 143.409C75.7705 143.76 76.8269 143.425 77.5222 142.869C79.2386 140.603 73.3472 142.919 72.7096 140.25C72.7204 140.271 72.7301 140.287 72.7409 140.308C72.7132 140.258 72.6858 140.208 72.6571 140.16C72.6677 140.179 72.6785 140.197 72.6893 140.216C72.2471 139.43 71.8753 138.556 71.8819 137.644C71.8822 137.644 71.8822 137.644 71.8824 137.644C71.918 136.967 72.923 137.122 72.6835 137.786C72.7804 138.445 73.1206 139.041 73.4394 139.618C73.4289 139.596 73.4191 139.581 73.4083 139.56C74.305 141.636 76.7602 140.084 78.328 140.956C80.8602 143.046 76.5323 145.991 74.3416 145.035Z" fill="#231F20"/>
    <path d="M75.1472 149.271C75.6465 149.229 76.1485 149.034 76.4599 148.626C76.4592 148.626 76.4584 148.628 76.4576 148.628C76.4689 148.615 76.4802 148.599 76.4913 148.586C76.4847 148.594 76.4779 148.602 76.4707 148.612C76.5693 148.483 76.6536 148.344 76.7121 148.194C75.7082 148.396 74.7299 148.705 73.7267 148.908C74.1035 149.263 74.655 149.303 75.1472 149.271ZM73.243 149.672C71.9118 148.041 73.0804 147.645 74.6524 147.543C74.64 147.545 74.6276 147.548 74.6152 147.551C75.1738 147.429 75.728 147.29 76.281 147.15C76.2758 147.15 76.2702 147.153 76.2647 147.153C76.2795 147.15 76.2945 147.145 76.3092 147.142C76.3024 147.145 76.2955 147.145 76.2887 147.147C80.1238 146.288 75.8418 152.417 73.243 149.672Z" fill="#231F20"/>
    <path d="M65.8596 141.778C67.1381 141.72 69.2861 140.83 68.6108 139.236C68.616 139.246 68.6216 139.257 68.6271 139.267C67.9344 138.387 66.7855 138.037 65.7139 138.345C65.725 138.342 65.7366 138.34 65.7482 138.337C64.3372 138.593 63.4273 139.91 63.2872 141.28C63.3285 141.328 63.362 141.383 63.3849 141.444C63.635 141.296 63.9235 141.362 64.1208 141.575C64.6307 141.91 65.2828 141.786 65.8596 141.778ZM64.3261 143.164C63.8223 143.056 63.1488 142.835 63.0015 142.282C62.9033 142.316 62.8042 142.313 62.7085 142.292C62.7104 142.292 62.7122 142.292 62.7141 142.292C62.1626 142.195 62.2171 141.499 62.3104 141.077C62.6371 138.74 64.7725 136.917 67.1629 137.251C72.4651 138.724 68.1963 143.949 64.3261 143.164Z" fill="#231F20"/>
    <path d="M66.9139 141.599C65.3648 141.195 65.7587 137.744 67.4546 138.207C68.7438 138.887 68.6298 141.751 66.9139 141.599Z" fill="#231F20"/>
    <path d="M62.6309 142.463C61.8834 141.818 62.315 140.324 63.1352 139.931C63.4469 139.812 63.5597 140.297 63.3038 140.429C63.1863 140.727 63.0324 141.22 63.3057 141.465C63.8424 141.87 63.2066 142.901 62.6309 142.463Z" fill="#231F20"/>
    <path d="M61.5557 140.058C61.9936 138.001 64.1018 136.114 66.2453 136.016C66.6348 136.051 67.4824 135.916 67.4039 136.52C67.1433 137.171 65.8416 136.485 65.2013 136.873C65.2016 136.873 65.2019 136.873 65.2021 136.873C65.1879 136.875 65.1737 136.878 65.1592 136.883C65.1682 136.881 65.1768 136.878 65.1861 136.875C63.8333 137.236 62.7382 138.351 62.0389 139.529C62.0439 139.521 62.0484 139.513 62.0534 139.502C61.9899 139.624 61.9074 139.74 61.8908 139.877C61.8916 139.871 61.8924 139.863 61.8932 139.858C61.8937 139.856 61.894 139.853 61.8942 139.85C61.8942 139.853 61.8942 139.858 61.8942 139.866C61.8942 139.861 61.8942 139.858 61.8942 139.856C62.0149 140.101 61.6555 140.377 61.5557 140.058Z" fill="#231F20"/>
    <path d="M58.2967 138.509C57.8857 138.153 58.0172 137.447 58.4888 137.199C60.6579 134.037 65.9575 130.564 69.5895 133.22C70.3099 133.668 70.7154 134.88 69.6733 135.199C68.4609 135.339 67.2489 134.767 66.0031 135.033C63.9549 135.407 61.754 136.214 60.1699 137.594C59.6993 138.066 59.0363 139.025 58.2967 138.509Z" fill="#231F20"/>
    <path d="M80.1401 135.998C80.2155 136.18 80.2598 136.37 80.275 136.559C80.4118 136.185 80.1918 135.811 79.8996 135.582C79.9986 135.711 80.0803 135.853 80.1401 135.998ZM76.4816 136.277C75.5485 137.819 77.0583 138.707 78.453 138.056C78.0451 137.708 77.7758 137.123 77.9853 136.599C77.8035 135.974 78.1542 135.142 78.8575 135.073C78.0414 134.955 77.2341 135.326 76.705 135.943C76.7137 135.932 76.7221 135.922 76.729 135.911C76.6394 136.03 76.5582 136.151 76.4816 136.277ZM144.857 159.117C146.125 159.212 147.401 159.27 148.665 159.391C148.563 156.819 147.942 154.266 148.321 151.694C148.287 150.624 149.123 149.708 148.876 148.63C148.174 149.046 147.898 149.874 147.297 150.327C145.739 150.192 147.569 148.129 147.14 147.215C146.333 147.297 146.035 148.24 145.545 148.77C143.85 149.855 144.804 146.893 144.977 146.169C144.976 146.2 144.976 146.232 144.974 146.264C144.978 146.198 144.978 146.132 144.973 146.066C144.05 146.664 143.533 147.655 143.032 148.596C140.381 150.651 142.817 144.058 143.125 143.212C140.457 145.8 141.185 150.024 140.468 153.381C140.474 153.341 140.48 153.302 140.485 153.262C140.222 155.18 140.135 157.117 139.933 159.043C141.56 159.301 143.219 158.982 144.857 159.117ZM139.667 161.894C142.746 162.2 145.861 162.26 148.906 162.822C148.878 162.281 148.848 161.744 148.811 161.209C145.839 160.695 142.774 160.816 139.822 160.224C139.769 160.78 139.717 161.338 139.667 161.894ZM52.3673 164.442C56.0556 163.272 59.9919 163.889 63.8023 163.712C67.8024 163.905 71.784 163.196 75.7793 163.625C75.8631 162.155 74.2203 156.371 75.9511 156.137C85.8945 153.449 83.6499 146.129 82.0017 138.338C82.0136 138.383 82.0244 138.43 82.0362 138.475C81.8737 137.821 81.7098 137.168 81.5411 136.514C81.2447 138.854 78.1684 140.132 76.1345 139.25C74.5636 138.188 75.4094 135.569 76.813 134.768C78.0646 133.59 80.181 133.714 81.207 135.123C80.9409 133.835 80.4877 132.604 80.0361 131.374C78.7102 131.495 77.2852 130.957 76.0639 131.856C76.0903 131.84 76.1153 131.824 76.1406 131.811C76.0926 131.838 76.0449 131.866 75.997 131.893C75.9994 131.89 76.002 131.89 76.0054 131.888C74.9928 132.291 74.5143 133.563 73.4572 133.787C70.8325 132.528 75.334 128.781 77.1874 129.242C77.1598 129.245 77.1324 129.247 77.1047 129.25C77.8459 129.15 78.5811 129.25 79.3146 129.366C79.0082 128.512 78.6712 127.674 78.2857 126.852C77.5071 126.634 76.798 126.233 76.1369 125.772L76.1382 125.775C71.706 122.51 73.3831 129.276 68.1162 128.731C61.5771 127.474 66.1263 131.229 58.5227 131.089C57.6426 132.668 58.4439 134.82 55.5007 134.662C55.4678 135.057 55.4625 135.458 55.5065 135.85L55.5052 135.848C55.6227 136.87 55.6285 137.906 55.9086 138.904C55.9049 138.883 55.9002 138.865 55.8954 138.846C56.0388 139.5 56.4163 140.109 56.3953 140.788C57.1963 142.556 58.9061 145.123 57.494 146.93C56.0656 148.121 54.3495 146.704 53.8199 145.278C53.1232 142.649 49.5297 142.662 49.5123 145.568C49.1816 147.708 51.0582 148.538 52.8102 148.917C54.2726 149.81 52.9161 151.797 53.0782 153.151C52.7846 156.321 52.4279 159.486 52.3923 162.677C52.3923 162.674 52.3923 162.674 52.3936 162.674C52.3828 163.264 52.3757 163.852 52.3673 164.442ZM68.5997 170.234C69.2374 172.476 71.7714 178.742 73.1484 173.364H73.1473C73.4543 172.307 73.7502 171.245 73.8972 170.152V170.155C73.8993 170.131 73.9051 170.107 73.908 170.081C73.9067 170.089 73.9056 170.099 73.9046 170.107C74.1375 168.524 74.3968 166.927 74.3412 165.319C71.9924 165.159 69.6492 165.175 67.2991 165.343C67.5542 166.194 67.7402 167.064 67.9476 167.928C67.9476 167.928 67.9476 167.928 67.9476 167.925C68.1415 168.703 68.3462 169.475 68.5997 170.234ZM61.59 177.105C63.8329 178.223 64.8932 167.809 65.9129 166.113C65.9102 166.126 65.9065 166.136 65.9042 166.147C65.911 166.12 65.9181 166.094 65.9271 166.068C65.9245 166.076 65.9224 166.081 65.92 166.089C65.9845 165.857 66.0491 165.62 66.0971 165.383C62.756 165.309 59.4183 165.406 56.082 165.209C56.5718 166.468 56.9201 167.781 57.4471 169.029C57.4461 169.027 57.4448 169.024 57.4434 169.022C58.387 171.801 59.8294 174.307 61.3869 176.779C61.37 176.747 61.3534 176.718 61.3365 176.689C61.4166 176.829 61.4957 176.974 61.59 177.105ZM52.5612 165.707C52.4974 165.723 52.4294 165.738 52.3588 165.754C52.3607 165.92 52.3752 166.084 52.3001 166.242C56.1154 176.924 61.6996 186.873 65.6852 197.5C65.8947 197.318 66.1089 197.141 66.3326 196.973C66.3026 196.994 66.2728 197.018 66.2441 197.039C67.5252 196.072 68.3955 194.578 69.9804 194.043C71.3909 193.521 72.0602 195.207 71.671 196.335C71.9184 196.114 72.165 195.895 72.4117 195.674C72.4464 191.937 73.5781 188.233 74.0263 184.512C75.1319 178.186 75.6402 171.762 76.3474 165.383C76.149 165.372 75.9514 165.33 75.7517 165.33C75.0118 168.719 75.0244 172.368 73.4127 175.514C69.4571 180.536 67.1558 169.773 66.6472 167.08C65.0128 171.865 63.8215 185.432 58.1554 174.542C58.1564 174.542 58.1578 174.544 58.1591 174.547C58.1443 174.523 58.1333 174.502 58.1193 174.478C58.1193 174.478 58.1193 174.478 58.1206 174.478C58.1098 174.46 58.099 174.442 58.0882 174.423C58.0919 174.428 58.0956 174.436 58.099 174.442C56.669 171.548 55.78 168.394 55.0293 165.269C54.2976 165.343 53.5746 165.467 52.8589 165.636C52.8674 165.636 52.8758 165.633 52.8853 165.63C52.8574 165.636 52.8297 165.644 52.8028 165.649C52.8136 165.649 52.8244 165.646 52.8352 165.644C52.7441 165.665 52.6518 165.686 52.5612 165.707ZM100.122 203.795C100.133 203.803 100.169 203.85 100.178 203.86C100.015 203.652 99.8589 203.444 99.7068 203.239C99.8433 203.426 99.9819 203.61 100.122 203.795ZM35.2086 211.607L35.216 211.665C35.1833 211.365 35.1544 211.078 35.1283 210.801C35.1549 211.07 35.1752 211.338 35.2086 211.607ZM70.124 195.355C66.7811 198.443 63.5233 201.768 59.8399 204.561C62.1607 207.275 64.7712 209.868 66.6019 212.93C67.1592 212.379 67.7357 211.847 68.2935 211.294C68.2659 211.32 68.2398 211.346 68.2134 211.373C71.8523 207.692 76.2731 204.509 78.8216 199.916C77.8132 200.593 76.774 201.241 75.7901 201.958C75.7946 201.953 75.7996 201.95 75.8044 201.945C75.3915 202.338 74.3928 203.015 74.3436 202C75.0545 200.232 77.2525 198.962 77.3608 196.97C75.6497 198.074 74.245 199.674 72.5381 200.786C70.476 200.641 73.7512 197.787 73.9894 196.912C73.9847 196.92 73.9786 196.928 73.9739 196.936C74.0988 196.68 74.3391 196.417 74.2993 196.122C74.2993 196.122 74.2993 196.122 74.2982 196.122C73.6769 195.861 73.1858 196.678 72.7513 197.018C72.7597 197.007 72.7679 196.999 72.7763 196.989C72.6649 197.102 72.5531 197.213 72.4414 197.323C72.4472 197.321 72.4533 197.313 72.458 197.307C71.545 197.84 70.6671 200.206 69.5127 199.502C69.1393 199.086 69.4134 198.493 69.7817 198.177C69.7794 198.18 69.7759 198.182 69.7722 198.185C70.514 197.579 70.8217 196.454 70.6789 195.524C70.6776 195.524 70.6776 195.521 70.6768 195.521C70.6768 195.518 70.6768 195.518 70.6755 195.518C70.6091 195.252 70.3343 195.284 70.1227 195.347C70.1514 195.342 70.1791 195.334 70.2065 195.329C70.1791 195.337 70.1514 195.344 70.124 195.355ZM2.69953 213.541C2.77829 213.006 2.8634 212.477 2.95481 211.952C2.86525 212.482 2.76933 213.009 2.69953 213.541ZM65.0465 214.645C65.2989 214.35 65.549 214.055 65.8062 213.765C63.8642 211.417 61.9547 208.862 59.9595 206.485C59.9748 206.506 59.9919 206.527 60.0072 206.548C59.6694 206.116 59.3132 205.697 58.9556 205.281C58.7309 205.46 58.5058 205.639 58.2774 205.813C58.2869 205.805 58.2977 205.797 58.3072 205.789C58.2344 205.845 58.1615 205.9 58.0882 205.958C58.1217 205.932 58.1565 205.905 58.1902 205.879C58.1422 205.916 58.0945 205.953 58.0476 205.987C60.2238 208.804 62.6877 211.388 64.7748 214.271C64.7667 214.261 64.7582 214.25 64.7488 214.239C64.8539 214.374 64.9495 214.508 65.0465 214.645ZM24.0345 220.532C23.3351 223.493 20.9563 228.566 22.282 231.337C24.059 231.153 25.3588 229.741 26.6546 228.645C29.1752 226.484 31.6765 224.3 34.2493 222.2C33.7247 216.4 33.5616 210.479 33.7347 204.638C33.7336 204.669 33.7336 204.701 33.7326 204.733C33.6901 203.402 33.8714 201.979 33.4264 200.706C30.305 203.099 29.4632 207.241 27.7086 210.582C27.7133 210.574 27.717 210.564 27.7218 210.556C26.7972 212.98 26.154 215.504 25.0513 217.862C25.0576 217.849 25.0621 217.836 25.0681 217.826C24.695 218.716 24.3433 219.615 24.0345 220.532ZM39.5839 248.283C39.5839 248.277 39.5839 248.275 39.5839 248.27C39.4685 248.272 39.3536 248.272 39.2393 248.27C39.3544 248.275 39.469 248.277 39.5839 248.283ZM37.0786 390.461C37.0813 390.453 37.0834 390.447 37.0858 390.439C36.9733 390.434 36.8623 390.418 36.7498 390.4C36.8586 390.421 36.9688 390.442 37.0786 390.461ZM47.919 393.973C44.2678 393.659 41.098 390.737 39.3626 387.644C38.4309 390.713 39.0786 393.535 34.7504 391.852C32.7276 389.731 34.9512 386.195 35.5219 383.773C35.8924 383.091 35.6945 381.987 36.5285 381.655C37.0497 374.295 38.8491 367.157 40.2013 359.927C41.6168 348.115 43.4367 336.329 43.7366 324.421C44.5386 315.579 43.5714 306.823 42.9379 298.014C42.7516 282.023 40.5436 266.171 39.6954 250.238C36.7511 250.312 36.193 250.019 36.4947 246.989C36.4937 247.034 36.4924 247.081 36.4911 247.126C36.5021 246.148 36.4774 245.168 36.5511 244.188C33.8293 246.852 31.1677 249.724 27.8235 251.608H27.8222C27.7415 251.658 27.6556 251.703 27.5747 251.75H27.5758C27.5566 251.761 27.5352 251.771 27.516 251.782C27.5186 251.782 27.5207 251.779 27.5218 251.779C27.4894 251.798 27.4588 251.816 27.4264 251.835C27.4332 251.829 27.4396 251.827 27.4454 251.824C27.3998 251.85 27.3547 251.874 27.3091 251.9C27.3413 251.882 27.3724 251.866 27.4048 251.848C23.0551 254.549 17.7747 256.448 12.6186 255.418C7.68687 254.188 2.84601 250.68 1.54863 245.566C0.0908559 240.947 0.461405 236.072 0.078313 231.306C-0.279668 221.773 0.531072 212.016 3.72932 202.973C9.76424 184.112 26.3076 169.272 45.756 165.454C45.7525 165.454 45.7502 165.454 45.7475 165.454C45.7641 165.451 45.7831 165.446 45.7992 165.443C45.7944 165.443 45.7908 165.446 45.786 165.446C45.8464 165.433 45.908 165.42 45.9689 165.404C46.0089 165.396 46.0485 165.385 46.0875 165.375C46.0658 165.38 46.0442 165.385 46.0239 165.391C47.6489 164.982 49.2902 164.445 50.9889 164.587C50.7742 160.919 50.8053 157.236 51.123 153.578C51.123 153.61 51.122 153.644 51.122 153.676C51.0398 152.408 51.4229 151.215 51.6269 149.979C48.2439 149.66 46.9817 145.073 49.1766 142.749C47.8091 139.118 50.5241 137.874 50.8256 134.852C50.7373 133.606 50.4709 132.32 50.7821 131.081C51.068 129.089 52.757 128.101 54.0294 126.781C54.9102 125.664 55.1658 124.17 56.1154 123.105C58.1066 121.237 60.8069 119.345 63.6621 119.685C67.2709 120.489 69.314 116.534 72.6554 116.484C76.4518 117.725 75.1509 117.003 78.6959 116.244C81.2613 115.862 83.516 118.934 81.5182 121.013C83.1002 122.945 82.3482 125.914 79.9834 126.784C81.099 129.174 82.262 131.577 82.96 134.127C83.0048 134.314 83.0509 134.501 83.0949 134.688C83.0878 134.659 83.0807 134.628 83.0733 134.602C83.0841 134.646 83.0963 134.694 83.1081 134.739C83.1081 134.739 83.1081 134.739 83.1081 134.741C83.1081 134.739 83.1081 134.739 83.1081 134.739C85.2037 143.755 87.7377 153.863 76.5342 157.481C76.5461 157.689 76.5677 157.897 76.5904 158.102C76.5867 158.068 76.5833 158.034 76.5796 157.997C76.8241 159.762 76.9371 161.536 77.2148 163.296C90.5984 159.317 102.425 168.914 110.227 178.897C110.403 179.121 110.578 179.345 110.752 179.569C110.727 179.538 110.701 179.503 110.674 179.469C118.224 188.517 124.551 198.485 131.299 208.121C131.295 208.116 131.291 208.111 131.288 208.105C131.764 208.614 132.17 209.365 132.886 209.536C133.998 201.718 134.222 193.756 135.565 185.946C135.565 185.948 135.564 185.954 135.564 185.956C137.715 172.919 137.896 159.644 139.976 146.614C140.509 142.011 146.358 138.38 143.535 145.824C144.542 144.467 146.413 144.348 146.111 146.459C147.373 145.386 148.547 146.385 148.248 147.876C150.117 146.108 150.236 149.713 149.632 150.819C151.834 170.226 150.752 189.832 148.084 209.17C148.086 209.154 148.089 209.136 148.091 209.117C148.08 209.194 148.069 209.267 148.058 209.341C148.06 209.333 148.061 209.328 148.062 209.32C147.497 213.71 146.633 218.086 144.9 222.181C144.915 222.144 144.93 222.107 144.946 222.07C144.114 223.92 143.055 225.678 141.848 227.306C141.857 227.296 141.865 227.285 141.874 227.274C141.854 227.298 141.835 227.322 141.817 227.346C141.804 227.359 141.795 227.377 141.782 227.393C141.791 227.38 141.798 227.369 141.806 227.359C134.414 237.371 123.649 230.244 116.364 224.097C109.419 217.965 102.96 211.294 97.5485 203.76C98.3193 217.536 98.5496 231.414 97.8239 245.195C97.8239 245.189 97.825 245.184 97.825 245.176C98.0668 247.461 96.928 248.528 94.7144 248.683C95.4978 257.515 94.5002 266.387 94.7624 275.238C95.1732 290.589 94.4781 305.895 93.3205 321.202C93.3205 321.178 93.3205 321.151 93.3205 321.128C92.8457 342.457 91.1652 363.766 90.1276 385.077C93.0739 385.025 96.181 382.435 98.9975 383.457C100.491 387.583 95.1234 390.144 91.6519 389.963C88.2699 390.194 84.9879 388.993 82.437 386.78C82.3822 388.258 83.6781 390.724 81.4608 391.138C78.8954 391.409 77.223 391.667 77.3297 388.469C77.3345 388.513 77.3395 388.558 77.3453 388.606C77.2784 388.018 77.2185 387.43 77.1574 386.845C77.1574 386.848 77.1574 386.848 77.1574 386.851C75.9996 371.075 76.4302 355.232 76.3596 339.417C75.8323 327.665 75.0007 315.924 74.4382 304.169C74.0279 293.166 73.2846 282.192 72.3634 271.225C71.4739 265.499 72.4691 259.099 69.7591 253.85C68.8487 253.676 67.6857 253.097 66.8506 253.732C66.8899 253.703 66.9297 253.671 66.9679 253.642C65.2423 255.579 64.2028 258.103 63.9435 260.675C63.9446 260.667 63.9446 260.662 63.9459 260.654C62.4956 272.426 62.6395 284.313 62.8572 296.151C62.8074 308.117 62.2013 320.076 61.4058 332.013C59.6707 350.647 53.5498 368.612 47.0806 386.065C48.7279 387.841 51.0498 388.748 52.767 390.413C54.529 393.246 49.9795 394.342 47.919 393.973Z" fill="#231F20"/>
    <path d="M444.226 159.081C444.824 159.008 445.244 158.503 445.665 158.116C444.948 158.001 444.294 157.721 443.639 157.425C443.631 157.532 443.628 157.637 443.625 157.744C443.625 157.741 443.625 157.738 443.625 157.735C443.608 158.229 443.521 159.081 444.226 159.081ZM443.713 160.111C442.144 160.049 442.491 155.908 443.71 156.156C444.35 156.029 444.917 156.723 445.563 156.793C447.58 157.163 447.035 158.097 445.862 159.185C445.879 159.168 445.893 159.152 445.913 159.137C445.349 159.713 444.567 160.328 443.713 160.111Z" fill="#231F20"/>
    <path d="M445.184 154.751C443.441 153.226 446.159 151.007 447.086 149.72C447.066 149.743 447.049 149.763 447.032 149.786C447.556 149.083 448.163 148.397 448.424 147.549C448.772 146.827 449.744 147.399 449.362 148.074C448.443 150.211 446.321 151.667 445.623 153.884C445.629 153.892 445.638 153.898 445.643 153.906C446.349 153.606 446.941 153.07 447.446 152.503C447.605 152.322 447.888 152.277 448.064 152.467C448.528 153.218 447.284 153.682 446.87 154.15C446.882 154.142 446.893 154.133 446.907 154.125C446.411 154.453 445.813 155.017 445.184 154.751Z" fill="#231F20"/>
    <path d="M443.45 149.893C445.349 149.787 445.836 148.191 444.5 146.906C444.5 146.906 444.502 146.906 444.502 146.909C444.3 146.549 443.968 146.52 443.594 146.585C443.613 146.582 443.633 146.582 443.65 146.58C442.39 146.484 441.023 147.682 441.976 148.898C441.976 148.898 441.976 148.895 441.973 148.895C442.272 149.471 442.73 150.037 443.45 149.893ZM441.892 150.473C440.702 149.449 440.173 147.308 441.757 146.405C441.754 146.408 441.754 146.408 441.751 146.408C443.872 144.678 446.314 146.039 446.325 148.673C445.993 150.49 443.391 151.536 441.892 150.473Z" fill="#231F20"/>
    <path d="M455.775 153.086C457.179 152.981 458.068 151.443 456.996 150.344C457.01 150.362 457.022 150.379 457.037 150.394C457.016 150.371 456.999 150.35 456.984 150.327C456.984 150.33 456.984 150.333 456.987 150.336C456.39 149.412 455.026 149.409 454.164 149.942C454.17 149.94 454.179 149.934 454.19 149.928C454.17 149.94 454.152 149.948 454.138 149.957C454.144 149.954 454.152 149.948 454.161 149.942C451.72 151.245 453.683 153.36 455.775 153.086ZM455.172 154.111C453.348 154.062 451.566 152.596 452.402 150.674C452.402 150.677 452.399 150.679 452.399 150.682C456.579 144.256 462.65 153.572 455.172 154.111Z" fill="#231F20"/>
    <path d="M453.555 152.781C452.295 152.189 453.385 150.176 454.446 149.989C456.551 149.951 455.269 153.494 453.555 152.781Z" fill="#231F20"/>
    <path d="M442.296 149.644C440.285 149.456 441.631 146.604 443.059 146.551C444.913 146.671 443.701 149.692 442.296 149.644Z" fill="#231F20"/>
    <path d="M441.819 146.586C441.593 146.185 441.654 145.696 441.593 145.252C441.593 145.266 441.593 145.28 441.596 145.294C441.584 145.197 441.573 145.102 441.545 145.01C441.548 145.021 441.554 145.032 441.556 145.043C441.372 144.663 441.953 144.387 442.011 144.862C442.009 144.862 442.009 144.859 442.009 144.856C442.142 145.191 442.218 145.543 442.346 145.88C442.346 145.875 442.343 145.872 442.343 145.869C442.349 145.886 442.355 145.903 442.36 145.919C442.357 145.914 442.355 145.905 442.352 145.9C442.701 146.285 442.251 147.058 441.819 146.586Z" fill="#231F20"/>
    <path d="M442.712 146.613C442.631 146.043 441.954 144.31 442.964 144.369C443.515 144.691 443.398 145.542 443.672 146.068C443.899 146.636 443.048 147.246 442.712 146.613Z" fill="#231F20"/>
    <path d="M443.843 146.731C443.801 146.105 443.806 145.479 443.803 144.85C443.803 144.858 443.803 144.867 443.803 144.878C443.691 144.12 444.868 143.935 444.795 144.774C444.795 144.749 444.797 144.724 444.797 144.698C444.674 145.479 445.432 146.717 444.508 147.166C444.213 147.259 443.876 147.051 443.843 146.731Z" fill="#231F20"/>
    <path d="M456.666 149.581C456.464 149.087 457.244 148.919 457.545 148.691C457.542 148.691 457.539 148.693 457.536 148.693C457.565 148.676 457.594 148.662 457.626 148.644C457.623 148.644 457.62 148.647 457.614 148.65C457.628 148.641 457.646 148.633 457.66 148.624C457.654 148.627 457.652 148.63 457.643 148.633C458.134 148.153 458.978 148.497 458.38 149.118C457.88 149.303 457.172 149.861 456.666 149.581Z" fill="#231F20"/>
    <path d="M457.032 150.677C457.061 150.098 457.889 150.292 458.237 149.93C458.234 149.93 458.231 149.933 458.228 149.936C458.242 149.927 458.257 149.919 458.269 149.91C458.567 149.76 458.827 149.537 459.137 149.415C459.609 149.296 459.742 149.974 459.383 150.191C458.822 150.318 457.301 151.505 457.032 150.677Z" fill="#231F20"/>
    <path d="M457.546 152.027C457.082 151.047 458.343 151.178 458.894 150.905C458.894 150.908 458.891 150.908 458.888 150.908C458.897 150.905 458.905 150.902 458.914 150.899C458.911 150.899 458.911 150.899 458.908 150.902C459.326 150.752 460.088 150.288 460.248 150.972C460.297 151.242 460.138 151.523 459.88 151.613C459.149 151.697 458.198 152.552 457.546 152.027Z" fill="#231F20"/>
    <path d="M460.455 148.896C460.156 148.844 460.037 148.53 460.086 148.26C461.173 143.749 456.7 144.865 454.476 146.769C454.128 146.876 454.008 146.35 454.284 146.188C456.066 144.461 460.185 142.502 461.135 146.036C461.182 146.865 461.551 148.716 460.455 148.896Z" fill="#231F20"/>
    <path d="M447.639 180.774C447.651 180.792 447.663 180.81 447.675 180.828C446.103 177.561 444.778 174.117 443.338 170.85C443.302 169.972 443.975 169.167 444.084 168.247C443.732 168.599 443.329 168.89 442.902 169.14C442.908 169.137 442.911 169.134 442.917 169.131C438.433 171.535 431.918 172.067 427.677 168.956C426.472 168.214 425.507 165.302 427.704 165.428C427.184 164.208 426.712 162.813 427.335 161.539C427.731 160.553 429.138 159.664 429.895 160.794C429.874 159.084 431.957 157.392 433.276 159.021C434.031 160.046 433.598 161.503 433.841 162.708C433.838 162.678 433.832 162.645 433.829 162.618C433.856 162.889 433.904 163.162 433.973 163.427C434.04 163.348 434.097 163.267 434.154 163.18C434.136 163.213 434.118 163.246 434.097 163.279C434.764 160.316 433.739 157.067 434.523 154.011C436.23 148.231 437.514 141.884 441.304 136.937C441.301 136.937 441.301 136.937 441.301 136.937C441.328 136.904 441.349 136.874 441.373 136.841C441.574 136.583 441.796 136.342 442.025 136.108C442.019 136.111 442.016 136.114 442.013 136.117C445.842 132.384 451.185 129.655 456.622 129.818C456.616 129.818 456.61 129.818 456.604 129.818C456.7 129.824 456.799 129.833 456.898 129.842C456.868 129.839 456.841 129.836 456.811 129.836C477.584 130.088 473.662 145.491 468.562 159.769C470.988 157.163 472.526 159.312 471.49 162.053C474.098 160.25 473.96 164.172 472.899 165.569C477.657 164.773 472.058 172.599 470.366 173.455C465.193 178.655 457.262 173.786 457.082 167.138C456.721 158.864 460.499 151.186 464.003 143.919C459.985 143.032 456.012 141.875 452.123 140.514C452.036 140.559 451.94 140.547 451.849 140.505C451.855 140.505 451.858 140.508 451.864 140.508C450.984 140.36 451.119 139.254 451.982 139.233C452.463 137.986 453.006 136.76 453.427 135.489C450.557 138.494 451.017 140.622 446.302 138.942C446.332 138.951 446.365 138.96 446.395 138.969C445.977 138.858 445.559 138.756 445.141 138.644C445.174 138.653 445.205 138.662 445.238 138.668C444.637 138.515 444.032 138.374 443.428 138.239C442.957 139.561 442.497 140.877 442.022 142.197C442.437 141.65 442.923 141.136 443.522 140.784H443.519C443.528 140.781 443.534 140.775 443.54 140.772H443.543C443.558 140.76 443.576 140.751 443.594 140.742C446.35 139.041 447.963 142.025 447.825 144.493C447.882 145.088 446.987 145.397 446.848 144.718C446.797 144.267 446.776 143.814 446.722 143.363V143.366C446.722 143.363 446.722 143.36 446.722 143.357C446.713 143.3 446.71 143.243 446.704 143.185C446.704 143.203 446.707 143.221 446.71 143.24C446.623 140.511 443.461 140.979 442.298 142.75C442.232 142.948 441.926 143.014 441.83 142.807C439.963 150.44 432.798 163.577 446.494 162.618C446.464 162.609 446.431 162.6 446.401 162.591C447.93 163.033 445.959 165.966 445.929 167.102C445.932 167.099 445.935 167.093 445.935 167.09C445.613 168.328 445.325 169.579 444.94 170.799C444.952 170.757 444.964 170.715 444.976 170.67C444.934 170.82 444.895 170.973 444.823 171.108C445.95 174.051 447.468 176.864 448.327 179.905C448.853 179.526 449.394 179.166 449.908 178.775C449.887 178.793 449.866 178.808 449.845 178.823C450.776 178.159 458.518 171.547 458.87 172.788C459.711 173.948 454.112 176.65 453.214 177.675C452.06 178.162 448.534 182.018 447.639 180.774Z" fill="#231F20"/>
    <path d="M440.03 153.545C439.771 152.946 440.489 152.428 440.854 152.038C441.734 151.632 441.534 152.776 440.965 153.055C440.977 153.041 440.993 153.027 441.007 153.013C440.915 153.11 440.821 153.208 440.734 153.314C440.737 153.311 440.74 153.308 440.74 153.305C440.69 153.628 440.244 153.871 440.03 153.545Z" fill="#231F20"/>
    <path d="M441.885 153.47C441.542 153.098 442.87 151.633 443.219 152.175C443.546 152.6 442.257 153.774 441.885 153.47Z" fill="#231F20"/>
    <path d="M450.094 154.909C449.849 154.285 451.064 152.902 451.594 153.622C451.827 154.146 451.184 154.402 450.925 154.755C450.845 155.142 450.282 155.313 450.094 154.909Z" fill="#231F20"/>
    <path d="M451.851 155.553C451.12 155.087 452.023 154.587 452.429 154.318C452.411 154.33 452.394 154.344 452.38 154.355C452.84 153.749 453.635 154.204 453.109 154.83C452.74 155.104 452.343 155.619 451.851 155.553Z" fill="#231F20"/>
    <path d="M453.784 155.872C453.411 155.448 454.34 154.436 454.761 154.797C455.134 155.175 454.179 156.282 453.784 155.872Z" fill="#231F20"/>
    <path d="M437.941 187.293C438.414 182.854 439.448 178.283 440.334 173.846C440.796 172.382 440.719 169.718 442.939 170.355C443.347 170.383 443.956 170.363 444.114 170.797C444.434 171.822 442.962 171.714 442.33 171.861C442.251 172.122 442.183 172.385 442.109 172.646C442.112 172.634 442.118 172.62 442.121 172.606C441.506 175.05 440.982 177.519 440.6 180.008C440.609 179.968 440.612 179.928 440.62 179.889C440.592 180.067 440.566 180.248 440.541 180.427C440.541 180.418 440.541 180.413 440.541 180.404C440.311 182.168 440.02 183.921 439.513 185.628C442.135 183.561 445.023 181.877 447.69 179.892C447.685 179.897 447.682 179.9 447.676 179.903C447.962 179.546 448.54 179.325 448.84 179.787C449.327 181.279 446.685 182.168 445.742 182.987C444.256 183.57 438.915 189.004 437.941 187.293Z" fill="#231F20"/>
    <path d="M458.844 188.662C456.902 187.158 454.973 185.677 452.771 184.554C451.249 183.393 449.838 182.055 448.202 181.064C448.205 181.064 448.208 181.061 448.211 181.061C447.677 180.786 447.844 179.85 448.41 179.712C449.093 179.551 449.653 180.176 450.205 180.487C450.175 180.466 450.146 180.448 450.117 180.428C452.955 182.75 456.336 184.266 458.973 186.826C459.65 182.313 461.82 178.229 462.744 173.801C462.835 173.34 463.275 172.921 463.767 173.006C465.764 173.669 461.758 179.768 461.644 181.46C461.02 183.349 460.53 185.278 460.166 187.231C460.14 187.923 459.732 189.105 458.844 188.662Z" fill="#231F20"/>
    <path d="M456.374 174.634C456.374 174.634 456.374 174.634 456.374 174.637C456.855 173.678 457.957 173.144 458.676 172.361C459.062 172.036 459.737 171.129 460.175 171.848C460.378 172.97 458.578 173.318 457.972 174.092C457.505 174.327 456.464 175.881 456.374 174.634Z" fill="#231F20"/>
    <path d="M418.794 217.297C415.765 215.872 413.051 213.892 410.294 212.01C410.3 212.016 410.305 212.018 410.31 212.021C410.289 212.008 410.27 211.994 410.252 211.978C410.262 211.986 410.27 211.994 410.281 212.002C408.006 211.119 405.25 206.572 409.807 208.349C409.055 207.541 408.282 206.16 408.932 205.103C409.839 204.265 411.389 206.321 412.235 206.751C410.094 198.958 420.317 209.355 422.388 210.089C422.881 210.45 423.999 210.284 424.005 211.009C423.98 211.312 423.691 211.603 423.376 211.496C419.546 210.945 416.5 208.1 413.377 206.007C416.559 210.723 412.508 208.694 410.201 206.955C410.902 208.073 412.106 208.793 412.89 209.773C412.802 211.51 409.473 209.136 408.496 209.104C411.408 211.868 415.339 213.514 418.727 215.674C419.91 215.901 420.164 217.532 418.794 217.297Z" fill="#231F20"/>
    <path d="M379.089 147.488C378.133 147.238 379.1 143.354 378.905 142.332C378.902 142.358 378.902 142.384 378.902 142.411C378.997 138.814 378.873 135.225 378.41 131.652C378.412 131.663 378.412 131.671 378.412 131.681C378.333 130.983 378.223 130.288 378.149 129.589C378.151 129.618 378.154 129.65 378.159 129.682C378.091 127.373 377.248 124.81 378.101 122.607C379.782 121.408 380.354 125.734 380.731 126.78C381.158 125.495 382.43 126.037 382.662 127.126C383.2 125.658 384.399 126.359 384.359 127.674C386.762 125.769 385.661 132.951 386.011 134.082C386.327 136.925 386.775 139.747 387.389 142.54C387.953 143.486 387.144 145.122 385.99 144.382C385.221 143.033 385.648 141.112 385.337 139.562C385.342 139.599 385.347 139.636 385.35 139.673C384.905 136.501 384.649 133.289 384.949 130.087C384.949 130.09 384.949 130.093 384.949 130.095C384.955 129.6 384.944 129.11 384.902 128.617C384.905 128.641 384.907 128.662 384.913 128.686C384.891 128.525 384.876 128.364 384.823 128.211C384.357 128.57 384.57 129.157 384.309 129.589V129.587C383.145 130.232 383.5 128.024 383.35 127.394C382.968 127.987 383.097 128.759 382.76 129.336C382.76 129.334 382.76 129.334 382.76 129.331C381.326 130.127 382.143 127.421 381.405 126.918C381.179 127.397 381.026 127.914 380.921 128.433C380.921 128.425 380.921 128.417 380.923 128.409C380.749 129.136 379.977 128.759 379.948 128.166C379.743 126.625 379.432 125.068 378.815 123.637C378.823 124.839 378.966 126.024 379.163 127.207C379.161 127.202 379.161 127.194 379.161 127.186C379.221 127.755 379.258 128.327 379.321 128.896C379.319 128.865 379.313 128.833 379.311 128.801C379.811 133.705 379.904 138.635 379.88 143.56C379.69 144.627 380.117 146.956 379.089 147.488Z" fill="#231F20"/>
    <path d="M431.541 378.992C430.416 361.085 430.997 343.03 430.167 325.081C430.027 306.882 428.694 288.653 430.728 270.517C430.737 270.098 430.86 269.489 431.38 269.529C432.168 269.913 431.78 271.178 431.862 271.903C430.118 299.293 432.708 326.702 432.546 354.113C432.678 360.537 432.812 366.961 433.077 373.379C433.042 374.818 434.055 381.037 431.541 378.992Z" fill="#231F20"/>
    <path d="M425.667 388.723C423.48 387.853 426.839 385.078 427.438 383.914C427.43 383.922 427.427 383.93 427.422 383.935C427.441 383.909 427.464 383.88 427.483 383.853C427.483 383.856 427.48 383.859 427.477 383.861C428.805 381.919 430.251 380.093 431.838 378.362C432.022 377.345 433.325 378.051 432.803 378.847C431.11 381.176 429.358 383.482 427.628 385.798C427.645 385.78 427.659 385.761 427.673 385.742C427.291 386.238 426.919 386.747 426.576 387.268C427.157 386.936 427.695 386.531 428.234 386.125C428.208 386.143 428.186 386.159 428.161 386.177C429.531 385.058 430.839 383.856 432.112 382.626C432.095 382.639 432.078 382.654 432.067 382.67C433.878 380.826 435.883 379.197 437.711 377.366C439.619 375.511 439.764 380.093 440.158 381.171C440.155 381.168 440.155 381.163 440.152 381.158C440.16 381.19 440.169 381.224 440.177 381.255C440.177 381.247 440.174 381.237 440.172 381.226C440.191 381.305 440.211 381.382 440.23 381.461C440.222 381.427 440.211 381.395 440.202 381.361C440.219 381.421 440.236 381.482 440.25 381.543C440.239 381.511 440.233 381.477 440.225 381.442C440.255 381.566 440.286 381.693 440.317 381.817C440.314 381.803 440.311 381.79 440.308 381.777C440.445 382.315 440.559 382.86 440.682 383.403C440.755 382.976 440.76 382.544 440.777 382.112C440.777 382.146 440.774 382.175 440.774 382.209C440.797 381.074 440.783 379.938 440.805 378.805C440.805 378.837 440.805 378.868 440.805 378.9C441.17 377.487 439.84 373.171 441.221 372.734C441.935 372.65 441.949 373.464 441.896 373.97C441.896 373.936 441.896 373.904 441.896 373.87C441.871 375.73 442.13 377.582 441.993 379.445C441.993 379.414 441.996 379.382 441.996 379.35C441.854 380.67 442.537 387.01 439.979 385.39C438.818 383.405 438.908 380.908 438.227 378.739C435.387 381.053 428.736 388.488 425.667 388.723Z" fill="#231F20"/>
    <path d="M440.859 375.517C440.219 363.252 442.731 350.752 442.999 338.386C442.999 338.423 442.999 338.46 442.999 338.497C443.021 337.147 443.055 335.798 443.081 334.452C443.081 334.462 443.081 334.473 443.081 334.486C443.359 326.797 443.514 319.111 443.757 311.423C443.757 311.428 443.757 311.431 443.757 311.436C443.757 311.396 443.757 311.357 443.757 311.317C443.757 311.331 443.757 311.341 443.757 311.354C443.869 304.29 443.517 297.223 443.771 290.164C443.771 290.18 443.771 290.198 443.771 290.217C443.771 290.172 443.771 290.127 443.773 290.082C443.773 290.09 443.773 290.096 443.773 290.104C443.906 284.494 444.255 278.886 444.731 273.303C444.691 272.729 444.844 271.706 445.643 271.915C446.815 273.295 445.801 275.672 445.936 277.382C445.953 282.836 445.396 288.278 445.305 293.732C445.305 293.724 445.305 293.719 445.305 293.711C445.305 293.753 445.305 293.798 445.305 293.84C445.305 293.829 445.305 293.816 445.305 293.803C445.334 302.669 445.353 311.53 444.866 320.387C444.866 320.373 444.866 320.363 444.866 320.35C444.866 320.387 444.863 320.424 444.863 320.461C444.863 320.447 444.863 320.432 444.863 320.418C444.931 325.63 444.469 330.818 444.415 336.028C444.415 336.022 444.415 336.017 444.415 336.014C444.297 348.868 442.354 361.639 442.236 374.484C442.236 374.479 442.236 374.471 442.236 374.466C442.236 374.482 442.236 374.5 442.236 374.516C442.236 374.508 442.236 374.5 442.236 374.49C442.393 375.256 441.549 376.187 440.859 375.517Z" fill="#231F20"/>
    <path d="M471.161 374.719C471.068 374.55 471 374.368 470.928 374.187C470.94 374.221 470.952 374.253 470.967 374.284C469.339 370.466 468.541 366.374 467.067 362.504C464.59 356.056 461.976 349.613 460.409 342.868C460.418 342.905 460.43 342.942 460.436 342.979C460.418 342.905 460.404 342.834 460.383 342.763C460.392 342.797 460.404 342.834 460.409 342.871C457.328 327.791 453.585 312.743 452.859 297.3C452.451 289.448 452.389 281.572 452.787 273.717C452.719 273.114 453.058 272.128 453.83 272.468C454.657 274.017 454.023 276.257 454.16 278.025C454.16 278.012 454.163 277.999 454.163 277.986C454.16 278.025 454.16 278.067 454.16 278.11C454.16 278.086 454.16 278.062 454.16 278.041C454.22 287.192 454.479 296.356 455.312 305.473C455.306 305.426 455.303 305.381 455.297 305.336C456.661 317.802 459.26 330.044 461.83 342.294C461.824 342.257 461.815 342.22 461.803 342.183C463.955 351.737 468.541 360.498 470.997 369.963C471.164 371.41 473.087 373.77 472.069 374.959C471.747 375.172 471.348 375.064 471.161 374.719Z" fill="#231F20"/>
    <path d="M465.729 386.738C464.215 385.703 467.434 381.113 468.147 379.872C468.126 379.909 468.105 379.946 468.084 379.98C469.217 378.014 470.529 376.141 471.586 374.141C473.714 373.332 471.112 377.74 470.713 378.388C470.734 378.354 470.752 378.32 470.773 378.288C470.752 378.325 470.731 378.365 470.707 378.401C470.71 378.391 470.719 378.381 470.725 378.37C470.16 379.303 469.667 380.275 469.12 381.216C469.129 381.195 469.144 381.173 469.157 381.15C468.573 382.154 467.884 383.11 467.488 384.212C467.778 383.943 468.059 383.666 468.341 383.387C468.316 383.411 468.289 383.437 468.265 383.461C470.77 381.224 472.638 378.444 474.92 376.009C475.283 375.084 476.059 374.736 476.637 375.735C476.628 375.722 476.615 375.706 476.606 375.693C477.598 376.963 478.169 378.502 479.133 379.798C478.764 377.337 477.734 375.037 477.259 372.618C477.259 372.626 477.259 372.636 477.262 372.644C477.259 372.621 477.256 372.597 477.253 372.573C477.253 372.579 477.253 372.584 477.253 372.589C476.99 371.785 477.229 369.87 478.383 370.858C478.915 374.323 480.363 377.774 480.405 381.334C479.387 384.791 476.331 378.22 475.754 377.105C473.255 379.793 469.314 386.006 465.729 386.738Z" fill="#231F20"/>
    <path d="M478.598 378.382C475.861 371.091 474.508 363.452 472.716 355.905C470.988 346.815 468.858 337.812 467.596 328.639C467.596 328.65 467.596 328.66 467.599 328.671C467.584 328.539 467.571 328.407 467.553 328.278C467.559 328.315 467.562 328.352 467.568 328.389C465.919 313.191 467.284 297.9 467.662 282.673C467.898 281.108 467.605 272.731 469.006 272.605C469.964 272.752 469.369 273.867 469.457 274.499C469.457 274.494 469.457 274.492 469.457 274.486C469.293 280.873 469.07 287.266 468.855 293.655C468.855 293.637 468.858 293.619 468.858 293.6C468.855 293.642 468.855 293.684 468.855 293.726C468.855 293.716 468.855 293.703 468.855 293.69C468.846 294.427 468.846 295.168 468.831 295.908C468.831 295.903 468.831 295.9 468.831 295.898C468.831 295.94 468.831 295.982 468.831 296.024C468.831 296.016 468.831 296.011 468.831 296.003C468.828 296.103 468.828 296.203 468.825 296.303C468.825 296.293 468.825 296.282 468.825 296.272C468.825 296.314 468.825 296.356 468.822 296.398C468.822 296.393 468.822 296.388 468.822 296.383C468.78 300.677 468.212 304.938 468.188 309.233C468.188 309.196 468.191 309.157 468.191 309.12C468.127 315.191 468.239 321.293 468.904 327.333C468.904 327.33 468.904 327.327 468.904 327.325C470.973 340.721 473.65 354.011 476.623 367.23C477.49 370.429 478.589 373.557 479.686 376.679C479.84 377.335 480.221 378.284 479.447 378.682C479.139 378.832 478.74 378.714 478.598 378.382Z" fill="#231F20"/>
    <path d="M479.522 381.282C479.292 378.499 478.738 375.769 477.811 373.137C477.36 372.022 476.213 370.283 476.7 369.135C477.315 368.734 477.466 369.814 477.72 370.173C478.468 371.767 479.428 373.232 479.9 374.947C479.897 374.939 479.894 374.929 479.894 374.918C480.197 376.433 480.406 377.972 480.548 379.511C480.545 379.479 480.545 379.447 480.539 379.419C480.536 380.167 481.205 381.361 480.257 381.764C479.927 381.869 479.57 381.635 479.522 381.282Z" fill="#231F20"/>
    <path d="M466.095 385.313C465.723 384.907 466.092 384.164 466.596 384.095C469.975 380.599 472.873 376.667 476.216 373.134C476.614 372.781 476.932 372.122 477.548 372.196C478.624 372.644 478.31 374.275 478.688 375.218C478.848 376.604 480.365 377.903 479.794 379.289C480.38 380.095 479.34 381.471 478.642 380.438C477.92 378.688 476.669 377.171 476.273 375.287C474.233 376.738 467.633 386.035 466.095 385.313Z" fill="#231F20"/>
    <path d="M426.851 387.289C424.84 386.453 437.856 376.269 439.183 375.316C439.172 375.323 439.16 375.334 439.149 375.342C443.057 371.798 440.618 378.915 441.183 380.736C442.417 380.604 441.738 382.812 441.822 383.566C441.576 384.672 440.484 384.351 440.322 383.384C438.99 381.811 439.177 379.315 438.901 377.347C435.038 380.156 431.583 383.439 428.013 386.604C427.957 386.815 427.773 387.012 427.541 387.025C427.457 387.099 427.371 387.168 427.279 387.225C427.156 387.31 426.999 387.341 426.851 387.289Z" fill="#231F20"/>
    <path d="M355.776 383.083C355.873 382.996 355.971 382.909 356.066 382.819C355.886 383.309 355.431 383.715 354.914 383.786C355.214 383.565 355.499 383.328 355.776 383.083Z" fill="#231F20"/>
    <path d="M331.91 350.691C334.503 350.82 337.067 351.101 339.666 350.772C339.74 350.53 339.815 350.287 339.889 350.045C339.396 349.434 339.583 348.57 339.604 347.84C339.838 344.941 340.165 342.051 340.344 339.147C340.745 332.863 340.647 326.539 341.484 320.289C343.469 307.81 346.119 295.431 346.413 282.749C346.41 282.815 346.404 282.878 346.401 282.941C346.739 272.871 347.604 262.837 348.275 252.785C348.765 245.591 348.263 238.374 348.908 231.186C348.905 231.252 348.902 231.315 348.896 231.378C349.294 220.364 350.251 209.385 350.503 198.365C350.646 187.906 350.791 177.466 351.974 167.063C352.565 157.735 352.315 148.422 352.232 139.097C352.8 132.273 353.468 125.434 352.761 118.59C352.761 118.622 352.764 118.652 352.767 118.685C352.176 112.954 352.312 107.197 351.944 101.458C350.741 91.5922 350.943 81.6284 350.485 71.7093C350.28 56.6776 351.32 41.6459 350.423 26.632C350.426 26.6617 350.429 26.6944 350.432 26.7241C350.408 26.4419 350.387 26.1567 350.361 25.8745C346.523 26.1151 342.693 25.5864 338.858 25.8181C338.885 25.8151 338.909 25.8151 338.932 25.8151C338.873 25.8151 338.817 25.8181 338.757 25.821C338.766 25.821 338.766 25.821 338.772 25.821C323.384 26.3439 307.954 25.0754 292.542 25.1407C282.82 25.4289 273.11 24.8199 263.395 24.8853C253.295 25.4229 243.153 24.8318 233.067 25.5923C213.1 25.8151 193.514 30.5563 173.55 31.0079C173.9 39.9823 173.787 48.9657 175.127 57.8659C175.557 66.371 175.341 74.8998 175.732 83.4079C175.732 83.4049 175.732 83.4049 175.732 83.4019C176.241 89.7473 176.723 96.1046 176.776 102.471C176.588 109.012 176.046 115.56 176.709 122.095C176.705 122.039 176.701 121.979 176.697 121.92C178.292 138.972 177.623 156.05 177.236 173.129C178.042 194.846 176.376 216.592 177.294 238.295C178.099 247.338 177.365 256.431 178.255 265.472C178.424 276.783 178.638 288.095 178.749 299.404C177.78 316.558 176.603 333.724 177.887 350.899C197.557 348.485 217.305 349.866 237.052 349.787C245.985 349.871 254.908 349.376 263.838 349.392C272.644 349.37 281.413 350.337 290.225 350.151C298.671 350.314 307.107 350.04 315.556 350.121C321.007 350.256 326.45 350.82 331.91 350.691ZM178.186 382.434C177.698 382.073 177.04 382.031 176.465 381.878C176.516 381.888 176.569 381.899 176.62 381.909C173.334 380.089 168.146 379.324 166.68 375.491C164.767 371.876 165.317 367.812 165.047 363.844C164.876 360.5 164.913 357.154 164.864 353.81C164.733 348.562 164.566 343.315 163.977 338.096C163.618 330.61 163.932 323.095 163.95 315.601C163.982 310.244 164.248 304.898 164.49 299.549C164.906 292.775 164.079 286.014 164.326 279.239C164.318 268.444 165.981 257.688 165.449 246.896C164.112 235.787 165.19 224.649 165.488 213.522C165.554 203.086 164.204 192.699 164.508 182.261C164.299 167.101 165.101 151.948 165.001 136.791C164.461 123.655 162.739 110.605 161.977 97.4771C161.981 97.5425 161.986 97.6108 161.991 97.6761C160.803 87.1183 161.057 76.4892 160.724 65.8808C160.673 54.8803 159.949 43.8918 160.84 32.9061C161.058 29.4215 160.83 25.9221 161.228 22.4463C161.55 20.1945 161.154 17.7348 162.583 15.8217C167.391 8.87918 175.907 7.64932 183.669 6.75217C198.731 4.04883 213.983 2.89026 229.214 1.6604C229.165 1.66336 229.116 1.66336 229.067 1.66635C233.927 1.5386 238.757 0.980103 243.606 0.671173C243.583 0.671173 243.561 0.674133 243.538 0.674133C263.337 0.0710754 283.144 -0.225983 302.957 0.201782C313.982 -0.000213623 325 0.10376 335.994 1.03061C335.938 1.02762 335.879 1.0217 335.822 1.01874C349.974 2.0882 364.852 0.787018 363.877 19.7192C363.675 31.0287 364.772 42.3232 364.222 53.6297C363.88 68.9109 364.109 84.1981 363.64 99.4823C363.485 117.036 363.961 134.605 364.804 152.129C364.798 152.067 364.792 152.007 364.789 151.945C365.41 157.77 364.769 163.593 364.62 169.421C364.611 179.076 364.567 188.727 363.729 198.352C363.732 198.339 363.732 198.325 363.735 198.31C363.453 211.941 362.401 225.542 362.181 239.167C362.125 250.368 361.798 261.567 361.682 272.763C359.252 292.912 360.696 313.217 359.193 333.427C359.193 333.424 359.193 333.421 359.193 333.419C359.047 335.98 358.836 338.541 358.688 341.102C358.688 341.099 358.69 341.099 358.69 341.097C358.634 341.993 358.581 342.886 358.527 343.779C358.533 343.713 358.533 343.647 358.539 343.581C358.289 348.124 358.242 352.672 357.927 357.212C357.927 357.201 357.927 357.191 357.93 357.18C357.232 362.935 358.034 369.143 355.387 374.447C348.537 385.187 332.361 382.312 321.453 382.094C299.826 382.386 278.19 380.658 256.581 381.683C256.592 381.683 256.602 381.68 256.613 381.68C232.106 383.15 207.545 381.087 183.032 382.568C183.087 382.565 183.143 382.563 183.198 382.558C182.54 382.597 181.881 382.631 181.222 382.665C181.277 382.663 181.332 382.66 181.387 382.658C180.299 382.718 179.219 382.868 178.186 382.434Z" fill="#231F20"/>
    <path d="M430.599 190.275C428.42 189.565 431.971 185.152 432.86 184.183C433.617 183.31 433.576 182.089 433.834 181.022C433.862 180.55 434.375 179.943 434.828 180.382C435.094 181.658 434.88 183.239 434.408 184.485C433.766 185.69 432.734 186.65 432.199 187.929C431.683 188.695 431.773 190.245 430.599 190.275Z" fill="white"/>
    <path d="M453.971 217.386C447.939 215.938 441.808 214.658 435.807 213.261C435.807 213.26 435.81 213.26 435.81 213.26C435.436 212.586 436.357 212.47 436.824 212.643C443.161 213.073 449.207 215.118 455.435 216.011C456.588 214.564 457.214 212.799 457.74 211.046C457.74 211.05 457.737 211.053 457.737 211.057C457.773 210.952 457.805 210.847 457.84 210.742C457.834 210.757 457.829 210.772 457.826 210.788C459.199 207.149 460.41 203.468 461.71 199.805C461.707 199.813 461.704 199.821 461.704 199.828C462.192 197.631 463.251 195.612 463.695 193.408C463.692 193.424 463.689 193.439 463.686 193.455C463.695 193.407 463.707 193.36 463.713 193.312C463.713 193.314 463.713 193.315 463.713 193.317C464.163 191.537 464.392 189.702 464.883 187.937C465.259 186.758 467.091 187.134 466.724 188.417C465.636 193.797 463.992 199.008 461.922 204.088C461.925 204.085 461.925 204.082 461.925 204.079C461.901 204.157 461.875 204.236 461.848 204.314C461.863 204.271 461.878 204.229 461.889 204.186C460.234 208.155 458.943 212.35 456.902 216.13C456.905 216.126 456.908 216.122 456.911 216.118C456.382 217.322 455.188 217.693 453.971 217.386Z" fill="white"/>
    <path d="M461.544 229.524C450.307 228.09 438.939 226.773 428.068 223.466C427.654 223.297 427.773 222.681 428.136 222.52C428.46 222.385 428.793 222.612 429.12 222.649C437.171 224.559 445.424 225.893 453.639 226.902C457.636 226.625 462.468 229.626 465.785 226.43C465.779 226.435 465.773 226.441 465.773 226.446C465.794 226.422 465.818 226.401 465.842 226.377C465.824 226.393 465.806 226.409 465.791 226.425C467.669 223.98 468.909 221.013 469.928 218.117C470.852 216.394 472.22 217.881 470.956 219.585C470.959 219.578 470.962 219.571 470.968 219.564C469.105 223.674 467.042 229.808 461.544 229.524Z" fill="white"/>
    <path d="M463.014 165.022C461.285 164.823 461.235 162.81 461.838 163.629C462.578 165.324 464.487 163.863 464.888 164.504C464.765 165.204 463.565 165.008 463.014 165.022Z" fill="white"/>
    <path d="M461.895 167.314C461.59 167.197 461.356 166.878 461.505 166.553C461.499 166.574 461.493 166.594 461.488 166.612C461.561 166.234 462.155 166.087 462.255 166.521C462.483 166.603 462.738 166.576 462.975 166.547C462.972 166.547 462.969 166.547 462.966 166.547C462.984 166.544 463.001 166.544 463.022 166.541C463.007 166.541 462.996 166.544 462.981 166.544C463.239 166.5 463.496 166.433 463.748 166.36C463.727 166.363 463.707 166.369 463.687 166.377C464.096 166.287 464.761 165.809 464.972 166.412C465.042 166.658 464.913 166.966 464.676 167.074C463.818 167.402 462.779 167.669 461.895 167.314Z" fill="white"/>
    <path d="M462.742 170.016C462.159 169.945 462.431 169.054 462.921 169.388C462.918 169.388 462.918 169.388 462.915 169.388C462.927 169.391 462.938 169.394 462.953 169.397C462.944 169.394 462.936 169.391 462.927 169.391C462.953 169.397 462.98 169.4 463.009 169.403C462.997 169.403 462.982 169.4 462.971 169.397C463.618 169.415 464.246 169.119 464.756 168.741C464.917 168.623 465.148 168.653 465.257 168.82C465.524 169.819 463.454 170.165 462.742 170.016Z" fill="white"/>
    <path d="M456.994 138.81C456.249 138.223 457.578 137.047 457.882 136.417C458.26 135.914 458.824 136.59 458.373 136.96C458.373 136.957 458.376 136.957 458.376 136.957C458.361 136.972 458.353 136.986 458.341 137C458.347 136.995 458.353 136.989 458.359 136.98C458.046 137.359 457.798 137.781 457.584 138.217C457.59 138.208 457.596 138.197 457.601 138.188C457.59 138.206 457.584 138.223 457.575 138.243C457.575 138.237 457.578 138.232 457.581 138.229C457.466 138.483 457.344 138.873 456.994 138.81Z" fill="white"/>
    <path d="M459.77 138.492C459.041 138.294 460.112 136.556 460.62 137.067C460.846 137.328 460.617 137.618 460.428 137.816C460.257 138.074 460.173 138.559 459.77 138.492Z" fill="white"/>
    <path d="M461.94 139.117C461.404 139.018 461.768 138.386 461.85 138.053C461.844 138.071 461.838 138.088 461.832 138.103C461.975 137.094 462.835 137.147 462.462 138.199C462.465 138.182 462.465 138.164 462.468 138.149C462.456 138.219 462.442 138.292 462.43 138.362C462.43 138.359 462.433 138.356 462.433 138.356C462.375 138.657 462.351 139.126 461.94 139.117Z" fill="white"/>
    <path d="M447.216 136.246C446.56 136.025 447.801 134.298 448.219 134.776C448.559 134.974 447.524 136.475 447.216 136.246Z" fill="white"/>
    <path d="M448.904 137.179C448.285 136.705 449.315 135.901 449.511 135.39C449.616 135.234 449.846 135.149 450.016 135.245C450.505 135.609 449.863 136.108 449.681 136.466C449.681 136.463 449.681 136.46 449.681 136.458C449.471 136.724 449.341 137.301 448.904 137.179Z" fill="white"/>
    <path d="M430.549 258.699C428.998 258.623 427.477 258.275 425.943 258.056C425.948 258.056 425.956 258.056 425.962 258.056C425.17 257.922 425.539 256.647 426.27 256.807C428.179 257.171 430.115 257.513 432.067 257.482C432.061 257.482 432.056 257.484 432.053 257.484C432.078 257.482 432.099 257.482 432.124 257.482C432.11 257.482 432.094 257.482 432.083 257.482C432.435 257.424 432.809 257.579 432.807 257.985C432.7 259.015 431.269 258.631 430.549 258.699Z" fill="white"/>
    <path d="M431.431 253.464C430.441 253.048 427.146 252.684 427.547 251.237C427.937 250.547 428.597 251.158 429.08 251.385C429.836 251.986 432.359 251.851 432.094 253.058C431.996 253.303 431.71 253.541 431.431 253.464Z" fill="white"/>
    <path d="M463.825 264.856C463.056 264.595 463.586 263.631 464.233 263.625C464.209 263.633 464.189 263.638 464.165 263.646C465.185 263.386 466.181 263.059 467.124 262.584C469.634 262.94 464.481 264.927 463.825 264.856Z" fill="white"/>
    <path d="M464.908 257.37C464.811 256.677 465.944 256.682 466.403 256.458C466.391 256.463 466.38 256.466 466.368 256.468C466.412 256.455 466.456 256.442 466.5 256.429C466.488 256.434 466.474 256.437 466.465 256.439C466.65 256.387 466.833 256.334 467.021 256.284C467.386 256.208 467.418 256.779 467.104 256.863C466.433 256.906 465.441 257.717 464.908 257.37Z" fill="white"/>
    <path d="M39.1384 240.371C38.9534 240.268 38.9995 239.986 39.1616 239.886C39.161 239.884 39.1605 239.884 39.16 239.884C41.3077 238.495 43.1664 236.69 45.0417 234.962C45.0316 234.97 45.0222 234.98 45.0127 234.991C45.508 234.503 45.9952 234.008 46.4961 233.526C46.4903 233.531 46.4843 233.536 46.4782 233.544C46.6492 233.375 46.8205 233.209 46.9939 233.041C46.9925 233.043 46.9912 233.043 46.9897 233.046C47.1388 232.901 47.2885 232.759 47.4384 232.617C47.4368 232.617 47.4357 232.619 47.4342 232.619C47.4436 232.611 47.4534 232.601 47.4629 232.593C47.4618 232.593 47.4608 232.593 47.4597 232.595C48.7337 231.375 50.0902 230.245 51.3441 229.007C51.3344 229.017 51.3246 229.025 51.3141 229.036C51.3259 229.025 51.3367 229.015 51.3486 229.001C51.347 229.004 51.3454 229.004 51.3441 229.007C51.6113 228.743 51.8801 228.48 52.1504 228.219C52.1478 228.221 52.1457 228.224 52.143 228.227C52.2621 228.108 52.382 227.992 52.5009 227.876C52.4969 227.882 52.4929 227.887 52.4887 227.889C55.8027 225.091 58.7464 221.906 62.0551 219.105C62.8487 218.712 63.9043 216.839 64.7395 217.229C65.0858 218.196 63.4453 218.802 62.9167 219.476C60.9424 221.062 59.0489 222.746 57.2875 224.567C57.2996 224.554 57.3127 224.54 57.3246 224.53C54.0615 227.276 50.903 230.134 47.7822 233.043C47.792 233.033 47.8015 233.025 47.811 233.014C47.6542 233.167 47.4958 233.317 47.3377 233.47C47.3388 233.468 47.3401 233.468 47.3412 233.468C47.3319 233.475 47.3227 233.483 47.3135 233.494C47.318 233.489 47.3224 233.486 47.3269 233.481C47.3214 233.486 47.3153 233.491 47.3098 233.497C47.3137 233.494 47.3177 233.489 47.3219 233.486C47.1562 233.649 46.9907 233.81 46.8239 233.971C46.8276 233.968 46.8313 233.966 46.8345 233.963C44.4019 236.124 42.0911 239.085 39.1384 240.371Z" fill="white"/>
    <path d="M37.1586 221.979C36.2251 221.173 41.2786 218.698 41.9555 217.874C41.9539 217.876 41.9526 217.876 41.9513 217.879C41.9639 217.868 41.9768 217.858 41.9895 217.85C41.9826 217.855 41.976 217.858 41.9695 217.863C43.4081 216.68 44.91 215.576 46.4159 214.477C46.4053 214.485 46.3945 214.493 46.3837 214.501C46.8472 214.248 58.9708 202.852 55.3949 207.329C55.3954 207.329 55.396 207.329 55.3968 207.329C55.3952 207.329 55.3931 207.331 55.3912 207.334C55.392 207.331 55.3931 207.331 55.3939 207.331C52.364 209.914 49.4089 212.583 46.4172 215.207C46.428 215.199 46.4388 215.191 46.4496 215.183C46.4101 215.215 46.3695 215.244 46.3287 215.276C46.3316 215.273 46.3345 215.27 46.3371 215.268C46.3015 215.297 46.2665 215.323 46.2307 215.349C46.2388 215.344 46.2473 215.339 46.2554 215.331C45.7411 215.724 45.2183 216.106 44.7005 216.496C44.704 216.493 44.7077 216.49 44.7114 216.488C44.6998 216.496 44.6882 216.504 44.6766 216.514C44.6797 216.511 44.6826 216.509 44.6855 216.506C43.636 217.289 42.6854 218.195 41.6411 218.986C41.6427 218.983 41.6443 218.983 41.6459 218.98C41.1397 219.37 40.623 219.745 40.1171 220.132C40.1261 220.127 40.135 220.119 40.1442 220.111C40.1369 220.119 40.1297 220.124 40.1226 220.129C40.1316 220.121 40.1406 220.116 40.1495 220.108C40.0457 220.187 39.9419 220.266 39.8383 220.345C39.8418 220.343 39.8457 220.34 39.8494 220.337C39.105 220.64 37.826 222.54 37.1586 221.979Z" fill="white"/>
    <path d="M95.9201 199.768C95.9333 197.38 95.5083 194.896 95.7444 192.472C95.7431 192.487 95.742 192.506 95.741 192.524C95.8891 189.881 95.5526 187.204 95.7921 184.572C95.7879 184.583 95.7839 184.593 95.7802 184.606C95.7802 184.604 95.7802 184.604 95.7802 184.604C95.7844 184.588 95.7902 184.575 95.796 184.559C95.7955 184.561 95.795 184.561 95.7947 184.561C96.0466 184.056 96.5317 184.48 96.3428 184.917C96.2893 187.563 96.5876 190.211 96.4345 192.856C96.4358 192.838 96.4371 192.819 96.4382 192.801C96.4361 192.885 96.4287 192.972 96.4229 193.059C96.424 193.041 96.425 193.022 96.4263 193.004C96.424 193.043 96.4216 193.085 96.4192 193.125C96.4197 193.117 96.4203 193.107 96.4208 193.099C96.4203 193.109 96.4195 193.12 96.419 193.13C96.4195 193.122 96.42 193.117 96.4205 193.109C96.4131 193.236 96.4047 193.362 96.3976 193.489C96.3976 193.481 96.3979 193.475 96.3981 193.468C96.3916 193.581 96.385 193.694 96.3786 193.807C96.3797 193.789 96.3807 193.773 96.3821 193.752C96.3641 194.182 96.3578 194.608 96.3976 195.038C96.3966 195.019 96.3952 195.001 96.3939 194.983C96.5533 196.4 96.7504 197.823 96.6274 199.251C96.6287 199.23 96.6298 199.209 96.6298 199.191C96.7009 199.586 96.3062 200.121 95.9201 199.768Z" fill="white"/>
    <path d="M59.3789 196.575C56.2636 193.281 53.108 189.998 50.4823 186.299C50.4981 186.32 50.5147 186.344 50.5303 186.365C49.2192 184.085 45.7332 181.079 46.7481 178.32C47.6013 177.077 49.0437 176.386 50.0742 175.301C50.071 175.303 50.0681 175.306 50.065 175.309C50.114 175.258 50.1622 175.208 50.2099 175.158C43.1696 176.02 41.7594 176.312 44.7806 169.058C44.7798 169.061 44.7788 169.064 44.7783 169.066C45.0162 168.4 45.1548 167.701 45.3261 167.016C46.5049 165.984 45.3798 169.217 45.2628 169.636C45.2641 169.63 45.2657 169.625 45.2673 169.62C45.1603 169.946 45.051 170.273 44.9437 170.6C44.944 170.6 44.9445 170.597 44.9448 170.597C44.9429 170.605 44.9406 170.61 44.9385 170.618C44.9398 170.613 44.9408 170.61 44.9422 170.605C44.9187 170.679 44.8945 170.753 44.8702 170.826C44.8763 170.808 44.8821 170.79 44.8884 170.774C44.5896 171.88 44.0147 172.948 43.9274 174.096C43.9259 174.086 43.9224 174.075 43.9216 174.065C43.9216 174.067 43.9219 174.067 43.9219 174.07C43.9195 174.06 43.9174 174.052 43.9156 174.041C43.9172 174.054 43.9219 174.07 43.9224 174.083C43.9224 174.081 43.9224 174.081 43.9224 174.078C43.9335 174.136 43.9612 174.194 44.002 174.239C43.9946 174.231 43.9873 174.22 43.9801 174.212C45.5116 175.306 47.7157 174.407 49.474 174.389C49.4734 174.389 49.4729 174.389 49.4724 174.389C50.5627 174.12 52.4301 173.68 51.1118 175.414C50.1495 176.845 48.1467 177.53 47.5028 179.116C48.4287 182.518 51.4578 185.11 53.3552 188.048C53.3539 188.046 53.3528 188.043 53.3515 188.043C55.123 189.874 56.749 191.793 58.3352 193.793C58.7852 194.607 60.6724 195.505 60.0658 196.483C59.9003 196.665 59.5807 196.759 59.3789 196.575Z" fill="white"/>
    <path d="M78.4604 192.284C77.5245 191.575 79.0604 190.35 79.2261 189.496C79.2129 189.523 79.1998 189.549 79.1869 189.575C79.4704 188.975 79.7218 188.361 80.0063 187.757C79.9995 187.77 79.9926 187.786 79.986 187.799C80.0277 187.712 80.0709 187.623 80.1125 187.536C80.0993 187.562 80.0875 187.589 80.0746 187.615C80.2408 187.262 80.4126 186.914 80.5815 186.564C80.5789 186.569 80.576 186.574 80.5731 186.582C80.5855 186.556 80.5979 186.529 80.6105 186.503C80.6066 186.511 80.6029 186.519 80.5992 186.527C81.689 183.399 84.0006 180.703 84.7647 177.507C83.6225 174.48 75.4068 175.265 85.5802 170.253C85.5747 170.256 85.5692 170.259 85.5634 170.261C85.5808 170.253 85.5984 170.245 85.6161 170.24C85.6082 170.243 85.6003 170.245 85.5929 170.248C85.9478 170.035 86.6872 169.887 86.7109 169.415C85.8126 168.335 84.672 167.489 83.6444 166.538C82.909 165.75 81.967 165.144 81.201 164.457C80.9865 161.621 85.1447 166.73 85.9894 167.131C90.7107 170.859 83.6955 171.212 81.498 173.666C81.5077 173.658 81.5175 173.65 81.5277 173.642C81.4922 173.668 81.4579 173.697 81.425 173.726C81.8284 174.277 82.5071 174.532 83.0963 174.836C83.0784 174.825 83.0607 174.817 83.0425 174.809C88.3514 176.216 84.1505 180.97 82.8233 183.944C81.8906 185.38 79.8406 192.389 78.4604 192.284Z" fill="white"/>
    <path d="M67.687 244.447C67.2622 243.899 69.2732 242.745 69.1167 240.969C69.1154 240.993 69.1143 241.017 69.113 241.04C69.2187 235.794 69.435 230.551 69.479 225.302C69.728 223.589 69.0421 215.827 70.2492 215.355C70.2347 220.825 70.2666 226.822 70.3227 232.472C69.9072 235.473 71.3293 243.686 67.687 244.447Z" fill="white"/>
    <path d="M72.1374 245.683C71.6344 245.433 69.2506 242.239 70.7768 242.534C71.3293 243.396 71.6803 244.476 72.6109 245.045C72.9606 245.322 72.5079 245.962 72.1374 245.683Z" fill="white"/>
    <path d="M44.4268 248.969C43.8076 247.96 45.4286 248.181 46.0012 248.155C45.9898 248.155 45.9785 248.155 45.9669 248.155C46.101 248.152 46.2344 248.152 46.3685 248.15C46.3529 248.15 46.3361 248.15 46.3205 248.15C49.9691 247.683 53.6367 247.952 57.2902 247.562C58.1919 247.594 61.7064 246.613 61.962 247.483C61.9633 247.71 61.7896 247.928 61.5601 247.949C58.7531 248.134 55.9754 248.632 53.1547 248.613C53.1595 248.613 53.1642 248.613 53.1687 248.611C52.2507 248.624 51.3358 248.526 50.4181 248.555C50.4336 248.555 50.4492 248.555 50.465 248.555C48.464 248.619 46.4022 249.151 44.4268 248.969Z" fill="white"/>
    <path d="M84.6782 247.621C83.4151 247.563 82.1492 247.553 80.8858 247.553C80.8882 247.553 80.8905 247.553 80.8932 247.553C79.9889 247.568 79.0861 247.621 78.1832 247.634C78.185 247.634 78.1869 247.634 78.1887 247.634C78.0722 247.637 77.9555 247.64 77.8388 247.642C77.8419 247.64 77.8451 247.64 77.848 247.64C77.3408 247.508 76.3248 248.032 76.1182 247.445C76.1169 247.279 76.2473 247.105 76.4207 247.092C78.4295 247.012 80.4379 246.86 82.4475 246.82C82.443 246.82 82.4383 246.82 82.4338 246.82C82.5888 246.817 82.7426 246.815 82.897 246.815C82.8923 246.815 82.8873 246.815 82.8825 246.815C83.0338 246.81 83.1858 246.81 83.3373 246.807C83.3326 246.807 83.3276 246.81 83.3228 246.81C83.4385 246.807 83.5552 246.804 83.6709 246.804C83.6654 246.804 83.6598 246.804 83.6543 246.804C84.8825 246.76 86.1085 246.894 87.3364 246.873C87.329 246.873 87.3213 246.873 87.314 246.875C87.3311 246.873 87.3482 246.873 87.3656 246.873C87.3569 246.873 87.3485 246.873 87.3398 246.873C88.115 247.055 90.4769 246.101 90.5657 247.142C90.532 247.45 90.2493 247.64 89.9523 247.608C89.9549 247.608 89.9573 247.608 89.9602 247.608C89.9333 247.608 89.9062 247.608 89.8793 247.608C89.8814 247.608 89.8838 247.608 89.8862 247.608C89.8677 247.608 89.8493 247.608 89.8311 247.608C89.8343 247.608 89.8374 247.608 89.8406 247.608C89.8403 247.608 89.8398 247.608 89.8395 247.608C89.8427 247.608 89.8461 247.608 89.849 247.608C88.1239 247.729 86.4015 247.803 84.6782 247.621Z" fill="white"/>
    <path d="M130.708 215.648C130.257 215.533 130.416 215.029 130.539 214.716C130.532 214.739 130.525 214.76 130.518 214.784C130.533 214.737 130.549 214.689 130.564 214.639C130.557 214.663 130.55 214.684 130.543 214.708C130.993 213.928 131.084 212.318 132.066 212.139C132.36 212.197 132.492 212.555 132.369 212.816C131.797 213.504 131.554 215.561 130.708 215.648Z" fill="white"/>
    <path d="M134.091 216.099C133.9 215.301 133.7 214.502 133.531 213.696C133.534 213.709 133.537 213.72 133.54 213.733C133.492 213.222 133.12 212.229 133.821 212.052C134.05 212.031 134.218 212.247 134.183 212.466C133.932 213.095 135.821 217.39 134.091 216.099Z" fill="white"/>
    <path d="M21.5545 202.653C20.9613 202.11 18.8958 202.113 19.0009 201.241C19.5126 200.558 21.2796 201.662 21.9718 201.902C22.3955 202.15 21.9863 202.877 21.5545 202.653Z" fill="white"/>
    <path d="M24.0287 200.181C23.6176 199.51 22.2427 198.84 22.5291 198.018C23.2042 197.623 23.922 199.328 24.5022 199.686C24.7591 199.968 24.3196 200.474 24.0287 200.181Z" fill="white"/>
    <path d="M61.0589 124.491C60.8697 124.167 60.7042 123.832 60.505 123.516C60.113 123.31 60.2555 122.688 60.6436 122.564C61.3643 122.425 61.4536 123.534 61.7719 123.985C61.9814 124.398 61.3524 124.92 61.0589 124.491Z" fill="white"/>
    <path d="M63.1695 123.237C63.3031 122.805 63.212 121.953 63.7724 121.869C64.3676 122.04 63.7811 122.826 63.8156 123.247C63.7848 123.672 63.1208 123.714 63.1695 123.237Z" fill="white"/>
    <path d="M69.6924 122.63C69.5114 122.298 69.2901 121.961 69.2129 121.59C69.2598 121.179 69.6735 121.318 69.7259 121.65C69.7227 121.645 69.7201 121.642 69.7164 121.635C69.825 121.959 70.3551 122.333 70.0418 122.662C69.9409 122.749 69.7681 122.757 69.6924 122.63Z" fill="white"/>
    <path d="M72.9683 122.151C72.8642 121.661 72.4632 120.781 73.1261 120.554C73.7954 120.501 73.4753 121.431 73.7016 121.824C73.8528 122.269 73.1483 122.667 72.9683 122.151Z" fill="white"/>
    <path d="M57.3608 128.891C56.9661 128.659 56.5203 128.219 56.9337 127.782C57.3005 127.363 57.6889 127.784 57.9768 128.056C58.4263 128.43 57.8498 129.247 57.3608 128.891Z" fill="white"/>
    <path d="M54.5043 131.761C53.9012 131.571 54.2471 130.609 54.8094 130.936C55.3572 131.123 55.0215 132 54.5043 131.761Z" fill="white"/>
    <path d="M251.512 16.1094C250.146 15.8741 250.075 14.0997 250.977 13.2778C252.068 12.2817 253.688 12.2643 255.061 11.9187C260.587 11.1084 266.228 11.3263 271.798 10.8471C272.881 10.7803 273.969 10.6235 275.052 10.7251C277.042 11.0533 276.433 14.1752 274.583 14.2042C271.79 14.1723 268.987 14.2827 266.199 14.5411C266.215 14.5411 266.228 14.5382 266.244 14.5382C266.178 14.544 266.109 14.5499 266.043 14.5557C266.078 14.5528 266.115 14.5498 266.149 14.5469C261.259 15.0319 256.342 15.2033 251.512 16.1094Z" fill="#FDF6F2"/>
    <path d="M237.525 13.8696C237.545 11.6621 240.849 11.1689 240.829 13.6549C240.809 15.8624 237.504 16.3555 237.525 13.8696Z" fill="#FDF6F2"/>
    <path d="M256.515 367.942C254.118 368.121 251.296 366.582 253.369 364.053C254.924 362.719 257.158 363.599 259.024 363.278C262.694 363.289 266.328 362.559 269.998 362.74C273.711 363.141 277.413 363.141 281.131 362.827C283.692 362.872 283.146 366.935 280.82 366.956C277.131 367.378 273.458 367.671 269.74 367.383C265.324 367.42 260.947 368.242 256.515 367.942Z" fill="#FDF6F2"/>
</svg>
